<?xml version="1.0" encoding="UTF-8" standalone="yes"?>
<!DOCTYPE svg PUBLIC "-//W3C//DTD SVG 1.1//EN" "http://www.w3.org/Graphics/SVG/1.1/DTD/svg11.dtd">

<svg width="429" height="206" viewBox="0 0 429 206" xmlns="http://www.w3.org/2000/svg" xmlns:xlink="http://www.w3.org/1999/xlink" version="1.1" baseProfile="full">
    <defs>
        <radialGradient id="56490928-147171200" cx="114" cy="104" r="106" fx="114" fy="104" gradientUnits="userSpaceOnUse">
            <stop offset="0%" style="stop-color:#27a2ad;stop-opacity:1.000000"></stop>
            <stop offset="100%" style="stop-color:#0f4145;stop-opacity:1.000000"></stop>
        </radialGradient>
        <linearGradient id="105553173291136140604197176048" x1="50.077911%" x2="50.077911%" y1="100.000000%" y2="0.000000%">
            <stop offset="0%" style="stop-color:#176168;stop-opacity:1.000000"></stop>
            <stop offset="100%" style="stop-color:#27a2ad;stop-opacity:1.000000"></stop>
        </linearGradient>
    </defs>
    <g transform="scale(1.000000,-1.000000) translate(0,-206)">
        <path d="M 97.630100 130.344500 L 101.816300 131.302700 L 103.440600 132.260900 L 101.626600 133.219000 L 97.075800 134.177200 L 91.744900 135.135400 L 87.948700 136.093600 L 87.297900 137.051800 L 89.960200 138.010000 L 94.583000 138.968200 L 98.914600 139.926400 L 100.836600 140.884600 L 99.336300 141.842800 L 94.971100 142.801000 L 89.612600 143.759200 L 85.588300 144.717400 L 84.613500 145.675600 L 87.004500 146.633800 L 91.533300 147.591900 L 95.991200 148.550100 L 98.202000 149.508300 L 97.020400 150.466500 L 92.857500 151.424700 L 87.492300 152.382900 L 83.255300 153.341100 L 81.959300 154.299300 L 84.068000 155.257500 L 88.483000 156.215700 L 93.047700 157.173900 L 95.536900 158.132100 L 94.677700 159.090300 L 90.733200 160.048500 L 85.382100 161.006700 L 80.948600 161.964900 L 79.335600 162.923000 L 81.152200 163.881200 L 85.434000 164.839400 L 90.085600 165.797600 L 92.841800 166.755800 L 92.307300 167.714000 L 88.596200 168.672200 L 83.280200 169.630400 L 78.667200 170.588600 L 76.742600 171.546800 L 78.258500 172.505000 L 82.388300 173.463200 L 87.106400 174.421400 L 90.117300 175.379600 L 89.908400 176.337800 L 86.444800 177.295900 L 81.184600 178.254100 L 76.409900 179.212300 L 74.180500 180.170500 L 75.388200 181.128700 L 79.347900 182.086900 L 84.112100 183.045100 L 87.363800 184.003300 L 87.480400 184.961500 L 84.277400 185.919700 L 79.093200 186.877900 L 74.175400 187.836100 L 71.649200 188.794300 L 72.542600 189.752500 L 76.314800 190.710700 L 81.104100 191.668900 L 84.582300 192.627000 L 85.022700 193.585200 L 82.092200 194.543400 L 77.004300 195.501600 L 71.962400 196.459800 L 69.148500 197.418000 L 69.722800 198.376200 L 73.290700 199.334400 L 78.084300 200.292600 L 81.773500 201.250800 L 82.534700 202.209000 L 79.887600 203.167200 L 74.915800 204.125400 L 69.769300 205.083600 L 66.678200 206.041800 L 66.929800 207.000000 L 2.513000 207.000000 L 1.900300 206.107000 L 4.236200 205.214000 L 8.585200 204.321100 L 13.205100 203.428100 L 16.245400 202.535200 L 16.488500 201.642200 L 13.836900 200.749200 L 9.352700 199.856300 L 10.356900 199.840900 L 10.827400 199.799900 L 11.298100 199.758900 L 11.769200 199.717900 L 12.082800 199.594900 L 12.406700 199.471900 L 12.371300 199.287400 L 12.387200 199.102900 L 12.147600 198.856800 L 12.061300 198.610800 L 11.936700 198.303300 L 12.140800 197.995800 L 12.637100 197.626700 L 13.661300 197.257700 L 15.308000 196.827200 L 17.546100 196.396600 L 20.409900 195.920000 L 21.988000 195.671800 L 25.527000 195.108000 L 29.073800 194.454300 L 31.635700 193.710500 L 32.013400 192.876800 L 29.456800 191.953100 L 27.132500 191.446200 L 24.581900 190.939400 L 21.936100 190.387500 L 19.886000 189.835700 L 18.704600 189.238900 L 18.861400 188.642100 L 20.486300 188.000200 L 23.334600 187.358400 L 27.057800 186.671600 L 30.652700 185.984800 L 33.378000 185.253000 L 34.289900 184.521200 L 33.010000 183.744500 L 29.852900 182.967700 L 25.547900 182.145900 L 21.734500 181.324100 L 19.671100 180.457400 L 20.407800 179.590600 L 23.879400 178.678900 L 28.705300 177.767100 L 32.983900 176.821600 L 34.643300 175.825600 L 32.599400 174.829500 L 27.862200 173.833500 L 22.772600 172.837400 L 19.845500 171.841400 L 20.527500 170.845400 L 24.481400 169.849300 L 29.753500 168.853300 L 33.738600 167.857200 L 34.467500 166.861200 L 31.579900 165.865200 L 26.502900 164.869100 L 21.745100 163.873100 L 19.657600 162.877000 L 21.272000 161.881000 L 25.790500 160.885000 L 30.980300 159.888900 L 34.276800 158.892900 L 34.051200 157.896800 L 30.414900 156.900800 L 25.164800 155.904800 L 20.895100 154.908700 L 19.715800 153.912700 L 22.209600 152.916600 L 27.144100 151.920600 L 32.081100 150.924600 L 34.580900 149.928500 L 33.408200 148.932500 L 29.142600 147.936400 L 23.891800 146.940400 L 20.250600 145.944400 L 20.018100 144.948300 L 23.309400 143.952300 L 28.498000 142.956200 L 33.020000 141.960200 L 34.640800 140.964200 L 32.559600 139.968100 L 27.804800 138.972100 L 22.725900 137.976000 L 19.832600 136.980000 L 20.554800 135.984000 L 24.535400 134.987900 L 29.807500 133.991900 L 33.766000 132.995800 L 34.454600 131.999800 L 31.533300 131.003800 L 26.445400 130.007700 L 25.886200 129.890200 L 36.977600 129.890200 L 39.984100 130.462800 L 44.360000 131.460400 L 45.704400 132.458000 L 43.351000 133.455600 L 38.466100 134.453200 L 33.470900 135.450800 L 30.841300 136.448400 L 31.880600 137.446100 L 36.073700 138.443700 L 41.342300 139.441300 L 45.075000 140.438900 L 45.421900 141.436500 L 42.210900 142.434100 L 37.033600 143.431700 L 32.456000 144.429400 L 30.747000 145.427000 L 32.753700 146.424600 L 37.481400 147.422200 L 42.586900 148.419800 L 45.539700 149.417400 L 44.876300 150.415000 L 40.925400 151.412600 L 35.645400 152.410300 L 31.653200 153.407900 L 30.927400 154.405500 L 33.827900 155.403100 L 38.917000 156.400700 L 43.672400 157.398300 L 45.737000 158.395900 L 44.087600 159.393600 L 39.541700 160.391200 L 34.352400 161.388800 L 31.091800 162.386400 L 31.375900 163.384000 L 35.063900 164.381600 L 40.328000 165.379200 L 44.558900 166.376900 L 45.659800 167.374500 L 43.084900 168.372100 L 38.110500 169.369700 L 33.202100 170.367300 L 30.792500 171.364900 L 32.076000 172.362500 L 36.416400 173.360200 L 41.662500 174.357800 L 45.214100 175.355400 L 45.310800 176.353000 L 41.904700 177.350600 L 36.684100 178.348200 L 32.236400 179.345800 L 30.766200 180.343500 L 33.002100 181.341100 L 33.454900 181.341100 L 31.526600 180.386900 L 32.991400 179.432700 L 37.312700 178.478500 L 42.653900 177.524300 L 46.714200 176.570100 L 47.775700 175.616000 L 45.485300 174.661800 L 41.015600 173.707600 L 36.530700 172.753400 L 34.201700 171.799200 L 35.218800 170.845000 L 39.248900 169.890800 L 44.588100 168.936700 L 48.936400 167.982500 L 50.444900 167.028300 L 48.557000 166.074100 L 44.262200 165.119900 L 39.644900 164.165700 L 36.936600 163.211500 L 37.499900 162.257400 L 41.208500 161.303200 L 46.504600 160.349000 L 51.107900 159.394800 L 53.053400 158.440600 L 51.585800 157.486400 L 47.503000 156.532200 L 42.793100 155.578100 L 39.729800 154.623900 L 39.837200 153.669700 L 43.196400 152.715500 L 48.408700 151.761300 L 53.232000 150.807100 L 55.601100 149.852900 L 54.567900 148.898800 L 50.732600 147.944600 L 45.970800 146.990400 L 42.579600 146.036200 L 42.232500 145.082000 L 45.217400 144.127800 L 50.305900 143.173600 L 55.312300 142.219400 L 58.088100 141.265300 L 57.500000 140.311100 L 53.945700 139.356900 L 49.172900 138.402700 L 45.483700 137.448500 L 44.687200 136.494300 L 47.275900 135.540100 L 52.201700 134.586000 L 57.352800 133.631800 L 60.515000 132.677600 L 60.379100 131.723400 L 57.137100 130.769200 L 52.768200 129.890200 L 95.403300 129.890200 Z M 202.805300 130.851200 L 206.188200 131.845700 L 206.086700 132.840200 L 202.550800 133.834600 L 197.322500 134.829100 L 192.977800 135.823600 L 191.657100 136.818100 L 194.011100 137.812600 L 198.880100 138.807100 L 203.865200 139.801600 L 206.510400 140.796100 L 205.512400 141.790600 L 201.363000 142.785100 L 196.106500 143.779500 L 192.332500 144.774000 L 191.900600 145.768500 L 195.023400 146.763000 L 200.162400 147.757500 L 204.785800 148.752000 L 206.615800 149.746500 L 204.750600 150.741000 L 200.109400 151.735500 L 194.978600 152.730000 L 191.886100 153.724400 L 192.355500 154.718900 L 196.155600 155.713400 L 201.414000 156.707900 L 205.540200 157.702400 L 206.501200 158.696900 L 203.823600 159.691400 L 198.826600 160.685900 L 193.972000 161.680400 L 191.651700 162.674900 L 193.008700 163.669300 L 197.374600 164.663800 L 202.598300 165.658300 L 206.106200 166.652800 L 206.170200 167.647300 L 202.758600 168.641800 L 197.552300 169.636300 L 193.116300 170.630800 L 191.636100 171.625300 L 193.841000 172.619800 L 198.644600 173.614200 L 201.526600 174.154800 L 204.047200 174.695300 L 206.172000 175.391200 L 206.560700 176.087100 L 205.120300 176.783000 L 200.699200 177.777400 L 195.536100 178.771700 L 192.303700 179.716500 L 192.187900 180.661200 L 195.062000 181.556500 L 199.686400 182.451700 L 204.034500 183.297400 L 206.774200 184.143100 L 207.039500 184.939200 L 204.974500 185.735400 L 201.557700 186.482000 L 197.702600 187.228600 L 194.730700 187.925600 L 193.132000 188.622700 L 193.289800 189.270200 L 195.010400 189.917700 L 197.734100 190.515700 L 201.043700 191.113600 L 204.138000 191.662100 L 206.796300 192.210500 L 208.550000 192.709300 L 209.430600 193.208200 L 209.443400 193.657500 L 208.700700 194.106900 L 205.957900 194.906400 L 202.803300 195.606900 L 201.433500 195.920000 L 199.597800 196.430800 L 198.617200 196.888700 L 198.324400 197.346500 L 198.888800 197.733800 L 200.033500 198.121100 L 201.614000 198.437700 L 203.524300 198.754300 L 205.487000 199.000300 L 207.583700 199.246400 L 208.861800 199.363300 L 210.157800 199.480200 L 211.467500 199.597200 L 212.598200 199.667000 L 213.731200 199.736900 L 214.865600 199.806700 L 216.756000 199.852300 L 217.701100 199.875100 L 218.303200 199.865700 L 218.905400 199.856300 L 223.389600 200.749200 L 226.041200 201.642200 L 225.798100 202.535200 L 222.757800 203.428100 L 218.137900 204.321100 L 213.788900 205.214000 L 211.453000 206.107000 L 212.065700 207.000000 L 148.101800 207.000000 L 147.255400 206.048600 L 149.709600 205.097300 L 154.218000 204.146000 L 158.604500 203.194700 L 160.748600 202.243400 L 159.544000 201.292100 L 155.399800 200.340800 L 150.055200 199.389500 L 145.792400 198.438200 L 144.404300 197.486900 L 146.382900 196.535600 L 150.697100 195.584300 L 155.258700 194.633000 L 157.867800 193.681700 L 157.207900 192.730400 L 153.441600 191.779100 L 148.137000 190.827800 L 143.558300 189.876500 L 141.641300 188.925200 L 143.117400 187.973900 L 147.182600 187.022600 L 151.861700 186.071300 L 154.901400 185.120000 L 154.790500 184.168700 L 151.443100 183.217400 L 146.237800 182.266100 L 141.393900 181.314800 L 138.967200 180.363500 L 139.919600 179.412200 L 143.684300 178.460900 L 148.421800 177.509600 L 151.852600 176.558300 L 152.288400 175.607000 L 149.395900 174.655700 L 144.348000 173.704400 L 139.292800 172.753100 L 136.381500 171.801800 L 136.795400 170.850500 L 140.211400 169.899200 L 144.947700 168.947900 L 148.725400 167.996600 L 149.699100 167.045300 L 147.292400 166.094000 L 142.458100 165.142700 L 137.247700 164.191400 L 133.882800 163.240100 L 133.749800 162.288800 L 136.773000 161.337500 L 141.448500 160.386200 L 145.524700 159.434900 L 147.021400 158.483600 L 145.125300 157.532300 L 140.558300 156.581000 L 135.251000 155.629700 L 131.468700 154.678400 L 130.786800 153.727100 L 133.378000 152.775800 L 137.933600 151.824500 L 142.256600 150.873200 L 144.254900 149.921900 L 142.888300 148.970600 L 138.639200 148.019300 L 133.294200 147.068000 L 129.135800 146.116700 L 127.909500 145.165400 L 130.034300 144.214100 L 134.412700 143.262800 L 138.927600 142.311500 L 141.400300 141.360200 L 140.575800 140.408900 L 136.691300 139.457600 L 131.368500 138.506300 L 126.879600 137.555000 L 125.119900 136.603700 L 126.749600 135.652400 L 130.895300 134.701100 L 135.545200 133.749800 L 138.459300 132.798500 L 138.183300 131.847200 L 134.705800 130.895900 L 129.464500 129.944600 L 129.191800 129.890200 L 140.253900 129.890200 L 141.282000 130.086200 L 146.386500 131.035400 L 149.453900 131.984600 L 149.238500 132.933700 L 145.973800 133.882900 L 141.266900 134.832000 L 137.374800 135.781200 L 136.187300 136.730400 L 138.375800 137.679500 L 143.090600 138.628700 L 148.344100 139.577900 L 151.905700 140.527000 L 152.307300 141.476200 L 149.504300 142.425400 L 144.895900 143.374500 L 140.694600 144.323700 L 138.929600 145.272800 L 140.532400 146.222000 L 144.917300 147.171200 L 150.245100 148.120300 L 154.252000 149.069500 L 155.269100 150.018700 L 152.974600 150.967800 L 148.538500 151.917000 L 144.095800 152.866200 L 141.784300 153.815300 L 142.781900 154.764500 L 146.775400 155.713600 L 152.102100 156.662800 L 156.498500 157.612000 L 158.120300 158.561100 L 156.373300 159.510300 L 152.180900 160.459500 L 147.568200 161.408600 L 144.749600 162.357800 L 145.131500 163.307000 L 148.678100 164.256100 L 153.927900 165.205300 L 158.652300 166.154400 L 160.859000 167.103600 L 159.690400 168.052800 L 155.809200 169.001900 L 151.100500 169.951100 L 147.821800 170.900300 L 147.586800 171.849400 L 150.637600 172.798600 L 155.736200 173.747800 L 160.721900 174.696900 L 163.484900 175.646100 L 162.916800 176.595200 L 159.409900 177.544400 L 154.680500 178.493600 L 150.995700 179.442700 L 150.151900 180.391900 L 152.665600 181.341100 L 153.118400 181.341100 L 150.881700 180.341400 L 152.366300 179.341700 L 156.833500 178.342000 L 162.060300 177.342300 L 165.445800 176.342600 L 165.305200 175.342900 L 161.708500 174.343200 L 156.445500 173.343500 L 152.135200 172.343800 L 150.922500 171.344100 L 153.410900 170.344400 L 158.362000 169.344700 L 163.312200 168.345000 L 165.798000 167.345300 L 164.582600 166.345600 L 160.270600 165.345900 L 155.007900 164.346200 L 151.413300 163.346500 L 151.275500 162.346800 L 154.663100 161.347100 L 159.890400 160.347400 L 164.356100 159.347700 L 165.838000 158.348000 L 163.598700 157.348300 L 158.752500 156.348700 L 153.711000 155.349000 L 150.982900 154.349300 L 151.925900 153.349600 L 156.070600 152.349900 L 161.354600 151.350200 L 165.148400 150.350500 L 165.564200 149.350800 L 162.395000 148.351100 L 157.217900 147.351400 L 152.609200 146.351700 L 150.862200 145.352000 L 152.846300 144.352300 L 157.574100 143.352600 L 162.693100 142.352900 L 165.655800 141.353200 L 164.987900 140.353500 L 161.021900 139.353800 L 155.731200 138.354100 L 151.748700 137.354400 L 151.056100 136.354700 L 153.998100 135.355000 L 159.110700 134.355300 L 163.849700 133.355600 L 165.856900 132.355900 L 164.133500 131.356200 L 159.537100 130.356500 L 157.119900 129.890200 L 197.779900 129.890200 Z M 67.341500 1.892900 L 65.005500 2.785900 L 60.656600 3.678800 L 56.036700 4.571800 L 52.996300 5.464700 L 52.753300 6.357700 L 55.404900 7.250700 L 59.889100 8.143600 L 59.060500 8.153300 L 58.420900 8.192000 L 57.781100 8.230700 L 57.392100 8.308200 L 57.000500 8.385600 L 56.851400 8.501800 L 56.689600 8.618000 L 56.743600 8.772900 L 56.757800 8.927800 L 56.928200 9.121400 L 57.005300 9.315100 L 57.132600 9.547400 L 57.082900 9.779800 L 56.928500 10.050800 L 56.494500 10.321900 L 55.776500 10.622000 L 54.885100 10.849800 L 53.754300 11.105000 L 52.407900 11.360100 L 50.749200 11.651700 L 48.897500 11.943200 L 46.753000 12.271300 L 44.534900 12.599300 L 42.187500 12.963800 L 40.003400 13.328200 L 38.008900 13.729200 L 36.492100 14.130100 L 35.559800 14.567400 L 35.364300 15.004800 L 36.027400 15.478600 L 37.422900 15.952400 L 39.518600 16.453600 L 42.060800 16.972500 L 44.666900 17.517500 L 46.760300 18.062500 L 48.061100 18.642300 L 48.125600 19.222000 L 46.824700 19.836500 L 44.301100 20.451000 L 40.834800 21.100200 L 37.218300 21.749400 L 34.085200 22.433400 L 32.316700 23.117300 L 32.367300 23.836000 L 34.294800 24.554700 L 37.754800 25.308100 L 41.644500 26.061600 L 44.939900 26.849800 L 46.371000 27.637900 L 45.380500 28.460800 L 42.142300 29.283700 L 37.560900 30.141400 L 33.377400 30.999000 L 31.094900 31.891400 L 31.772000 32.783800 L 35.298400 33.711000 L 40.152600 34.638100 L 44.352200 35.599900 L 45.755500 36.561800 L 44.428100 37.315800 L 41.321600 38.069700 L 37.329300 38.823700 L 33.599800 39.577700 L 31.330300 40.276800 L 30.779200 40.976000 L 32.084700 41.675100 L 36.431200 42.672700 L 41.676100 43.670300 L 45.219700 44.668000 L 45.305700 45.665600 L 41.891400 46.663200 L 36.669100 47.660800 L 32.227300 48.658400 L 30.767400 49.656000 L 33.013000 50.653600 L 37.851100 51.651200 L 42.883800 52.648900 L 45.616600 53.646500 L 44.695100 54.644100 L 40.575900 55.641700 L 35.300800 56.639300 L 31.484200 57.636900 L 31.017900 58.634500 L 34.133000 59.632200 L 39.285400 60.629800 L 43.921500 61.627400 L 45.743400 62.625000 L 43.848100 63.622600 L 39.175000 64.620200 L 34.040200 65.617800 L 30.988900 66.615500 L 31.533300 67.613100 L 35.403600 68.610700 L 40.681600 69.608300 L 44.751200 70.605900 L 45.595400 71.603500 L 42.795800 72.601100 L 37.739900 73.598800 L 32.933700 74.596400 L 30.759300 75.594000 L 32.294500 76.591600 L 36.778200 77.589200 L 39.496600 78.109700 L 28.484200 78.109700 L 23.788300 77.217600 L 20.206100 76.221600 L 20.054700 75.225500 L 23.409000 74.229500 L 28.611300 73.233400 L 33.091100 72.237400 L 34.634600 71.241400 L 32.479100 70.245300 L 27.689800 69.249300 L 22.633200 68.253200 L 19.808100 67.257200 L 20.610500 66.261200 L 24.643900 65.265100 L 29.915100 64.269100 L 33.819500 63.273000 L 34.427700 62.277000 L 31.439100 61.281000 L 26.330600 60.284900 L 21.626500 59.288900 L 19.651300 58.292800 L 21.381100 57.296800 L 25.961000 56.300800 L 31.128000 55.304700 L 34.328800 54.308700 L 33.981700 53.312600 L 30.258300 52.316600 L 24.998400 51.320600 L 20.801200 50.324500 L 19.740800 49.328500 L 22.341100 48.332400 L 27.317200 47.336400 L 32.210200 46.340400 L 34.379200 45.559600 L 34.314800 44.778800 L 32.035500 43.998100 L 28.243800 43.217300 L 23.247400 42.260500 L 20.018800 41.303800 L 20.025200 40.347100 L 23.254000 39.390300 L 28.218500 38.433600 L 32.637900 37.476800 L 34.458600 36.511100 L 32.787500 35.545400 L 28.382000 34.579700 L 23.273000 33.614000 L 20.223500 32.825800 L 19.233800 32.037700 L 20.598400 31.249500 L 23.580300 30.517500 L 27.385400 29.785500 L 30.960300 29.053500 L 33.179300 28.377700 L 33.820300 27.701900 L 32.716600 27.026200 L 28.724900 26.075700 L 23.508200 25.124600 L 19.517500 24.218000 L 18.106900 23.311400 L 19.561300 22.464000 L 23.125800 21.616600 L 27.119300 20.828400 L 30.440100 20.040200 L 31.910200 19.311300 L 31.390400 18.582300 L 29.185000 17.912600 L 25.810500 17.242900 L 22.284000 16.632400 L 19.004500 16.021900 L 16.699000 15.470700 L 15.384900 14.919400 L 15.162400 14.412500 L 15.671500 13.991600 L 18.125900 13.193100 L 21.365700 12.452800 L 24.208500 11.770500 L 25.937600 11.146400 L 26.336500 10.580300 L 25.553500 10.072300 L 23.919700 9.622400 L 21.800700 9.230600 L 19.506500 8.896900 L 17.257800 8.621300 L 15.188800 8.403700 L 13.367000 8.244300 L 12.592900 8.193600 L 11.818700 8.142900 L 11.184300 8.121300 L 10.549900 8.099600 L 10.055200 8.107000 L 9.560600 8.114400 L 9.170800 8.143600 L 4.686600 7.250700 L 2.035000 6.357700 L 2.278000 5.464700 L 5.318400 4.571800 L 9.938300 3.678800 L 14.287200 2.785900 L 16.623100 1.892900 L 16.010400 1.000000 L 66.728800 1.000000 Z M 107.996100 1.949100 L 105.559700 2.898300 L 101.069800 3.847400 L 96.685500 4.796600 L 94.518500 5.745800 L 95.681300 6.694900 L 99.786400 7.644100 L 105.120900 8.593300 L 109.417800 9.542400 L 110.877500 10.491600 L 108.978900 11.440800 L 104.713600 12.389900 L 100.139700 13.339100 L 97.454100 14.288200 L 98.003200 15.237400 L 101.675800 16.186600 L 106.953900 17.135700 L 111.595800 18.084900 L 113.646700 19.034100 L 112.319000 19.983200 L 108.347200 20.932400 L 103.657000 21.881600 L 100.497800 22.830700 L 100.429400 23.779900 L 103.618800 24.729000 L 108.765600 25.678200 L 113.687300 26.627400 L 116.303100 27.576500 L 115.570800 28.525700 L 111.956700 29.474900 L 107.225400 30.424000 L 103.644800 31.373200 L 102.964400 32.322400 L 105.627200 33.271500 L 110.569800 34.220700 L 115.701800 35.169800 L 118.847600 36.119000 L 118.726300 37.068200 L 115.528900 38.017300 L 110.832200 38.966500 L 106.888600 39.915700 L 105.611100 40.864800 L 107.711700 41.814000 L 112.380300 42.763200 L 117.650000 43.712300 L 121.283100 44.661500 L 121.779100 45.610600 L 119.051000 46.559800 L 114.464200 47.509000 L 110.221500 48.458100 L 108.370700 49.407300 L 109.882000 50.356500 L 114.210900 51.305600 L 119.543500 52.254800 L 123.613700 53.204000 L 124.724200 54.153100 L 122.511000 55.102300 L 118.107600 56.051400 L 113.634200 57.000600 L 111.242500 57.949800 L 112.146400 58.898900 L 116.075000 59.848100 L 121.394800 60.797300 L 125.845500 61.746400 L 127.558300 62.695600 L 125.897900 63.644800 L 121.748800 64.593900 L 117.116500 65.543100 L 114.224400 66.492300 L 114.511800 67.441400 L 117.985600 68.390600 L 123.217100 69.339700 L 127.985800 70.288900 L 130.279700 71.238100 L 129.201600 72.187200 L 125.373800 73.136400 L 120.656900 74.085600 L 117.312500 75.034700 L 116.983700 75.983900 L 119.954900 76.933100 L 125.023900 77.882200 L 126.227000 78.109700 L 115.389100 78.109700 L 112.692400 77.623100 L 108.001800 76.671800 L 105.879000 75.720500 L 107.148500 74.769200 L 105.294000 75.727400 L 106.878800 76.685600 L 111.044600 77.643800 L 113.332200 78.109700 L 70.931700 78.109700 L 67.057500 77.334800 L 63.553300 76.380600 L 63.040300 75.426400 L 65.882100 74.472300 L 70.915400 73.518100 L 75.979400 72.563900 L 78.899600 71.609700 L 78.476900 70.655500 L 75.033800 69.701300 L 70.267300 68.747100 L 66.476700 67.793000 L 65.517200 66.838800 L 67.955500 65.884600 L 72.811900 64.930400 L 78.006300 63.976200 L 81.304700 63.022000 L 81.336000 62.067800 L 78.215900 61.113700 L 73.494600 60.159500 L 69.450700 59.205300 L 68.054700 58.251100 L 70.072000 57.296900 L 74.714500 56.342700 L 79.999400 55.388500 L 83.651600 54.434400 L 84.138800 53.480200 L 81.369500 52.526000 L 76.733900 51.571800 L 72.471900 50.617600 L 70.653100 49.663400 L 72.235400 48.709200 L 76.628600 47.755100 L 81.963400 46.800900 L 85.941900 45.846700 L 86.883500 44.892500 L 84.489700 43.938300 L 79.979900 42.984100 L 75.536700 42.029900 L 73.312200 41.075800 L 74.448900 40.121600 L 78.559500 39.167400 L 83.903200 38.213200 L 88.178100 37.259000 L 89.568700 36.304800 L 87.572100 35.350600 L 83.227100 34.396500 L 78.641100 33.442300 L 76.031300 32.488100 L 76.715500 31.533900 L 80.512300 30.579700 L 85.823900 29.625500 L 90.362800 28.671300 L 92.193400 27.717200 L 90.612700 26.763000 L 86.470000 25.808800 L 81.780800 24.854600 L 78.809200 23.900400 L 79.037700 22.946200 L 82.492200 21.992000 L 87.730800 21.037900 L 92.499100 20.083700 L 94.757300 19.129500 L 93.607500 18.175300 L 89.703100 17.221100 L 84.951100 16.266900 L 81.644200 15.312700 L 81.417400 14.358600 L 84.504000 13.404400 L 89.629300 12.450200 L 94.590700 11.496000 L 97.260300 10.541800 L 96.553100 9.587600 L 92.921100 8.633400 L 88.147200 7.679300 L 84.534200 6.725100 L 83.856300 5.770900 L 86.552100 4.816700 L 91.524800 3.862500 L 96.641400 2.908300 L 99.703100 1.954100 L 99.446600 1.000000 L 107.144900 1.000000 Z M 226.175800 1.892900 L 223.839900 2.785900 L 219.491000 3.678800 L 214.871100 4.571800 L 211.830700 5.464700 L 211.587700 6.357700 L 214.239300 7.250700 L 218.723500 8.143600 L 217.992900 8.130400 L 217.361300 8.132100 L 216.729800 8.133800 L 216.230300 8.155400 L 215.730900 8.177100 L 215.363500 8.218600 L 214.995900 8.260200 L 214.759200 8.321700 L 214.520800 8.383200 L 214.409800 8.464700 L 214.293200 8.546100 L 214.295200 8.647500 L 214.283500 8.748800 L 214.373900 8.870100 L 214.436300 8.991400 L 214.660600 9.273900 L 214.823100 9.596200 L 214.748600 9.958400 L 214.232600 10.360500 L 213.071400 10.802400 L 211.111900 11.284200 L 208.318900 11.805900 L 204.845900 12.367400 L 202.967600 12.663100 L 201.035300 12.975600 L 197.379600 13.671500 L 195.025900 14.462000 L 194.770000 14.904400 L 195.262700 15.346900 L 196.633200 15.836700 L 198.633000 16.326500 L 201.262100 16.863500 L 203.899000 17.400500 L 206.322500 17.984800 L 207.803300 18.569100 L 208.045500 19.200700 L 206.767500 19.832200 L 203.994800 20.511100 L 200.349600 21.189900 L 196.445400 21.916000 L 193.496000 22.642100 L 192.273200 23.415500 L 193.323300 24.188800 L 196.545300 25.009500 L 200.797400 25.830100 L 204.801400 26.698000 L 206.761500 27.565900 L 205.802800 28.481100 L 202.106100 29.396200 L 196.973800 30.358700 L 192.868200 31.321100 L 191.675500 31.994200 L 192.208500 32.667400 L 194.341400 33.340500 L 196.801600 33.863100 L 199.587000 34.385700 L 204.390600 35.380100 L 206.595500 36.374600 L 205.115300 37.369100 L 200.679300 38.363600 L 195.473000 39.358100 L 192.061400 40.352600 L 192.125400 41.347100 L 195.633300 42.341600 L 200.857000 43.336100 L 205.222900 44.330600 L 206.579900 45.325000 L 204.259600 46.319500 L 199.405000 47.314000 L 194.408000 48.308500 L 191.730400 49.303000 L 192.691400 50.297500 L 196.817600 51.292000 L 202.076000 52.286500 L 205.876100 53.281000 L 206.345500 54.275500 L 203.253000 55.269900 L 198.122200 56.264400 L 193.481000 57.258900 L 191.615800 58.253400 L 193.445800 59.247900 L 198.069200 60.242400 L 203.208200 61.236900 L 206.331000 62.231400 L 205.899100 63.225900 L 202.125100 64.220400 L 196.868600 65.214800 L 192.719200 66.209300 L 191.721200 67.203800 L 194.366400 68.198300 L 199.351500 69.192800 L 204.220500 70.187300 L 206.574500 71.181800 L 205.253800 72.176300 L 200.909100 73.170800 L 195.680800 74.165300 L 192.144900 75.159700 L 192.043400 76.154200 L 195.426300 77.148700 L 200.451700 78.109700 L 159.669000 78.109700 L 155.768200 77.372600 L 151.767400 76.372900 L 151.047300 75.373200 L 153.966100 74.373500 L 159.071400 73.373800 L 163.822800 72.374100 L 165.855700 71.374400 L 164.158600 70.374700 L 159.576000 69.375000 L 154.388300 68.375300 L 151.177000 67.375600 L 151.540100 66.375900 L 155.297000 65.376300 L 160.578100 64.376600 L 164.755400 63.376900 L 165.750200 62.377200 L 163.067500 61.377500 L 158.042300 60.377800 L 153.175100 59.378100 L 150.888100 58.378400 L 152.319200 57.378700 L 156.756400 56.379000 L 161.991600 55.379300 L 165.419600 54.379600 L 165.334600 53.379900 L 161.778900 52.380200 L 156.521900 51.380500 L 152.179500 50.380800 L 150.912800 49.381100 L 153.351900 48.381400 L 158.283200 47.381700 L 163.252700 46.382000 L 165.787500 45.382300 L 164.626200 44.382600 L 160.346700 43.382900 L 155.078600 42.383200 L 151.443400 41.383500 L 151.250000 40.383800 L 154.594800 39.384100 L 159.813200 38.384400 L 164.308400 37.384700 L 165.843600 36.385000 L 163.654800 35.385400 L 158.831200 34.385700 L 156.041500 33.863100 L 153.577000 33.340500 L 151.421100 32.667400 L 150.865100 31.994200 L 152.034800 31.321100 L 156.071400 30.358700 L 161.134700 29.396200 L 164.728000 28.481100 L 165.583200 27.565900 L 163.485000 26.698000 L 159.343100 25.830100 L 154.918600 25.009500 L 151.524000 24.188800 L 150.267000 23.415500 L 151.282900 22.642100 L 153.990800 21.916000 L 157.653600 21.189900 L 161.022800 20.511100 L 163.519500 19.832200 L 164.487100 19.200700 L 163.934400 18.569100 L 162.108700 17.984800 L 159.340300 17.400500 L 156.324000 16.863500 L 153.315400 16.326500 L 150.901600 15.836700 L 149.117300 15.346900 L 147.983600 14.462000 L 149.371500 13.671500 L 151.992400 12.975600 L 153.381400 12.663100 L 154.667800 12.367400 L 156.886600 11.805900 L 158.331700 11.284200 L 158.849500 10.802400 L 158.475300 10.360500 L 157.362100 9.958400 L 155.713700 9.596200 L 153.734500 9.273900 L 152.692200 9.132700 L 151.599800 8.991400 L 150.535400 8.870100 L 149.442800 8.748800 L 148.405500 8.647500 L 147.354600 8.546100 L 146.375300 8.464700 L 145.390500 8.383200 L 144.486200 8.321700 L 143.580100 8.260200 L 142.758200 8.218600 L 141.936000 8.177100 L 141.198900 8.155400 L 140.461900 8.133800 L 139.158300 8.130400 L 138.570400 8.143600 L 134.086200 7.250700 L 131.434600 6.357700 L 131.677700 5.464700 L 134.718000 4.571800 L 139.337900 3.678800 L 143.686900 2.785900 L 146.022800 1.892900 L 145.410100 1.000000 L 225.563100 1.000000 Z" transform="scale(1.000000,1.000000) translate(187.000000,-1.000000)" fill="url(#56490928-147171200)" opacity="1.000000"></path>
        <path d="M 72.358700 130.222100 L 77.139700 131.209500 L 79.376400 132.196900 L 77.981800 133.184300 L 73.633600 134.171700 L 68.445000 135.159100 L 64.937400 136.146400 L 64.815300 137.133800 L 68.138200 138.121200 L 73.291100 139.108600 L 77.770000 140.096000 L 79.398300 141.083400 L 77.384600 142.070800 L 72.707600 143.058200 L 67.640100 144.045600 L 64.644800 145.033000 L 65.177200 146.020300 L 68.978700 147.007700 L 74.201800 147.995100 L 78.308300 148.982500 L 79.302600 149.969900 L 76.701500 150.957300 L 71.769000 151.944700 L 66.902200 152.932100 L 64.466100 153.919500 L 65.644600 154.906900 L 69.865000 155.894200 L 75.076400 156.881600 L 78.746100 157.869000 L 79.090800 158.856400 L 75.943100 159.843800 L 70.832500 160.831200 L 66.242700 161.818600 L 64.404100 162.806000 L 66.210300 163.793400 L 70.783400 164.780800 L 75.901200 165.768100 L 79.076500 166.755500 L 78.766300 167.742900 L 75.121300 168.730300 L 69.912900 169.717700 L 65.672100 170.705100 L 64.459900 171.692500 L 66.865300 172.679900 L 71.719400 173.667300 L 76.663200 174.654600 L 79.294300 175.642000 L 78.334000 176.629400 L 74.249000 177.616800 L 69.024500 178.604200 L 65.199300 179.591600 L 64.410600 180.241400 L 65.238800 180.891200 L 68.238700 181.696000 L 72.454600 182.500900 L 76.516800 183.305800 L 78.976900 184.028700 L 79.606900 184.751500 L 78.257600 185.474400 L 74.171500 186.435700 L 69.257800 187.397000 L 66.208300 188.235300 L 65.473300 189.073600 L 67.034700 189.788900 L 70.200300 190.504100 L 73.599400 191.096400 L 77.028100 191.688700 L 79.507700 192.157900 L 81.411500 192.627200 L 82.511500 193.004200 L 83.088000 193.285500 L 83.444700 193.536100 L 83.560600 193.786700 L 83.633500 193.996200 L 83.556300 194.205800 L 83.577600 194.374400 L 83.519600 194.543000 L 83.656500 194.670500 L 83.758400 194.798100 L 84.110800 194.884600 L 84.450900 194.971200 L 85.068700 195.016800 L 85.683900 195.062300 L 86.587300 195.066900 L 87.490700 195.071400 L 88.611100 195.045200 L 103.554800 195.045200 L 104.236600 195.039500 L 104.918300 195.033900 L 105.921400 195.003500 L 106.923200 194.973100 L 107.923700 194.942700 L 109.043200 194.882000 L 110.156700 194.821200 L 111.263600 194.760500 L 112.471500 194.669400 L 113.661600 194.578300 L 114.832000 194.487100 L 116.066600 194.365700 L 117.259800 194.244200 L 118.408100 194.122700 L 119.556600 193.970800 L 120.625400 193.818900 L 121.610400 193.667100 L 122.502200 193.484800 L 123.265700 193.302600 L 123.899800 193.120400 L 124.331600 192.907800 L 124.594600 192.695200 L 124.698300 192.482500 L 124.513800 192.239600 L 124.164200 191.996600 L 123.679700 191.753600 L 122.906900 191.480200 L 122.060900 191.206900 L 121.198000 190.933500 L 119.731000 190.477900 L 118.625900 190.022400 L 117.947600 189.521200 L 118.156800 189.020100 L 119.368500 188.473300 L 121.664000 187.926600 L 124.992100 187.334400 L 128.853300 186.742100 L 132.863000 186.104300 L 136.152300 185.466400 L 138.175700 184.783100 L 138.431100 184.099700 L 136.839500 183.382100 L 133.833500 182.642200 L 130.296900 181.869400 L 127.629200 181.096600 L 126.764800 180.280000 L 128.426000 179.463300 L 132.417800 178.602800 L 137.480700 177.742300 L 140.712400 177.139400 L 143.086000 176.536500 L 144.217600 175.933600 L 143.871100 175.301500 L 142.123900 174.669400 L 139.392200 174.037200 L 136.117800 173.375900 L 133.232900 172.714500 L 131.441200 172.053100 L 131.198200 171.362500 L 132.765100 170.671900 L 135.821400 169.981300 L 139.821400 169.261500 L 143.702300 168.541700 L 146.501400 167.821800 L 147.510400 167.072800 L 146.388400 166.323700 L 143.513500 165.574600 L 139.584700 164.796300 L 135.974200 164.018000 L 133.846300 163.239700 L 133.930200 162.432200 L 136.395000 161.624700 L 140.482000 160.817100 L 145.017800 159.980400 L 148.353300 159.143600 L 149.360400 158.306800 L 147.607700 157.440800 L 143.746700 156.574800 L 139.280400 155.708800 L 135.839600 154.813600 L 135.024500 153.918300 L 137.203000 153.023100 L 141.673500 152.098600 L 146.557300 151.174200 L 149.796300 150.249700 L 150.261500 149.539900 L 148.824500 148.830100 L 154.371800 148.830100 L 155.923600 149.816000 L 153.846200 150.802000 L 149.146300 151.787900 L 144.101500 152.773800 L 141.156300 153.759700 L 141.738000 154.745700 L 145.564800 155.731600 L 150.782100 156.717500 L 154.861800 157.703500 L 155.826800 158.689400 L 153.209600 159.675300 L 148.278300 160.661300 L 143.422700 161.647200 L 140.995800 162.633100 L 142.173500 163.619000 L 146.385200 164.605000 L 151.589900 165.590900 L 155.265600 166.576800 L 155.630900 167.562800 L 152.508900 168.548700 L 147.412400 169.534600 L 142.811200 170.520600 L 140.935000 171.506500 L 142.692900 172.492400 L 147.233100 173.478300 L 152.355400 174.464300 L 155.577700 175.450200 L 155.338400 176.436100 L 151.753500 177.422100 L 146.560200 178.408000 L 142.275100 179.393900 L 140.974800 180.379800 L 143.289300 181.365800 L 148.097100 182.351700 L 153.068300 183.337600 L 155.794100 184.323600 L 154.953400 185.309500 L 150.953700 186.295400 L 145.733200 187.281400 L 141.821700 188.267300 L 141.114600 189.253200 L 143.954700 190.239100 L 148.965600 191.225100 L 153.719100 192.211000 L 155.911700 193.196900 L 154.480900 194.182900 L 150.120000 195.168800 L 144.942300 196.154700 L 141.456900 197.140700 L 141.352700 198.126600 L 144.680200 199.112500 L 149.827000 200.098400 L 154.298900 201.084400 L 155.929000 202.070300 L 153.927300 203.056200 L 149.263700 204.042200 L 144.198300 205.028100 L 141.185700 206.014000 L 141.685700 207.000000 L 2.436800 207.000000 L 1.824100 206.107000 L 4.160000 205.214000 L 8.508900 204.321100 L 13.128800 203.428100 L 16.169200 202.535200 L 16.412200 201.642200 L 13.760600 200.749200 L 9.276400 199.856300 L 9.981100 199.865700 L 10.685700 199.875100 L 12.092700 199.829500 L 12.796100 199.806700 L 13.185300 199.736900 L 13.575900 199.667000 L 13.968900 199.597200 L 14.057800 199.480200 L 14.160400 199.363300 L 14.280900 199.246400 L 14.143600 199.082300 L 14.060700 198.918300 L 14.042400 198.754300 L 13.855000 198.437700 L 13.997400 198.121100 L 14.388100 197.733800 L 15.359200 197.346500 L 16.999900 196.888700 L 19.328400 196.430800 L 22.371400 195.920000 L 24.284500 195.606900 L 28.473900 194.906400 L 32.182500 194.106900 L 33.809200 193.208200 L 33.342500 192.709300 L 32.002800 192.210500 L 29.723900 191.662100 L 27.009000 191.113600 L 24.044400 190.515700 L 21.665600 189.917700 L 20.255400 189.270200 L 20.408100 188.622700 L 22.282800 187.925600 L 25.530600 187.228600 L 29.627200 186.482000 L 33.285500 185.735400 L 35.557400 184.939200 L 35.499100 184.143100 L 32.931800 183.297400 L 28.756200 182.451700 L 24.269700 181.556500 L 21.533700 180.661200 L 21.752900 179.716500 L 25.088800 178.771700 L 29.025700 178.016600 L 32.898200 177.261600 L 35.592600 176.506600 L 36.335800 175.751500 L 35.037200 175.039100 L 32.147000 174.326700 L 28.412900 173.614200 L 23.609300 172.619800 L 21.404400 171.625300 L 22.884600 170.630800 L 27.320600 169.636300 L 32.526900 168.641800 L 35.938500 167.647300 L 35.874500 166.652800 L 32.366600 165.658300 L 27.142900 164.663800 L 22.777000 163.669300 L 21.420000 162.674900 L 23.740300 161.680400 L 28.594900 160.685900 L 33.591900 159.691400 L 36.269500 158.696900 L 35.308500 157.702400 L 31.182300 156.707900 L 25.923900 155.713400 L 22.123800 154.718900 L 21.654400 153.724400 L 24.746900 152.730000 L 29.877700 151.735500 L 34.518900 150.741000 L 36.384100 149.746500 L 34.554100 148.752000 L 29.930700 147.757500 L 24.791700 146.763000 L 21.668900 145.768500 L 22.100800 144.774000 L 25.874800 143.779500 L 31.131300 142.785100 L 35.280700 141.790600 L 36.278700 140.796100 L 33.633500 139.801600 L 28.648400 138.807100 L 23.779400 137.812600 L 21.425400 136.818100 L 22.746100 135.823600 L 27.090800 134.829100 L 32.319100 133.834600 L 35.855000 132.840200 L 35.956500 131.845700 L 32.573600 130.851200 L 27.548200 129.890200 L 70.677400 129.890200 Z M 115.077000 130.229100 L 119.892100 131.228200 L 122.069100 132.227300 L 120.525900 133.226400 L 116.029700 134.225500 L 110.815100 135.224500 L 107.474000 136.223600 L 107.667100 137.222700 L 111.298400 138.221800 L 116.563000 139.220900 L 120.844200 140.220000 L 122.014000 141.219000 L 119.491100 142.218100 L 114.529400 143.217200 L 109.595000 144.216300 L 107.140600 145.215400 L 108.386100 146.214500 L 112.712500 147.213600 L 117.969200 148.212600 L 121.543700 149.211700 L 121.659100 150.210800 L 118.258200 151.209900 L 113.031300 152.209000 L 108.576400 153.208100 L 107.107700 154.207100 L 109.355400 155.206200 L 114.202000 156.205300 L 119.238800 157.204400 L 121.962200 158.203500 L 121.018600 159.202600 L 116.876900 160.201600 L 111.329600 160.201600 L 114.463700 159.496500 L 116.211000 158.791300 L 115.699100 157.873300 L 112.292600 156.955300 L 107.395100 156.037300 L 103.131900 155.148900 L 101.028900 154.260500 L 101.880200 153.372100 L 105.143700 152.513300 L 109.563600 151.654500 L 113.453900 150.795700 L 115.283400 149.966500 L 114.544400 149.137300 L 111.445700 148.308200 L 107.157700 147.508600 L 102.965400 146.709000 L 100.174600 145.909500 L 99.590100 145.139500 L 101.223800 144.369600 L 104.533100 143.599600 L 108.299600 142.859300 L 111.548000 142.119000 L 113.321400 141.378600 L 113.098500 140.667900 L 111.013100 139.957200 L 107.547800 139.246500 L 103.678400 138.565300 L 100.171500 137.884200 L 97.802800 137.203100 L 97.045900 136.551600 L 97.908200 135.900100 L 100.150000 135.248600 L 103.055800 134.626800 L 106.103000 134.004900 L 108.637400 133.383000 L 110.270200 132.494600 L 108.953000 131.606200 L 105.234100 130.762200 L 100.343100 129.918200 L 100.191900 129.890200 L 113.360700 129.890200 Z M 157.536000 1.974900 L 154.745500 2.949900 L 149.899500 3.924800 L 145.362900 4.899800 L 143.353800 5.874800 L 144.891400 6.849700 L 149.312700 7.824700 L 154.586800 8.799700 L 158.278500 9.774600 L 158.703000 10.749600 L 155.725300 11.724600 L 150.823900 12.699500 L 146.390100 13.674500 L 144.593000 14.649500 L 146.351500 15.624400 L 150.897600 16.599400 L 156.141400 17.574300 L 159.661900 18.549300 L 159.855600 19.524300 L 156.696900 20.499200 L 151.750300 21.474200 L 147.428300 22.449200 L 145.847200 23.424100 L 147.823300 24.399100 L 152.485500 25.374100 L 157.688700 26.349000 L 161.031300 27.324000 L 160.994100 28.299000 L 157.661100 29.273900 L 152.679300 30.248900 L 148.478100 31.223900 L 147.116400 32.198800 L 149.306400 33.173800 L 154.075600 34.148700 L 159.228200 35.123700 L 162.386500 36.098700 L 162.118700 37.073600 L 158.618200 38.048600 L 153.611600 39.023600 L 149.539800 39.998500 L 148.400600 40.973500 L 150.800400 41.948500 L 155.667400 42.923400 L 160.759300 43.898400 L 163.727200 44.873400 L 163.229700 45.848300 L 159.569100 46.823300 L 154.547800 47.798300 L 150.614000 48.773200 L 149.699600 49.748200 L 152.304800 50.723100 L 157.260100 51.698100 L 162.281400 52.673100 L 165.053300 53.648000 L 164.327400 54.623000 L 160.514200 55.598000 L 155.488700 56.572900 L 151.700800 57.547900 L 151.013500 58.522900 L 153.819100 59.497800 L 158.853100 60.472800 L 163.794000 61.447800 L 166.364700 62.422700 L 165.412000 63.397700 L 163.510200 63.689300 L 161.372400 63.980800 L 159.051900 64.272400 L 156.610300 64.564000 L 154.114400 64.855600 L 151.633500 65.147200 L 154.844700 64.528100 L 157.862400 63.883500 L 159.909200 63.238800 L 160.484000 62.560000 L 159.298300 61.881100 L 156.399600 61.168100 L 152.524400 60.455100 L 148.428500 59.708000 L 145.398700 58.960800 L 144.201800 58.179500 L 145.320100 57.398100 L 148.463500 56.582600 L 152.500200 55.767100 L 156.064300 54.917400 L 157.599000 54.067800 L 156.301100 53.183900 L 152.444200 52.300100 L 148.955300 51.688000 L 145.503500 51.076000 L 142.699100 50.464000 L 140.857000 49.743500 L 140.974800 49.022900 L 142.933500 48.302400 L 146.128200 47.581800 L 150.036000 46.765400 L 152.881400 45.949000 L 153.570900 45.132600 L 151.736900 44.316200 L 147.861600 43.499800 L 142.775000 42.628700 L 138.468300 41.757600 L 136.411900 40.886500 L 137.217000 40.015400 L 140.402200 39.144300 L 144.036000 38.384200 L 147.243600 37.624100 L 148.964200 36.864100 L 148.882000 36.346400 L 147.771300 35.828700 L 145.002200 35.163600 L 141.244200 34.498400 L 137.242900 33.833300 L 133.923000 33.201500 L 131.691100 32.569700 L 130.909600 31.938000 L 131.545100 31.339600 L 133.343300 30.741300 L 135.890700 30.143000 L 138.461100 29.578000 L 140.712900 29.013100 L 142.202300 28.448200 L 142.591200 27.916600 L 141.898300 27.385100 L 140.157100 26.853600 L 137.707000 26.355500 L 134.752300 25.857400 L 131.611300 25.359300 L 127.502300 24.662200 L 124.539800 23.965200 L 123.260300 23.318200 L 123.580600 22.671300 L 125.056000 22.074400 L 127.314300 21.477600 L 129.550300 20.930900 L 131.540500 20.384200 L 132.719900 19.887600 L 133.115600 19.391000 L 132.611500 18.944500 L 131.338900 18.498100 L 129.529000 18.101700 L 127.247700 17.705300 L 124.876700 17.359100 L 122.345900 17.012800 L 120.034800 16.716700 L 117.762200 16.420600 L 115.772800 16.162000 L 114.094100 15.947000 L 112.549200 15.743200 L 111.122000 15.539300 L 109.838900 15.350200 L 108.679800 15.161100 L 107.643700 14.986900 L 106.723200 14.812600 L 105.893000 14.653200 L 105.161800 14.493700 L 104.483700 14.349000 L 103.884600 14.204400 L 103.302200 14.074600 L 102.779000 13.944700 L 102.240300 13.829700 L 101.743400 13.714600 L 101.204400 13.614400 L 100.693300 13.514200 L 100.119600 13.428800 L 99.563200 13.343300 L 98.906100 13.276400 L 98.258100 13.209500 L 97.618400 13.142600 L 96.975200 13.109800 L 96.333700 13.077000 L 95.693900 13.044200 L 95.055600 13.011400 L 94.418700 12.978600 L 92.825300 12.960400 L 92.028700 12.951200 L 91.232200 12.942100 L 90.435800 12.933000 L 88.906200 12.947400 L 88.141400 12.954700 L 87.423600 12.942000 L 86.648200 12.946000 L 85.872700 12.950000 L 85.021000 12.976200 L 84.170200 13.002400 L 83.246200 13.050800 L 82.325600 13.099200 L 81.338900 13.169800 L 80.360900 13.240400 L 79.329900 13.333200 L 78.317500 13.426100 L 77.273700 13.541100 L 76.264600 13.656100 L 75.257400 13.793400 L 74.308700 13.930600 L 73.408500 14.090100 L 72.598000 14.249500 L 71.319200 14.612900 L 70.678800 15.020600 L 70.864300 15.472800 L 71.982900 15.969400 L 73.985000 16.510400 L 76.591500 17.095800 L 79.261000 17.725700 L 80.388500 18.057300 L 81.671500 18.735500 L 81.082400 19.535100 L 78.214200 20.334700 L 74.883000 20.975500 L 71.265100 21.616400 L 68.080700 22.257300 L 65.804900 23.005900 L 65.573900 23.754600 L 67.410200 24.503300 L 71.353400 25.359800 L 75.746400 26.216300 L 78.922000 27.072900 L 79.605600 28.037200 L 76.873100 29.001500 L 71.954900 29.965900 L 67.829900 30.770000 L 65.083300 31.574100 L 64.601100 32.378200 L 66.528800 33.182300 L 70.678600 34.067300 L 75.318300 34.952300 L 78.616900 35.837300 L 79.271300 36.722300 L 76.794900 37.667900 L 72.127400 38.613500 L 67.156300 39.605300 L 64.512300 40.597200 L 65.491300 41.589000 L 69.613400 42.580800 L 74.858300 43.572600 L 78.655200 44.564400 L 79.143200 45.556200 L 76.083000 46.548000 L 70.974600 47.539800 L 66.321800 48.531600 L 64.405100 49.523400 L 66.163900 50.515200 L 70.736200 51.507000 L 75.881000 52.498800 L 79.076500 53.490700 L 78.756600 54.482500 L 75.078000 55.474300 L 69.843800 56.466100 L 65.619400 57.457900 L 64.475400 58.449700 L 66.972400 59.441500 L 71.886700 60.433300 L 76.809400 61.425100 L 79.327900 62.416900 L 78.207800 63.408700 L 73.997900 64.400500 L 68.761800 65.392300 L 65.065900 66.384200 L 64.721600 67.376000 L 67.897700 68.367800 L 73.037500 69.359600 L 77.621800 70.351400 L 79.403600 71.343200 L 77.509700 72.335000 L 72.868200 73.326800 L 67.754200 74.318600 L 64.674200 75.310400 L 65.137900 76.302200 L 68.917900 77.294000 L 73.230500 78.109700 L 30.220000 78.109700 L 25.194600 77.148700 L 21.811700 76.154200 L 21.913200 75.159700 L 25.449100 74.165300 L 30.677400 73.170800 L 35.022100 72.176300 L 36.342800 71.181800 L 33.988800 70.187300 L 29.119800 69.192800 L 24.134700 68.198300 L 21.489500 67.203800 L 22.487500 66.209300 L 26.636900 65.214800 L 31.893400 64.220400 L 35.667400 63.225900 L 36.099300 62.231400 L 32.976500 61.236900 L 27.837500 60.242400 L 23.214100 59.247900 L 21.384100 58.253400 L 23.249300 57.258900 L 27.890500 56.264400 L 33.021300 55.269900 L 36.113800 54.275500 L 35.644400 53.281000 L 31.844300 52.286500 L 26.585900 51.292000 L 22.459700 50.297500 L 21.498700 49.303000 L 24.176300 48.308500 L 29.173300 47.314000 L 34.027900 46.319500 L 36.348200 45.325000 L 34.991200 44.330600 L 30.625300 43.336100 L 25.401600 42.341600 L 21.893700 41.347100 L 21.829700 40.352600 L 25.241300 39.358100 L 30.447600 38.363600 L 34.883600 37.369100 L 36.363800 36.374600 L 34.158900 35.380100 L 29.355300 34.385700 L 26.565600 33.863100 L 24.101100 33.340500 L 21.945200 32.667400 L 21.389200 31.994200 L 22.558900 31.321100 L 26.595500 30.358700 L 31.658800 29.396200 L 35.252100 28.481100 L 36.107300 27.565900 L 34.009100 26.698000 L 29.867200 25.830100 L 25.442700 25.009500 L 22.048100 24.188800 L 20.791100 23.415500 L 21.807000 22.642100 L 24.514900 21.916000 L 28.177700 21.189900 L 31.546900 20.511100 L 34.043600 19.832200 L 35.011200 19.200700 L 34.458500 18.569100 L 32.632800 17.984800 L 29.864400 17.400500 L 26.848100 16.863500 L 23.839500 16.326500 L 21.425700 15.836700 L 19.641300 15.346900 L 18.507700 14.462000 L 19.895600 13.671500 L 22.516500 12.975600 L 23.905400 12.663100 L 25.191900 12.367400 L 27.410700 11.805900 L 28.855800 11.284200 L 29.373600 10.802400 L 28.999400 10.360500 L 27.886200 9.958400 L 26.237800 9.596200 L 24.258600 9.273900 L 23.216300 9.132700 L 22.123900 8.991400 L 21.059500 8.870100 L 19.966900 8.748800 L 18.929600 8.647500 L 17.878600 8.546100 L 16.899400 8.464700 L 15.914600 8.383200 L 15.010300 8.321700 L 14.104200 8.260200 L 13.282300 8.218600 L 12.460100 8.177100 L 11.723000 8.155400 L 10.986000 8.133800 L 9.682400 8.130400 L 9.094500 8.143600 L 4.610300 7.250700 L 1.958700 6.357700 L 2.201800 5.464700 L 5.242100 4.571800 L 9.862000 3.678800 L 14.211000 2.785900 L 16.546900 1.892900 L 15.934200 1.000000 L 156.881300 1.000000 Z M 109.081300 59.294200 L 113.810800 60.293200 L 118.924800 61.292300 L 121.881600 62.291400 L 121.211300 63.290500 L 117.247300 64.289600 L 111.959700 65.288700 L 107.976800 66.287700 L 107.278100 67.286800 L 110.211000 68.285900 L 115.317700 69.285000 L 120.059900 70.284100 L 122.080700 71.283200 L 120.375500 72.282200 L 115.792000 73.281300 L 110.608300 74.280400 L 107.400900 75.279500 L 107.764100 76.278600 L 111.517200 77.277700 L 115.912600 78.109700 L 107.185700 78.109700 L 103.562800 77.391400 L 100.458900 76.639000 L 99.018500 75.886500 L 99.710000 75.134000 L 102.501900 74.351900 L 106.625400 73.569800 L 110.856400 72.787700 L 113.993800 71.976000 L 114.902000 71.164300 L 113.330100 70.352600 L 109.681000 69.511200 L 105.340900 68.669900 L 101.907800 67.828600 L 100.638200 66.957700 L 102.231100 66.086700 L 106.124000 65.215800 L 111.010100 64.315200 L 114.865000 63.414700 L 116.160600 62.514100 L 114.285700 61.584000 L 110.018000 60.653800 L 105.243300 59.723600 L 102.557600 59.009300 L 101.539800 58.295100 L 107.087100 58.295100 Z" transform="scale(1.000000,1.000000) translate(14.000000,-1.000000)" fill="url(#105553173291136140604197176048)" opacity="1.000000"></path>
        <path d="M 1.000000 3.000000 L 430.000000 3.000000 L 430.000000 1.000000 L 1.000000 1.000000 L 1.000000 3.000000 Z" transform="scale(1.000000,1.000000) translate(-1.000000,126.890201)" fill="#176168" opacity="1.000000"></path>
        <path d="M 1.000000 3.000000 L 430.000000 3.000000 L 430.000000 1.000000 L 1.000000 1.000000 L 1.000000 3.000000 Z" transform="scale(1.000000,1.000000) translate(-1.000000,75.109799)" fill="#176168" opacity="1.000000"></path>
        <path d="M 19.747192 11.177828 L 19.742356 13.155528 L 18.480509 13.721330 L 17.168132 13.708619 L 15.855755 13.695908 L 14.543378 13.683198 L 13.120418 13.663447 L 11.697458 13.643697 L 10.274499 13.623946 L 8.759387 13.598329 L 7.244275 13.572713 L 5.729164 13.547096 L 5.585234 15.201364 L 5.578252 17.030960 L 5.570416 18.878901 L 5.561728 20.745190 L 5.552185 22.629826 L 5.541790 24.532809 L 6.074553 25.891145 L 7.694343 25.966072 L 9.314905 26.041964 L 10.936240 26.118819 L 12.558346 26.196636 L 14.181225 26.275418 L 15.804875 26.355161 L 17.429298 26.435868 L 19.054492 26.517537 L 19.083871 27.324253 L 18.158848 27.623924 L 16.492505 27.538149 L 14.900273 27.457843 L 13.309441 27.376250 L 11.720006 27.293368 L 10.131971 27.209199 L 8.545335 27.123741 L 6.960097 27.036997 L 5.474777 26.959600 L 5.028514 28.395310 L 4.976948 30.423454 L 4.930375 32.350640 L 4.882679 34.290556 L 4.833858 36.243201 L 4.792462 38.058476 L 4.750396 39.881335 L 5.934819 40.037489 L 7.697856 40.044237 L 9.460893 40.050982 L 11.235939 40.044237 L 13.010985 40.037489 L 14.323362 40.024778 L 15.635739 40.012067 L 16.948116 39.999357 L 18.371076 39.979607 L 18.794740 40.132497 L 18.762654 40.385299 L 17.467126 40.410915 L 16.163268 40.436533 L 14.851080 40.462150 L 13.446734 40.494218 L 12.031291 40.526289 L 10.604751 40.558358 L 9.167113 40.590429 L 7.718378 40.622499 L 6.258546 40.654569 L 4.720238 40.691333 L 4.121961 39.619210 L 4.089241 37.879003 L 4.056520 36.129760 L 4.023800 34.371480 L 3.991080 32.604164 L 3.958359 30.827808 L 3.925639 29.042418 L 3.892918 27.247991 L 3.860198 25.444526 L 3.827478 23.632026 L 3.794757 21.810488 L 3.766214 20.058238 L 3.737671 18.298435 L 3.709127 16.531080 L 3.680584 14.756173 L 3.652041 12.973713 L 3.791101 11.372426 L 5.247152 11.353074 L 6.707377 11.331779 L 8.171775 11.308542 L 9.557133 11.289930 L 10.945522 11.269907 L 12.336941 11.248474 L 13.629649 11.234387 L 14.924163 11.219460 L 16.220483 11.203692 L 17.986987 11.195333 L 19.754794 11.186366 L 19.754794 11.169290 L 17.984518 11.160323 L 16.212938 11.151964 L 14.907129 11.136196 L 13.599514 11.121269 L 12.290093 11.107183 L 10.870750 11.085749 L 9.448376 11.065726 L 8.022971 11.047114 L 6.502745 11.023877 L 4.978346 11.002582 L 3.449772 10.983230 L 3.250041 12.569555 L 3.221498 14.355357 L 3.192955 16.148712 L 3.164411 17.949619 L 3.135868 19.758078 L 3.107325 21.574090 L 3.074604 23.477088 L 3.041884 25.389124 L 3.009164 27.310196 L 2.976443 29.240304 L 2.943723 31.179450 L 2.911002 33.127632 L 2.878282 35.084851 L 2.845562 37.051107 L 2.812841 39.026400 L 2.780121 41.010729 L 3.419574 42.272488 L 5.196226 42.309251 L 6.912265 42.341321 L 8.639402 42.373391 L 10.377635 42.405461 L 12.126966 42.437531 L 13.887394 42.469601 L 15.658920 42.501671 L 17.331355 42.527287 L 19.012120 42.552904 L 20.701216 42.578521 L 20.781937 39.800021 L 20.393430 37.707383 L 19.005628 37.687633 L 17.715876 37.674922 L 16.426125 37.662211 L 15.136374 37.649501 L 13.373337 37.642754 L 11.610300 37.636008 L 9.835254 37.642754 L 8.060208 37.649501 L 6.848239 37.574497 L 6.806174 36.473726 L 6.764777 35.365371 L 6.715957 34.159975 L 6.668260 32.941849 L 6.621688 31.710994 L 6.570121 30.385752 L 6.945617 29.409456 L 8.436696 29.388330 L 10.018577 29.361462 L 11.599060 29.335882 L 13.178143 29.311590 L 14.755828 29.288586 L 16.332115 29.266870 L 17.907002 29.246442 L 19.546484 29.223167 L 20.425712 27.865184 L 20.331455 25.084137 L 18.655076 25.093778 L 16.977926 25.102456 L 15.300003 25.110170 L 13.621308 25.116922 L 11.941842 25.122711 L 10.261603 25.127536 L 8.580593 25.131399 L 6.898810 25.134298 L 6.289989 23.998472 L 6.228830 22.342449 L 6.168525 20.668079 L 6.109073 18.975362 L 6.050474 17.264298 L 5.992728 15.534887 L 6.074076 13.934624 L 7.543588 13.909007 L 9.013100 13.883390 L 10.482612 13.857773 L 11.870415 13.838023 L 13.258218 13.818272 L 14.646020 13.798522 L 15.935771 13.785811 L 17.225523 13.773101 L 18.515274 13.760390 L 19.767228 13.175355 L 19.762391 11.177828 M 27.170398 11.177828 L 27.153417 12.570789 L 27.105434 14.108018 L 27.030889 15.769502 L 26.934226 17.535180 L 26.813236 19.415943 L 26.692283 21.298395 L 26.553662 23.265646 L 26.425080 25.244639 L 26.627998 27.429664 L 27.438267 29.534737 L 28.784369 31.229300 L 30.309095 32.021050 L 31.435280 32.232033 L 31.382544 32.491815 L 31.077174 32.371347 L 30.510654 31.960438 L 29.946652 31.580896 L 29.029379 31.035532 L 28.069161 30.241744 L 27.183434 29.175127 L 26.447674 27.818520 L 25.975129 26.276619 L 25.721127 24.495889 L 25.552572 22.632551 L 25.395449 20.736007 L 25.249758 18.806259 L 25.130715 16.931726 L 25.021228 15.029444 L 24.939815 13.227952 L 24.881486 11.525184 L 25.947505 11.201177 L 27.177996 11.186366 L 27.177996 11.169290 L 25.929152 11.154479 L 24.777955 11.412440 L 24.719625 13.029202 L 24.638214 14.752572 L 24.528726 16.601016 L 24.409683 18.477210 L 24.263992 20.462454 L 24.106869 22.480903 L 23.938314 24.532555 L 23.922834 26.654175 L 24.274529 28.737160 L 25.024333 30.731058 L 26.100384 32.406512 L 27.402167 33.734832 L 28.884103 34.618585 L 30.735985 34.767538 L 32.585350 34.885123 L 33.440056 33.282938 L 33.387320 30.223191 L 31.647052 29.608312 L 30.111241 29.091266 L 29.108526 28.153776 L 28.337564 26.801153 L 27.948759 25.144725 L 27.802333 23.209648 L 27.663712 21.261907 L 27.542758 19.393632 L 27.421769 17.523669 L 27.325104 15.764484 L 27.250560 14.106438 L 27.202577 12.570535 L 27.185597 11.177828 M 45.269854 33.746628 L 44.130180 33.607633 L 43.003649 33.403627 L 41.806212 32.958327 L 40.680730 32.338352 L 39.543696 31.520477 L 38.523112 30.527818 L 37.618526 29.290274 L 36.873235 27.940312 L 36.280128 26.396932 L 35.896635 24.778508 L 35.804973 23.113704 L 35.936476 21.470652 L 36.304131 19.813741 L 36.898365 18.252873 L 37.700321 16.821797 L 38.708694 15.575893 L 39.876009 14.543341 L 41.156432 13.732921 L 42.518880 13.162468 L 43.944244 12.842816 L 45.377421 12.739644 L 47.497968 12.226462 L 48.859822 10.270375 L 48.378003 7.927238 L 47.172687 6.198049 L 45.566164 5.129843 L 43.927370 4.663305 L 42.205233 4.574069 L 40.626461 5.004971 L 39.206435 5.831151 L 38.282016 6.723644 L 38.182262 7.387385 L 38.090997 7.456822 L 37.991538 7.413487 L 38.393382 7.192273 L 38.952660 6.862788 L 39.842540 6.105386 L 40.826549 5.525358 L 41.955382 5.097618 L 43.154800 4.901487 L 44.421390 5.011005 L 45.666934 5.411016 L 46.818139 6.088023 L 47.813477 7.019369 L 48.603766 8.231355 L 49.029511 9.666293 L 49.178273 11.337231 L 49.263820 13.096050 L 49.346244 14.864094 L 49.425554 16.641365 L 49.501745 18.427862 L 49.574819 20.223585 L 49.636838 21.950434 L 49.696247 23.684992 L 49.753055 25.427262 L 49.807257 27.177244 L 49.849272 28.823594 L 49.889331 30.475733 L 49.919261 32.030860 L 49.947772 33.590190 L 48.803410 33.712572 L 47.555182 33.731427 L 46.413595 33.738329 L 45.269092 33.746585 L 45.269092 33.763661 L 46.419113 33.771918 L 47.572047 33.778819 L 48.855122 33.797673 L 50.050608 33.704942 L 50.079117 32.192186 L 50.109047 30.675227 L 50.149107 29.065254 L 50.191123 27.449493 L 50.245324 25.728334 L 50.302131 23.999463 L 50.361543 22.262882 L 50.423561 20.518589 L 50.496634 18.691151 L 50.572825 16.854487 L 50.652134 15.008597 L 50.734561 13.153480 L 50.820105 11.289137 L 50.805304 9.347897 L 50.363391 7.315661 L 49.397165 5.510342 L 48.123812 4.105615 L 46.618213 3.037874 L 44.945597 2.333775 L 43.152948 2.020853 L 41.469408 2.169732 L 39.830975 2.657778 L 38.370601 3.404626 L 37.027959 4.420877 L 35.907403 6.205619 L 35.323693 8.080394 L 37.059852 9.583868 L 38.745592 10.677737 L 40.082360 9.331211 L 40.908906 8.581840 L 41.700580 8.072672 L 42.551508 7.789846 L 43.533771 7.779813 L 44.540292 7.984105 L 45.471062 8.499387 L 46.121122 9.279331 L 46.429124 10.268548 L 46.120733 10.403955 L 45.234883 10.284748 L 43.596762 10.540659 L 41.908130 11.100094 L 40.319331 11.946364 L 38.877506 13.052442 L 37.610774 14.386597 L 36.562032 15.930907 L 35.775025 17.647626 L 35.242302 19.467091 L 34.975913 21.343595 L 34.957533 23.153252 L 35.181498 24.941423 L 35.712188 26.636873 L 36.451293 28.210212 L 37.311906 29.560049 L 38.320520 30.766910 L 39.415632 31.720304 L 40.613123 32.481827 L 41.772141 33.060205 L 42.992431 33.457267 L 44.125115 33.643295 L 45.268325 33.763618 M 46.610962 14.184621 L 45.525253 14.165567 L 44.324066 14.215139 L 43.033024 14.432745 L 41.696456 14.920029 L 40.359571 15.726689 L 39.168631 16.824421 L 38.124975 18.238262 L 37.344280 19.888342 L 36.871640 21.711364 L 36.732571 23.633460 L 36.938768 25.495434 L 37.472425 27.302758 L 38.271742 28.873381 L 39.262205 30.183713 L 40.358293 31.212748 L 41.494636 31.928245 L 42.726685 32.395096 L 44.103027 32.662727 L 45.683881 32.635591 L 47.602906 32.292797 L 48.471520 31.106084 L 48.383714 29.217039 L 48.283927 27.280536 L 48.184788 25.389091 L 48.086292 23.542701 L 47.988444 21.741367 L 47.903540 20.054917 L 47.819180 18.406123 L 47.752131 16.881545 L 47.700692 15.460264 L 47.667728 14.145619 L 46.610473 14.184639 L 46.611452 14.201680 L 47.634097 14.185695 L 47.601134 15.560093 L 47.549693 17.043457 L 47.482647 18.603194 L 47.398284 20.236349 L 47.313382 21.831849 L 47.215533 23.456200 L 47.117039 25.035495 L 47.017898 26.569734 L 46.918111 28.058917 L 46.830304 29.451822 L 46.336229 30.016003 L 45.510112 29.673209 L 44.515202 29.435361 L 43.558621 29.166595 L 42.750295 28.826433 L 41.980672 28.377624 L 41.194368 27.755817 L 40.425010 26.954248 L 39.728575 25.955184 L 39.153320 24.743181 L 38.794505 23.402001 L 38.658360 21.915826 L 38.794468 20.399765 L 39.212111 18.917691 L 39.902923 17.532961 L 40.809983 16.367584 L 41.918376 15.405324 L 43.117146 14.747947 L 44.344270 14.376193 L 45.527208 14.220752 L 46.610962 14.201698 M 62.051224 11.186337 L 63.021192 11.286686 L 63.975255 11.481623 L 64.994842 11.840393 L 65.960617 12.350814 L 66.898058 13.093496 L 67.707934 13.989889 L 68.380550 15.098148 L 68.814818 16.328740 L 68.973955 18.205645 L 68.893364 20.165422 L 68.812771 22.120427 L 68.720379 24.155754 L 68.627987 26.185371 L 68.415934 28.073103 L 67.711177 29.631879 L 66.643145 30.907436 L 65.282356 31.784645 L 63.853077 32.273903 L 62.384782 32.401498 L 60.906722 32.141275 L 59.948044 31.732515 L 59.074946 31.190955 L 58.355666 30.649735 L 57.837049 30.265785 L 57.357042 29.938474 L 57.290297 29.799412 L 57.365650 29.744351 L 57.524396 29.965392 L 57.842597 30.634113 L 58.227999 31.310574 L 59.456723 32.098948 L 60.770331 32.560366 L 62.254787 32.696658 L 63.662107 32.423529 L 65.097647 31.878850 L 66.432940 30.966139 L 66.682534 28.354900 L 66.938328 25.847871 L 66.788733 23.870110 L 64.739835 23.839966 L 62.726722 23.822141 L 60.931943 23.782283 L 59.296628 23.408219 L 57.779329 22.616528 L 56.459376 21.447916 L 55.587038 19.934972 L 55.154524 18.182571 L 55.295149 16.345338 L 55.731079 15.115073 L 56.403015 14.005893 L 57.210990 13.107158 L 58.146175 12.360871 L 59.110277 11.846497 L 60.128966 11.484683 L 61.082630 11.287775 L 62.052493 11.186336 L 62.051216 11.169320 L 61.078101 11.252004 L 60.117764 11.431084 L 59.075908 11.744609 L 58.076691 12.217808 L 57.076650 12.912471 L 56.185591 13.784750 L 55.394780 14.894571 L 54.831335 16.184628 L 54.508510 18.212350 L 54.838912 20.270260 L 55.709994 22.143314 L 57.120640 23.679269 L 58.815452 24.812694 L 60.702309 25.477344 L 62.548177 25.707917 L 64.175160 25.803279 L 65.766363 25.886323 L 65.690116 26.811470 L 65.252186 27.835221 L 64.808058 28.754762 L 64.006662 29.189652 L 63.107543 29.420099 L 62.220278 29.517251 L 61.396105 29.369298 L 60.667641 29.071040 L 60.047347 28.630221 L 59.134991 27.688821 L 58.188104 26.697104 L 56.895346 27.138806 L 55.410792 28.398221 L 54.552181 29.817165 L 55.486656 31.304071 L 56.495932 32.879801 L 57.661054 33.829741 L 58.986620 34.507488 L 60.371415 34.961183 L 62.374514 35.103507 L 64.367176 34.719850 L 66.214357 33.867851 L 67.897663 32.504426 L 69.158670 30.640898 L 69.903079 28.459284 L 69.967946 26.260351 L 69.875552 24.184691 L 69.783162 22.114741 L 69.702570 20.136718 L 69.621980 18.163468 L 69.279073 16.169351 L 68.716967 14.877796 L 67.925059 13.768347 L 67.031911 12.898369 L 66.029676 12.207484 L 65.028935 11.738386 L 63.986351 11.427993 L 63.025668 11.250906 L 62.052487 11.169319 M 66.077177 22.079245 L 66.801087 22.185098 L 66.950553 21.536835 L 66.940067 20.605115 L 66.946886 19.579723 L 66.975108 18.432787 L 67.011801 17.220076 L 66.992310 15.913572 L 66.310606 14.856716 L 65.463227 13.958438 L 64.461453 13.209599 L 63.388775 12.790686 L 62.258684 12.454264 L 61.164847 12.453506 L 60.113264 12.554900 L 59.165440 12.862817 L 58.336679 13.319611 L 57.605224 13.889095 L 57.388305 15.095925 L 57.174180 16.378007 L 56.966978 17.692790 L 56.770762 19.021520 L 56.671664 20.247629 L 57.611619 21.154600 L 58.627238 21.806802 L 59.705530 22.239393 L 60.789418 22.362516 L 61.808915 22.409424 L 62.792611 22.313632 L 63.708517 22.213795 L 64.567538 22.138158 L 65.360262 22.091661 L 66.077411 22.079251 L 66.077537 22.062175 L 65.361314 22.036456 L 64.572751 21.975276 L 63.723699 21.883778 L 62.825882 21.767100 L 61.883919 21.595328 L 60.997253 21.302400 L 60.131998 20.928402 L 59.406269 20.353628 L 58.824056 19.688019 L 58.391046 18.938628 L 58.610660 18.285251 L 58.871406 17.709739 L 59.093645 17.234951 L 59.283944 16.831709 L 59.441433 16.478311 L 59.860320 16.223689 L 60.308318 15.948376 L 60.840112 15.695024 L 61.476127 15.499727 L 62.174203 15.323794 L 62.950575 15.325053 L 63.741979 15.390505 L 64.534940 15.669755 L 65.281828 16.096526 L 65.965131 16.704316 L 66.229025 17.570457 L 66.412863 18.497631 L 66.588235 19.490581 L 66.733336 20.476213 L 66.853082 21.438370 L 66.775449 22.140624 L 66.077769 22.062181 M 80.175920 11.186342 L 81.372768 11.297822 L 82.544508 11.568719 L 83.772086 12.096993 L 84.882806 12.872751 L 85.875566 13.987425 L 86.573858 15.342061 L 86.906989 16.950380 L 86.871238 18.580037 L 86.378098 20.174588 L 85.342872 21.375053 L 83.987346 22.181008 L 82.534723 22.822315 L 80.923555 23.276547 L 79.269867 23.716985 L 77.782851 24.717252 L 76.412247 26.193696 L 75.005498 27.728790 L 75.578842 29.897588 L 77.186694 31.497785 L 79.054066 32.249729 L 80.985970 32.249790 L 82.828927 31.501400 L 84.167666 30.379489 L 84.692146 29.435798 L 84.959518 29.653834 L 84.594204 30.050322 L 83.745466 30.606006 L 82.909882 31.135393 L 82.056115 31.570598 L 81.050970 31.921113 L 80.061323 32.014657 L 79.072818 32.001969 L 78.103124 31.863247 L 77.196247 31.572812 L 76.318583 31.082065 L 75.610597 30.404684 L 75.069733 29.469341 L 74.795357 28.338469 L 74.767250 27.066627 L 75.054094 25.915564 L 75.768985 24.902844 L 76.925256 24.073304 L 78.249973 23.340331 L 79.716161 22.776131 L 81.322353 22.187845 L 83.008219 21.463007 L 84.636419 20.236695 L 85.517830 17.969277 L 85.067216 15.760155 L 83.642042 14.188004 L 81.868775 13.472163 L 80.069062 13.318505 L 78.378263 13.536380 L 76.743462 14.147922 L 75.396891 15.332681 L 74.551507 16.646477 L 73.497823 15.774414 L 73.373867 14.720195 L 74.265723 13.576044 L 75.371581 12.583107 L 76.545629 11.945668 L 77.788928 11.464216 L 78.982581 11.325363 L 80.177225 11.186327 L 80.175765 11.169329 L 78.977601 11.289715 L 77.778442 11.410282 L 76.510584 11.844958 L 75.296350 12.444559 L 74.118037 13.393965 L 73.114142 14.653791 L 73.252094 15.949128 L 74.594776 17.182066 L 75.818077 15.823427 L 77.066955 14.878205 L 78.522267 14.475358 L 80.058298 14.409223 L 81.611573 14.679136 L 82.951740 15.338469 L 83.834070 16.460225 L 84.021950 17.921452 L 83.487175 18.920359 L 82.258141 19.630883 L 80.743516 20.103309 L 79.097984 20.543785 L 77.465034 21.028618 L 75.845227 21.776601 L 74.231655 22.788551 L 72.827050 24.494054 L 72.157257 26.557016 L 72.066831 28.683654 L 72.452074 30.668307 L 73.373931 32.475525 L 74.623684 33.784107 L 76.073802 34.690506 L 77.461798 35.170710 L 78.866728 35.398507 L 80.274175 35.388467 L 81.677349 35.222812 L 83.183121 34.620618 L 84.504509 33.470677 L 85.799103 31.881690 L 87.080547 30.319000 L 86.702968 28.536580 L 84.573980 26.649615 L 82.892275 28.146178 L 81.689103 29.242736 L 80.543828 29.825635 L 79.256702 29.937895 L 78.005024 29.639698 L 77.058840 28.888202 L 76.652827 27.694956 L 77.524717 26.808052 L 78.432743 25.862495 L 79.648460 25.054843 L 81.247444 24.469670 L 82.875326 23.844646 L 84.376981 23.025514 L 85.799740 22.007672 L 86.907475 20.512032 L 87.350729 18.656293 L 87.292168 16.888577 L 86.843102 15.209554 L 86.046612 13.833566 L 84.970029 12.743301 L 83.813576 11.998775 L 82.557346 11.515590 L 81.377262 11.262038 L 80.177069 11.169314 M 92.296254 11.186366 L 93.403018 11.201607 L 94.590101 11.235523 L 94.540471 12.768620 L 94.472077 14.393339 L 94.386441 16.106809 L 94.300814 17.791528 L 94.202653 19.522053 L 94.104495 21.218176 L 94.006329 22.879893 L 93.908170 24.507209 L 93.822538 26.037233 L 93.736912 27.538507 L 93.668512 28.931772 L 93.615773 30.234201 L 93.581836 31.440852 L 93.569827 32.547636 L 93.476003 32.561129 L 93.325402 32.599260 L 93.298943 31.241548 L 93.255072 29.799713 L 93.190046 28.265027 L 93.119726 26.715967 L 93.030566 25.090008 L 92.935070 23.446849 L 92.833226 21.786487 L 92.725042 20.108923 L 92.626202 18.482515 L 92.522071 16.841732 L 92.435529 15.284170 L 92.366352 13.805942 L 92.320437 12.429525 L 92.303853 11.177826 L 92.288654 11.177826 L 92.272070 12.431693 L 92.226155 13.819401 L 92.156975 15.326920 L 92.070439 16.939791 L 91.966302 18.672594 L 91.867465 20.419772 L 91.759281 22.263544 L 91.657440 24.124518 L 91.561940 26.002692 L 91.472781 27.898069 L 91.402459 29.722595 L 91.337437 31.561497 L 91.293565 33.290094 L 91.273462 34.910985 L 93.583022 34.949117 L 95.719232 34.962610 L 95.707225 33.563829 L 95.673286 32.006355 L 95.620551 30.323038 L 95.552151 28.545871 L 95.466521 26.673557 L 95.380891 24.829995 L 95.282730 22.935977 L 95.184569 21.076361 L 95.086408 19.251148 L 94.988247 17.460339 L 94.902617 15.771471 L 94.816987 14.111356 L 94.748587 12.565642 L 94.692604 11.120133 L 93.419525 11.154049 L 92.296254 11.169290 M 91.733413 39.561290 L 91.846212 39.299664 L 91.993816 39.029077 L 92.164910 38.764156 L 92.348728 38.518409 L 92.533439 38.662120 L 92.712574 38.909833 L 92.903842 39.112822 L 93.079690 39.253658 L 93.152175 39.299156 L 93.208821 39.328637 L 93.245303 39.343195 L 93.257205 39.344202 L 93.241090 39.332956 L 93.198392 39.312886 L 93.132014 39.288564 L 93.044926 39.264275 L 92.821228 39.230376 L 92.554488 39.233063 L 92.275606 39.280469 L 92.019552 39.365804 L 91.912045 39.416730 L 91.825006 39.468534 L 91.763684 39.517089 L 91.733415 39.557995 L 91.718500 39.561277 L 91.715818 39.526299 L 91.684929 39.491140 L 91.630761 39.452516 L 91.558165 39.407424 L 91.376396 39.288412 L 91.175056 39.122524 L 90.985854 38.911915 L 90.836444 38.673672 L 90.784262 38.553363 L 90.750755 38.438613 L 90.738491 38.334829 L 90.749963 38.247699 L 90.789451 38.172822 L 90.856365 38.103666 L 90.945887 38.042720 L 91.053279 37.992199 L 91.303412 37.928689 L 91.572222 37.918384 L 91.828895 37.952801 L 91.992311 38.155098 L 91.929412 38.587996 L 91.868169 38.962191 L 91.800678 39.283279 L 91.718502 39.557982 M 107.736274 11.186310 L 109.190435 11.394436 L 110.709147 11.977052 L 112.178506 12.983298 L 112.862428 13.653896 L 113.487297 14.393510 L 114.221605 15.569057 L 114.828015 16.819684 L 115.294000 18.139305 L 115.568311 19.581503 L 115.708257 21.031771 L 115.728886 22.483575 L 115.530122 23.907477 L 115.207306 25.282200 L 114.762328 26.597140 L 114.207604 27.777475 L 113.515901 28.834182 L 112.737204 29.773948 L 112.143230 30.366854 L 111.490902 30.844407 L 110.195648 31.542158 L 108.925863 31.910854 L 107.736246 32.047466 L 106.560224 31.913329 L 105.294331 31.529209 L 103.994374 30.816354 L 103.349553 30.316861 L 102.737934 29.741058 L 101.960831 28.794514 L 101.273310 27.737923 L 100.693773 26.575247 L 100.260092 25.257522 L 99.947269 23.881423 L 99.747277 22.454991 L 99.762749 21.005396 L 99.912563 19.556027 L 100.198414 18.118029 L 100.636819 16.782607 L 101.247368 15.532663 L 101.985309 14.363464 L 102.591584 13.603088 L 103.289699 12.953748 L 104.762228 11.960645 L 106.283995 11.396169 L 107.738029 11.186309 L 107.736266 11.169347 L 106.273884 11.342179 L 104.707955 11.810441 L 103.123890 12.682749 L 102.336639 13.271392 L 101.631667 13.989529 L 100.719769 15.112576 L 99.921013 16.357805 L 99.291950 17.729923 L 98.792776 19.245995 L 98.433896 20.824149 L 98.220116 22.454776 L 98.252392 24.107406 L 98.423343 25.761826 L 98.750374 27.410480 L 99.300076 28.923521 L 100.013758 30.362148 L 100.879361 31.717931 L 101.617694 32.575990 L 102.428825 33.355946 L 104.179863 34.533164 L 105.997045 35.217777 L 107.737809 35.462749 L 109.464620 35.216845 L 111.282739 34.553487 L 113.044891 33.387355 L 113.878521 32.627791 L 114.597054 31.743592 L 115.469743 30.392461 L 116.188321 28.954848 L 116.704198 27.429210 L 117.043677 25.789715 L 117.225552 24.136280 L 117.256304 22.480087 L 117.036659 20.852726 L 116.688280 19.273289 L 116.201133 17.749677 L 115.541098 16.391870 L 114.747372 15.146452 L 113.840703 14.018219 L 113.116875 13.322474 L 112.345562 12.712664 L 110.764787 11.827217 L 109.200634 11.340449 L 107.738021 11.169346 M 107.738065 31.200567 L 108.838055 31.069210 L 110.013196 30.685089 L 111.197471 29.990679 L 112.314813 28.977208 L 113.316416 27.650525 L 114.083874 26.115965 L 114.631097 24.362200 L 114.907235 22.508597 L 114.902815 20.603422 L 114.598368 18.693868 L 113.998539 16.922753 L 113.088781 15.273794 L 111.932513 13.921983 L 110.581875 12.919738 L 109.140269 12.320735 L 107.737147 12.108598 L 106.334024 12.320735 L 104.892417 12.919738 L 103.541785 13.921983 L 102.385519 15.273794 L 101.475752 16.922752 L 100.875927 18.693867 L 100.571477 20.603422 L 100.567066 22.508595 L 100.843198 24.362200 L 101.390421 26.115967 L 102.157872 27.650524 L 103.159488 28.977207 L 104.276818 29.990680 L 105.461100 30.685089 L 106.636241 31.069211 L 107.736230 31.200567 L 107.738067 31.183616 L 106.647076 31.015377 L 105.520574 30.537025 L 104.452344 29.726546 L 103.524684 28.615585 L 102.789287 27.240150 L 102.305703 25.748422 L 102.075450 24.129929 L 102.094357 22.510722 L 102.350947 20.943065 L 102.835620 19.483639 L 103.486837 18.228922 L 104.310356 17.173018 L 105.193969 16.394374 L 106.091603 15.883983 L 106.949587 15.614084 L 107.737147 15.523888 L 108.524706 15.614084 L 109.382691 15.883983 L 110.280325 16.394374 L 111.163939 17.173018 L 111.987458 18.228923 L 112.638675 19.483640 L 113.123348 20.943065 L 113.379938 22.510724 L 113.398845 24.129930 L 113.168592 25.748421 L 112.685007 27.240151 L 111.949610 28.615586 L 111.021951 29.726546 L 109.953722 30.537024 L 108.827220 31.015376 L 107.736229 31.183615 M 141.032084 41.478985 L 140.476552 39.750809 L 139.920320 38.022081 L 139.363388 36.292799 L 138.754836 34.378710 L 138.144089 32.462893 L 137.531147 30.545349 L 137.035769 28.986425 L 136.538306 27.425869 L 136.038787 25.863685 L 135.537180 24.299867 L 135.003457 22.633524 L 134.466868 20.964933 L 133.927428 19.294097 L 133.385137 17.621015 L 132.805072 15.833246 L 132.224483 16.140349 L 131.643464 17.852603 L 131.060128 19.565678 L 130.474474 21.279573 L 129.886498 22.994289 L 129.296196 24.709825 L 128.703570 26.426180 L 128.081612 28.215413 L 127.456869 30.005626 L 126.829349 31.796821 L 126.199057 33.588998 L 125.565984 35.382156 L 124.930130 37.176294 L 124.291505 38.971416 L 123.650102 40.767519 L 122.681116 40.822396 L 122.391737 39.579808 L 122.416283 37.706912 L 122.440820 35.841059 L 122.465364 33.982253 L 122.489900 32.130490 L 122.514446 30.285774 L 122.538983 28.448101 L 122.560388 26.694202 L 122.581799 24.946192 L 122.603205 23.204069 L 122.624610 21.467833 L 122.646023 19.737487 L 122.667428 18.013027 L 122.688833 16.294455 L 122.710245 14.581772 L 122.727343 12.974381 L 122.908133 12.236014 L 123.193069 12.289838 L 123.233116 14.085344 L 123.275241 15.773851 L 123.318812 17.463207 L 123.363843 19.153415 L 123.410328 20.844472 L 123.472944 22.926441 L 123.537100 25.009310 L 123.602795 27.093080 L 123.666516 28.973690 L 123.730723 30.854586 L 123.795431 32.735774 L 123.862782 34.604830 L 124.289234 34.228003 L 124.935497 32.474629 L 125.647868 30.530093 L 126.358212 28.586062 L 127.066531 26.642535 L 127.637964 25.062573 L 128.207485 23.483088 L 128.775100 21.904079 L 129.340795 20.325546 L 129.937765 18.645634 L 130.532107 16.966379 L 131.123815 15.287780 L 131.712888 13.609837 L 132.321968 12.331483 L 132.932908 12.304044 L 133.585283 13.908741 L 134.235360 15.638868 L 134.881937 17.368124 L 135.525004 19.096510 L 136.164557 20.824025 L 136.800607 22.550670 L 137.461298 24.348835 L 138.117780 26.145958 L 138.770075 27.942040 L 139.418163 29.737079 L 140.062062 31.531078 L 140.701752 33.324033 L 141.142498 33.893738 L 141.170990 31.899351 L 141.196288 29.906827 L 141.218401 27.916169 L 141.237335 25.927378 L 141.253079 23.940451 L 141.265634 21.955389 L 141.275010 19.972193 L 141.281200 17.990862 L 141.284196 16.011396 L 141.286009 14.119203 L 141.285155 12.228569 L 142.048120 11.491854 L 143.081585 11.823069 L 143.102992 13.621594 L 143.124404 15.426007 L 143.145811 17.236308 L 143.167223 19.052496 L 143.184319 20.765942 L 143.201418 22.483808 L 143.218522 24.206094 L 143.235614 25.932798 L 143.248806 27.562693 L 143.261982 29.195794 L 143.275174 30.832107 L 143.288354 32.471627 L 143.299667 34.496806 L 143.310979 36.525383 L 143.322292 38.557360 L 143.326291 40.395672 L 142.652858 41.470092 L 141.024939 41.473372 L 141.024939 41.490448 L 142.666105 41.493727 L 143.353055 40.423610 L 143.357058 38.588922 L 143.368371 36.568864 L 143.379683 34.545408 L 143.390996 32.518552 L 143.404180 30.875384 L 143.417364 29.229006 L 143.430548 27.579420 L 143.443732 25.926624 L 143.460832 24.167588 L 143.477932 22.404131 L 143.495031 20.636255 L 143.512131 18.863959 L 143.533539 16.971047 L 143.554946 15.072248 L 143.576354 13.167560 L 143.597761 11.256985 L 141.974756 10.863802 L 140.697646 11.544041 L 140.696791 13.362504 L 140.698600 15.179408 L 140.701600 17.071482 L 140.707786 18.961691 L 140.717159 20.850034 L 140.729717 22.736512 L 140.745461 24.621125 L 140.764392 26.503873 L 140.786508 28.384755 L 140.811810 30.263772 L 140.840299 32.140924 L 140.479361 31.497517 L 139.935378 29.654526 L 139.395593 27.812576 L 138.860006 25.971668 L 138.328618 24.131802 L 137.801427 22.292977 L 137.278434 20.455194 L 136.780468 18.698448 L 136.286011 16.942572 L 135.795061 15.187567 L 135.307621 13.433433 L 134.823689 11.680169 L 134.186424 10.051612 L 131.496144 10.024173 L 130.346218 11.220737 L 129.873878 12.818188 L 129.404174 14.414983 L 128.937104 16.011122 L 128.472669 17.606605 L 128.038784 19.112667 L 127.606812 20.618253 L 127.176753 22.123362 L 126.748607 23.627995 L 126.223080 25.491982 L 125.699579 27.355465 L 125.178103 29.218443 L 124.705938 30.916423 L 124.439013 31.283344 L 124.506366 29.479402 L 124.571072 27.687590 L 124.635284 25.895488 L 124.699002 24.103098 L 124.764697 22.134837 L 124.828852 20.165675 L 124.891467 18.195613 L 124.937951 16.603983 L 124.982982 15.011504 L 125.026559 13.418174 L 125.068683 11.823995 L 125.108725 10.133761 L 122.351713 10.119642 L 120.877901 11.007978 L 120.895001 12.886327 L 120.916409 14.882742 L 120.937816 16.873269 L 120.959224 18.857907 L 120.980631 20.836658 L 121.002039 22.809521 L 121.023446 24.776497 L 121.044854 26.737584 L 121.066261 28.692784 L 121.090801 30.726652 L 121.115342 32.753476 L 121.139882 34.773254 L 121.164422 36.785987 L 121.188963 38.791676 L 121.213503 40.790319 L 122.061454 42.141424 L 124.524649 42.174403 L 125.067961 40.334984 L 125.614051 38.494584 L 126.162918 36.653203 L 126.714564 34.810840 L 127.268988 32.967496 L 127.826190 31.123170 L 128.386169 29.277863 L 128.948927 27.431575 L 129.491314 25.664949 L 130.036023 23.897503 L 130.583054 22.129237 L 131.132406 20.360151 L 131.684080 18.590244 L 132.238076 16.819518 L 132.790909 16.438456 L 133.341899 18.135293 L 133.862545 19.736978 L 134.386046 21.340909 L 134.912401 22.947085 L 135.441612 24.555508 L 135.941034 26.075695 L 136.442528 27.597513 L 136.946096 29.120962 L 137.451736 30.646041 L 138.074419 32.535281 L 138.699297 34.426248 L 139.326371 36.318942 L 139.889479 38.040353 L 140.453290 39.762317 L 141.017806 41.484835 M 155.324616 11.186337 L 156.294586 11.286686 L 157.248647 11.481623 L 158.268231 11.840393 L 159.234009 12.350814 L 160.171446 13.093496 L 160.981323 13.989889 L 161.653942 15.098148 L 162.088213 16.328740 L 162.247350 18.205645 L 162.166756 20.165422 L 162.086163 22.120427 L 161.993768 24.155754 L 161.901379 26.185371 L 161.689328 28.073103 L 160.984569 29.631879 L 159.916534 30.907436 L 158.555748 31.784645 L 157.126467 32.273903 L 155.658171 32.401498 L 154.180116 32.141275 L 153.221435 31.732515 L 152.348339 31.190955 L 151.629055 30.649735 L 151.110439 30.265785 L 150.630436 29.938474 L 150.563689 29.799412 L 150.639044 29.744351 L 150.797788 29.965392 L 151.115991 30.634113 L 151.501390 31.310574 L 152.730117 32.098948 L 154.043721 32.560366 L 155.528176 32.696658 L 156.935500 32.423529 L 158.371038 31.878850 L 159.706334 30.966139 L 159.955923 28.354900 L 160.211718 25.847871 L 160.062125 23.870110 L 158.013224 23.839966 L 156.000113 23.822141 L 154.205337 23.782283 L 152.570020 23.408219 L 151.052718 22.616528 L 149.732768 21.447916 L 148.860430 19.934972 L 148.427918 18.182571 L 148.568543 16.345338 L 149.004470 15.115073 L 149.676404 14.005893 L 150.484379 13.107158 L 151.419566 12.360871 L 152.383666 11.846497 L 153.402358 11.484683 L 154.356025 11.287775 L 155.325885 11.186336 L 155.324608 11.169320 L 154.351493 11.252004 L 153.391155 11.431084 L 152.349300 11.744609 L 151.350082 12.217808 L 150.350042 12.912471 L 149.458983 13.784750 L 148.668172 14.894571 L 148.104727 16.184628 L 147.781901 18.212350 L 148.112304 20.270260 L 148.983386 22.143314 L 150.394032 23.679269 L 152.088844 24.812694 L 153.975700 25.477344 L 155.821569 25.707917 L 157.448552 25.803279 L 159.039755 25.886323 L 158.963508 26.811470 L 158.525578 27.835221 L 158.081450 28.754762 L 157.280054 29.189652 L 156.380935 29.420099 L 155.493670 29.517251 L 154.669496 29.369298 L 153.941033 29.071040 L 153.320739 28.630221 L 152.408382 27.688821 L 151.461495 26.697104 L 150.168738 27.138806 L 148.684184 28.398221 L 147.825573 29.817165 L 148.760047 31.304071 L 149.769324 32.879801 L 150.934446 33.829741 L 152.260012 34.507488 L 153.644806 34.961183 L 155.647906 35.103507 L 157.640568 34.719850 L 159.487749 33.867851 L 161.171055 32.504426 L 162.432061 30.640898 L 163.176471 28.459284 L 163.241338 26.260351 L 163.148944 24.184691 L 163.056554 22.114741 L 162.975961 20.136718 L 162.895372 18.163468 L 162.552465 16.169351 L 161.990358 14.877796 L 161.198451 13.768347 L 160.305303 12.898369 L 159.303068 12.207484 L 158.302327 11.738386 L 157.259742 11.427993 L 156.299060 11.250906 L 155.325878 11.169319 M 159.350569 22.079245 L 160.074479 22.185098 L 160.223945 21.536835 L 160.213456 20.605115 L 160.220281 19.579723 L 160.248497 18.432787 L 160.285193 17.220076 L 160.265702 15.913572 L 159.584001 14.856716 L 158.736617 13.958438 L 157.734845 13.209599 L 156.662165 12.790686 L 155.532078 12.454264 L 154.438240 12.453506 L 153.386655 12.554900 L 152.438831 12.862817 L 151.610071 13.319611 L 150.878616 13.889095 L 150.661696 15.095925 L 150.447574 16.378007 L 150.240371 17.692790 L 150.044151 19.021520 L 149.945056 20.247629 L 150.885010 21.154600 L 151.900632 21.806802 L 152.978922 22.239393 L 154.062810 22.362516 L 155.082304 22.409424 L 156.066006 22.313632 L 156.981906 22.213795 L 157.840930 22.138158 L 158.633654 22.091661 L 159.350803 22.079251 L 159.350929 22.062175 L 158.634706 22.036456 L 157.846143 21.975276 L 156.997090 21.883778 L 156.099274 21.767100 L 155.157311 21.595328 L 154.270645 21.302400 L 153.405390 20.928402 L 152.679661 20.353628 L 152.097448 19.688019 L 151.664438 18.938628 L 151.884052 18.285251 L 152.144798 17.709739 L 152.367037 17.234951 L 152.557336 16.831709 L 152.714824 16.478311 L 153.133712 16.223689 L 153.581710 15.948376 L 154.113504 15.695024 L 154.749519 15.499727 L 155.447594 15.323794 L 156.223966 15.325053 L 157.015371 15.390505 L 157.808332 15.669755 L 158.555220 16.096526 L 159.238523 16.704316 L 159.502417 17.570457 L 159.686255 18.497631 L 159.861627 19.490581 L 160.006728 20.476213 L 160.126474 21.438370 L 160.048841 22.140624 L 159.351160 22.062181 M 181.325787 11.177828 L 181.317303 12.486386 L 181.308809 13.794857 L 181.284817 15.238026 L 181.260840 16.680929 L 181.223576 18.238910 L 181.186327 19.796442 L 181.138027 21.449479 L 181.089741 23.101898 L 181.029289 24.859040 L 180.842612 26.558971 L 180.395616 28.157121 L 179.686778 29.612321 L 178.678621 30.897732 L 177.464484 31.892895 L 176.106345 32.548314 L 174.671722 32.825860 L 173.236672 32.715450 L 171.879012 32.232438 L 170.662972 31.413905 L 169.656580 30.296408 L 168.911932 29.032480 L 168.407429 27.637151 L 168.156038 26.149446 L 168.110211 24.570048 L 168.111759 23.047483 L 168.109956 21.534687 L 168.097853 20.116690 L 168.083320 18.705786 L 168.059029 17.401132 L 168.033275 16.100702 L 167.998526 14.917293 L 167.963302 13.735238 L 167.915548 12.541232 L 167.999273 12.371822 L 168.137365 12.352756 L 168.118603 13.604995 L 168.099661 15.019485 L 168.083169 16.440186 L 168.075650 17.951479 L 168.071502 19.471328 L 168.079017 21.095385 L 168.091010 22.730838 L 168.107490 24.377688 L 168.239594 26.209128 L 168.848528 28.238561 L 169.940387 30.005426 L 171.493846 31.265414 L 173.318200 31.879599 L 175.204740 31.758475 L 176.885213 30.859067 L 178.185725 29.434328 L 179.038001 27.669007 L 179.351303 25.816000 L 179.341380 24.038764 L 179.271026 22.298769 L 179.205148 20.547378 L 179.154715 18.894365 L 179.107642 17.232798 L 179.072996 15.664808 L 179.040796 14.090608 L 179.020907 12.635279 L 179.021165 11.197423 L 180.174303 11.193281 L 181.333388 11.186366 L 181.333388 11.169290 L 180.163011 11.162375 L 178.986678 11.158233 L 178.949308 12.565469 L 178.929423 13.997504 L 178.897218 15.542171 L 178.862572 17.093049 L 178.815505 18.743269 L 178.765077 20.402043 L 178.699194 22.174651 L 178.628834 23.958654 L 178.508576 25.699712 L 178.133506 27.269838 L 177.323189 28.655589 L 176.215215 29.681094 L 174.907691 30.234841 L 173.540127 30.190741 L 172.293028 29.632700 L 171.277334 28.644713 L 170.607847 27.329316 L 170.294478 25.852635 L 170.271395 24.168102 L 170.287868 22.290951 L 170.299864 20.402404 L 170.307384 18.502461 L 170.303229 16.710521 L 170.295715 14.910026 L 170.279215 13.211858 L 170.260276 11.507479 L 170.125329 10.002900 L 167.693570 9.983834 L 165.766784 10.172778 L 165.719026 11.596049 L 165.683806 13.031273 L 165.649053 14.465141 L 165.623302 16.052076 L 165.599005 17.634786 L 165.584470 19.342751 L 165.572375 21.043623 L 165.570568 22.842615 L 165.572120 24.631839 L 165.743120 26.564793 L 166.218664 28.492101 L 167.019573 30.288759 L 168.116739 31.866308 L 169.543502 33.197479 L 171.206716 34.107361 L 172.999571 34.558962 L 174.819344 34.524207 L 176.563458 34.012913 L 178.136754 33.070321 L 179.468462 31.772311 L 180.507765 30.196662 L 181.189501 28.498155 L 181.560768 26.701132 L 181.637484 24.891212 L 181.577038 23.124355 L 181.528746 21.464986 L 181.480441 19.806234 L 181.443192 18.244898 L 181.405933 16.684011 L 181.381951 15.239549 L 181.357964 13.795353 L 181.349476 12.486548 L 181.340986 11.177828 M 187.381173 11.186366 L 188.487937 11.201607 L 189.675020 11.235523 L 189.625388 12.768620 L 189.556999 14.393339 L 189.471358 16.106809 L 189.385734 17.791528 L 189.287573 19.522053 L 189.189417 21.218176 L 189.091248 22.879893 L 188.993089 24.507209 L 188.907455 26.037233 L 188.821833 27.538507 L 188.753433 28.931772 L 188.700691 30.234201 L 188.666755 31.440852 L 188.654746 32.547636 L 188.560923 32.561129 L 188.410320 32.599260 L 188.383864 31.241548 L 188.339994 29.799713 L 188.274963 28.265027 L 188.204645 26.715967 L 188.115484 25.090008 L 188.019992 23.446849 L 187.918145 21.786487 L 187.809962 20.108923 L 187.711119 18.482515 L 187.606993 16.841732 L 187.520446 15.284170 L 187.451272 13.805942 L 187.405356 12.429525 L 187.388772 11.177826 L 187.373574 11.177826 L 187.356990 12.431693 L 187.311075 13.819401 L 187.241895 15.326920 L 187.155359 16.939791 L 187.051221 18.672594 L 186.952384 20.419772 L 186.844201 22.263544 L 186.742359 24.124518 L 186.646859 26.002692 L 186.557701 27.898069 L 186.487379 29.722595 L 186.422357 31.561497 L 186.378485 33.290094 L 186.358381 34.910985 L 188.667941 34.949117 L 190.804152 34.962610 L 190.792144 33.563829 L 190.758206 32.006355 L 190.705470 30.323038 L 190.637071 28.545871 L 190.551441 26.673557 L 190.465811 24.829995 L 190.367650 22.935977 L 190.269489 21.076361 L 190.171327 19.251148 L 190.073166 17.460339 L 189.987536 15.771471 L 189.901906 14.111356 L 189.833507 12.565642 L 189.777524 11.120133 L 188.504445 11.154049 L 187.381173 11.169290 M 186.818333 39.561290 L 186.931132 39.299664 L 187.078735 39.029077 L 187.249827 38.764156 L 187.433650 38.518409 L 187.833446 38.823964 L 188.169749 39.201814 L 188.396377 39.456448 L 188.511506 39.585798 L 188.536085 39.613414 L 188.546949 39.625626 L 188.551906 39.631194 L 188.559425 39.639642 L 188.579054 39.661695 L 188.618230 39.705715 L 188.682284 39.777677 L 188.775839 39.882790 L 188.791079 39.976386 L 188.621066 40.003039 L 188.276956 39.970046 L 187.795259 39.873211 L 187.529138 39.804654 L 187.265905 39.726646 L 187.022841 39.643022 L 186.818335 39.557995 L 186.803420 39.561278 L 186.980076 39.655520 L 187.157506 39.769665 L 187.348477 39.905282 L 187.564671 40.063567 L 188.109388 40.449481 L 188.836655 40.920382 L 189.738008 41.450926 L 190.513611 41.835275 L 190.305584 41.601544 L 190.085618 41.354401 L 189.861865 41.103003 L 189.643157 40.857272 L 189.412338 40.597935 L 189.154361 40.308084 L 188.881217 40.001192 L 188.604216 39.689966 L 188.077528 39.098204 L 187.634241 38.600148 L 187.300619 38.225305 L 187.077231 38.155098 L 187.014332 38.587996 L 186.953088 38.962191 L 186.885597 39.283279 L 186.803422 39.557982 M 201.177642 11.186337 L 202.147613 11.286686 L 203.101673 11.481623 L 204.121255 11.840393 L 205.087035 12.350814 L 206.024471 13.093496 L 206.834347 13.989889 L 207.506968 15.098148 L 207.941240 16.328740 L 208.100377 18.205645 L 208.019782 20.165422 L 207.939189 22.120427 L 207.846793 24.155754 L 207.754405 26.185371 L 207.542355 28.073103 L 206.837595 29.631879 L 205.769558 30.907436 L 204.408774 31.784645 L 202.979492 32.273903 L 201.511196 32.401498 L 200.033143 32.141275 L 199.074461 31.732515 L 198.201365 31.190955 L 197.482080 30.649735 L 196.963465 30.265785 L 196.483463 29.938474 L 196.416715 29.799412 L 196.492072 29.744351 L 196.650814 29.965392 L 196.969019 30.634113 L 197.354416 31.310574 L 198.583144 32.098948 L 199.896746 32.560366 L 201.381201 32.696658 L 202.788526 32.423529 L 204.224063 31.878850 L 205.559361 30.966139 L 205.808948 28.354900 L 206.064744 25.847871 L 205.915151 23.870110 L 203.866249 23.839966 L 201.853139 23.822141 L 200.058365 23.782283 L 198.423046 23.408219 L 196.905743 22.616528 L 195.585794 21.447916 L 194.713456 19.934972 L 194.280946 18.182571 L 194.421571 16.345338 L 194.857496 15.115073 L 195.529429 14.005893 L 196.337403 13.107158 L 197.272592 12.360871 L 198.236690 11.846497 L 199.255384 11.484683 L 200.209052 11.287775 L 201.178911 11.186336 L 201.177634 11.169320 L 200.204519 11.252004 L 199.244181 11.431084 L 198.202326 11.744609 L 197.203108 12.217808 L 196.203068 12.912471 L 195.312009 13.784750 L 194.521198 14.894571 L 193.957753 16.184628 L 193.634927 18.212350 L 193.965330 20.270260 L 194.836412 22.143314 L 196.247058 23.679269 L 197.941870 24.812694 L 199.828726 25.477344 L 201.674595 25.707917 L 203.301578 25.803279 L 204.892781 25.886323 L 204.816534 26.811470 L 204.378604 27.835221 L 203.934476 28.754762 L 203.133080 29.189652 L 202.233961 29.420099 L 201.346696 29.517251 L 200.522522 29.369298 L 199.794058 29.071040 L 199.173765 28.630221 L 198.261408 27.688821 L 197.314521 26.697104 L 196.021764 27.138806 L 194.537210 28.398221 L 193.678599 29.817165 L 194.613073 31.304071 L 195.622350 32.879801 L 196.787472 33.829741 L 198.113038 34.507488 L 199.497832 34.961183 L 201.500932 35.103507 L 203.493594 34.719850 L 205.340775 33.867851 L 207.024081 32.504426 L 208.285087 30.640898 L 209.029497 28.459284 L 209.094364 26.260351 L 209.001970 24.184691 L 208.909580 22.114741 L 208.828987 20.136718 L 208.748398 18.163468 L 208.405491 16.169351 L 207.843384 14.877796 L 207.051477 13.768347 L 206.158329 12.898369 L 205.156094 12.207484 L 204.155353 11.738386 L 203.112768 11.427993 L 202.152086 11.250906 L 201.178904 11.169319 M 205.203595 22.079245 L 205.927505 22.185098 L 206.076971 21.536835 L 206.066481 20.605115 L 206.073308 19.579723 L 206.101521 18.432787 L 206.138219 17.220076 L 206.118728 15.913572 L 205.437028 14.856716 L 204.589643 13.958438 L 203.587871 13.209599 L 202.515190 12.790686 L 201.385105 12.454264 L 200.291267 12.453506 L 199.239680 12.554900 L 198.291857 12.862817 L 197.463097 13.319611 L 196.731642 13.889095 L 196.514721 15.095925 L 196.300600 16.378007 L 196.093398 17.692790 L 195.897176 19.021520 L 195.798082 20.247629 L 196.738035 21.154600 L 197.753660 21.806802 L 198.831948 22.239393 L 199.915836 22.362516 L 200.935328 22.409424 L 201.919033 22.313632 L 202.834930 22.213795 L 203.693956 22.138158 L 204.486680 22.091661 L 205.203829 22.079251 L 205.203955 22.062175 L 204.487732 22.036456 L 203.699169 21.975276 L 202.850116 21.883778 L 201.952300 21.767100 L 201.010337 21.595328 L 200.123671 21.302400 L 199.258416 20.928402 L 198.532687 20.353628 L 197.950474 19.688019 L 197.517464 18.938628 L 197.737078 18.285251 L 197.997824 17.709739 L 198.220063 17.234951 L 198.410362 16.831709 L 198.567850 16.478311 L 198.986738 16.223689 L 199.434736 15.948376 L 199.966530 15.695024 L 200.602545 15.499727 L 201.300620 15.323794 L 202.076992 15.325053 L 202.868397 15.390505 L 203.661358 15.669755 L 204.408246 16.096526 L 205.091549 16.704316 L 205.355443 17.570457 L 205.539281 18.497631 L 205.714653 19.490581 L 205.859754 20.476213 L 205.979500 21.438370 L 205.901867 22.140624 L 205.204186 22.062181" transform="scale(1.000000,1.000000) translate(108.562287,80.533525)" fill="#27a2ad" opacity="1.000000"></path>
    </g>
</svg>