<?xml version="1.0" encoding="UTF-8" standalone="yes"?>
<!DOCTYPE svg PUBLIC "-//W3C//DTD SVG 1.1//EN" "http://www.w3.org/Graphics/SVG/1.1/DTD/svg11.dtd">

<svg width="429" height="206" viewBox="0 0 429 206" xmlns="http://www.w3.org/2000/svg" xmlns:xlink="http://www.w3.org/1999/xlink" version="1.1" baseProfile="full">
    <defs>
        <radialGradient id="54722720145185152" cx="114" cy="104" r="106" fx="114" fy="104" gradientUnits="userSpaceOnUse">
            <stop offset="0%" style="stop-color:#27a2ad;stop-opacity:1.000000"></stop>
            <stop offset="100%" style="stop-color:#0f4145;stop-opacity:1.000000"></stop>
        </radialGradient>
        <linearGradient id="105553171001376140604195528944" x1="50.077911%" x2="50.077911%" y1="100.000000%" y2="0.000000%">
            <stop offset="0%" style="stop-color:#176168;stop-opacity:1.000000"></stop>
            <stop offset="100%" style="stop-color:#27a2ad;stop-opacity:1.000000"></stop>
        </linearGradient>
    </defs>
    <g transform="scale(1.000000,-1.000000) translate(0,-206)">
        <path d="M 9.170822 8.143666 L 9.560641 8.114480 L 10.055267 8.107076 L 10.549901 8.099673 L 11.184305 8.121314 L 11.818702 8.142954 L 12.592987 8.193639 L 13.367031 8.244323 L 15.188820 8.403780 L 17.257889 8.621325 L 19.506532 8.896957 L 21.800736 9.230677 L 23.919793 9.622486 L 25.553533 10.072382 L 26.336580 10.580366 L 25.937612 11.146437 L 24.208555 11.770597 L 21.365788 12.452844 L 18.125906 13.193180 L 15.671544 13.991603 L 15.162405 14.412597 L 15.384941 14.919442 L 16.699019 15.470707 L 19.004568 16.021972 L 22.284034 16.632464 L 25.810571 17.242956 L 29.185024 17.912675 L 31.390450 18.582393 L 31.910215 19.311339 L 30.440197 20.040284 L 27.119368 20.828457 L 23.125892 21.616629 L 19.561386 22.464028 L 18.106924 23.311427 L 19.517536 24.218053 L 23.508228 25.124679 L 28.724974 26.075725 L 32.716697 27.026202 L 33.820328 27.701995 L 33.179356 28.377788 L 30.960328 29.053582 L 27.385439 29.785564 L 23.580391 30.517547 L 20.598447 31.249530 L 19.233849 32.037702 L 20.223561 32.825875 L 23.273040 33.614047 L 28.382085 34.579757 L 32.787590 35.545468 L 34.458672 36.511178 L 32.637925 37.476889 L 28.218545 38.433630 L 23.254087 39.390371 L 20.025265 40.347112 L 20.018823 41.303853 L 23.247444 42.260594 L 28.243861 43.217335 L 32.035510 43.998104 L 34.314828 44.778873 L 34.379295 45.559641 L 32.210258 46.340410 L 27.317272 47.336451 L 22.341180 48.332491 L 19.740861 49.328531 L 20.801287 50.324571 L 24.998422 51.320611 L 30.258302 52.316651 L 33.981736 53.312691 L 34.328832 54.308731 L 31.128072 55.304771 L 25.961074 56.300811 L 21.381129 57.296851 L 19.651366 58.292891 L 21.626552 59.288931 L 26.330672 60.284971 L 31.439180 61.281011 L 34.427735 62.277051 L 33.819555 63.273091 L 29.915169 64.269131 L 24.643916 65.265171 L 20.610563 66.261211 L 19.808177 67.257251 L 22.633253 68.253291 L 27.689806 69.249331 L 32.479134 70.245371 L 34.634620 71.241412 L 33.091139 72.237452 L 28.611397 73.233492 L 23.409040 74.229532 L 20.054794 75.225572 L 20.206145 76.221612 L 23.788304 77.217652 L 29.031162 78.213692 L 33.343980 79.209732 L 34.595596 80.205772 L 32.167529 81.201812 L 27.259591 82.197852 L 22.297034 83.193892 L 19.732080 84.189932 L 20.832196 85.185972 L 25.053760 86.182012 L 30.310703 87.178052 L 34.005325 88.174092 L 34.311945 89.170132 L 31.079046 90.166172 L 25.904147 91.162212 L 21.344417 92.158252 L 19.653022 93.154292 L 21.665759 94.150333 L 26.388042 95.146373 L 31.486376 96.142413 L 34.441431 97.138453 L 33.792984 98.134493 L 29.861460 99.130533 L 24.589606 100.126573 L 20.582492 101.122613 L 19.820217 102.118653 L 22.679456 103.114693 L 27.747327 104.110733 L 32.519561 105.106773 L 34.637975 106.102813 L 33.055763 107.098853 L 28.554769 108.094893 L 23.359144 109.090933 L 20.036284 110.086973 L 20.228171 111.083013 L 23.839984 112.079053 L 29.086957 113.075093 L 33.376320 114.071133 L 34.588499 115.067173 L 32.124503 116.063213 L 27.201897 117.059253 L 22.253181 118.055294 L 19.723738 119.051334 L 20.863483 120.047374 L 25.109215 121.043414 L 30.362922 122.039454 L 34.028508 123.035494 L 34.294629 124.031534 L 31.029788 125.027574 L 25.847294 126.023614 L 21.308057 127.019654 L 19.655122 128.015694 L 21.705282 129.011734 L 26.445457 130.007774 L 31.533309 131.003814 L 34.454695 131.999854 L 33.766017 132.995894 L 29.807586 133.991934 L 24.535448 134.987974 L 20.554811 135.984014 L 19.832689 136.980054 L 22.725918 137.976094 L 27.804819 138.972134 L 32.559673 139.968174 L 34.640887 140.964215 L 33.020038 141.960255 L 28.498061 142.956295 L 23.309475 143.952335 L 20.018198 144.948375 L 20.250609 145.944415 L 23.891860 146.940455 L 29.142638 147.936495 L 33.408291 148.932535 L 34.580965 149.928575 L 32.081183 150.924615 L 27.144192 151.920655 L 22.209623 152.916695 L 19.715835 153.912735 L 20.895142 154.908775 L 25.164805 155.904815 L 30.414952 156.900855 L 34.051285 157.896895 L 34.276895 158.892935 L 30.980300 159.888975 L 25.790525 160.885015 L 21.272037 161.881055 L 19.657664 162.877095 L 21.745131 163.873135 L 26.502935 164.869176 L 31.579991 165.865216 L 34.467532 166.861256 L 33.738667 167.857296 L 29.753557 168.853336 L 24.481459 169.849376 L 20.527519 170.845416 L 19.845592 171.841456 L 22.772644 172.837496 L 27.862261 173.833536 L 32.599468 174.829576 L 34.643356 175.825616 L 32.983961 176.821656 L 28.705332 177.767150 L 23.879426 178.678901 L 20.407865 179.590652 L 19.671169 180.457414 L 21.734545 181.324176 L 25.547918 182.145948 L 29.852940 182.967720 L 33.010092 183.744503 L 34.289957 184.521285 L 33.378085 185.253078 L 30.652783 185.984871 L 27.057880 186.671675 L 23.334603 187.358478 L 20.486389 188.000292 L 18.861447 188.642105 L 18.704649 189.238930 L 19.886016 189.835754 L 21.936111 190.387588 L 24.581928 190.939423 L 27.132510 191.446268 L 29.456815 191.953113 L 32.013419 192.876823 L 31.635738 193.710555 L 29.073899 194.454307 L 25.527010 195.108080 L 21.988009 195.671874 L 20.409950 195.920028 L 17.546130 196.396690 L 15.308090 196.827224 L 13.661396 197.257757 L 12.637188 197.626786 L 12.140872 197.995815 L 11.936744 198.303338 L 12.061303 198.610862 L 12.147655 198.856881 L 12.387287 199.102901 L 12.371336 199.287415 L 12.406795 199.471929 L 12.082840 199.594939 L 11.769233 199.717948 L 11.298187 199.758951 L 10.827465 199.799955 L 10.356987 199.840958 L 9.854866 199.848646 L 9.352743 199.856334 L 13.836942 200.749292 L 16.488562 201.642251 L 16.245498 202.535209 L 13.205109 203.428167 L 8.585222 204.321125 L 4.236288 205.214084 L 1.900372 206.107042 L 2.513067 207.000000 L 3.504095 207.000000 L 4.495122 207.000000 L 5.486150 207.000000 L 6.477177 207.000000 L 7.468205 207.000000 L 8.459233 207.000000 L 9.450260 207.000000 L 10.441288 207.000000 L 11.432315 207.000000 L 12.423343 207.000000 L 13.414371 207.000000 L 14.405398 207.000000 L 15.396426 207.000000 L 16.387453 207.000000 L 17.378481 207.000000 L 18.369509 207.000000 L 19.360536 207.000000 L 20.351564 207.000000 L 21.342591 207.000000 L 22.333619 207.000000 L 23.324647 207.000000 L 24.315674 207.000000 L 25.306702 207.000000 L 26.297729 207.000000 L 27.288757 207.000000 L 28.279785 207.000000 L 29.270812 207.000000 L 30.261840 207.000000 L 31.252867 207.000000 L 32.243895 207.000000 L 33.234923 207.000000 L 34.225950 207.000000 L 35.216978 207.000000 L 36.208005 207.000000 L 37.199033 207.000000 L 38.190061 207.000000 L 39.181088 207.000000 L 40.172116 207.000000 L 41.163143 207.000000 L 42.154171 207.000000 L 43.145199 207.000000 L 44.136226 207.000000 L 45.127254 207.000000 L 46.118281 207.000000 L 47.109309 207.000000 L 48.100337 207.000000 L 49.091364 207.000000 L 50.082392 207.000000 L 51.073419 207.000000 L 52.064447 207.000000 L 53.055475 207.000000 L 54.046502 207.000000 L 55.037530 207.000000 L 56.028558 207.000000 L 57.019585 207.000000 L 58.010613 207.000000 L 59.001640 207.000000 L 59.992668 207.000000 L 60.983696 207.000000 L 61.974723 207.000000 L 62.965751 207.000000 L 63.956778 207.000000 L 64.947806 207.000000 L 65.938834 207.000000 L 66.929861 207.000000 L 66.678286 206.041806 L 69.769357 205.083613 L 74.915858 204.125419 L 79.887687 203.167226 L 82.534726 202.209032 L 81.773559 201.250838 L 78.084397 200.292645 L 73.290755 199.334451 L 69.722828 198.376258 L 69.148584 197.418064 L 71.962445 196.459871 L 77.004378 195.501677 L 82.092212 194.543483 L 85.022717 193.585290 L 84.582345 192.627096 L 81.104127 191.668903 L 76.314803 190.710709 L 72.542643 189.752515 L 71.649250 188.794322 L 74.175462 187.836128 L 79.093281 186.877935 L 84.277443 185.919741 L 87.480488 184.961548 L 87.363873 184.003354 L 84.112103 183.045160 L 79.347997 182.086967 L 75.388264 181.128773 L 74.180566 180.170580 L 76.409959 179.212386 L 81.184601 178.254192 L 86.444892 177.295999 L 89.908500 176.337805 L 90.117309 175.379612 L 87.106498 174.421418 L 82.388374 173.463225 L 78.258556 172.505031 L 76.742693 171.546837 L 78.667252 170.588644 L 83.280245 169.630450 L 88.596260 168.672257 L 92.307335 167.714063 L 92.841883 166.755869 L 90.085614 165.797676 L 85.434051 164.839482 L 81.152260 163.881289 L 79.335658 162.923095 L 80.948645 161.964901 L 85.382192 161.006708 L 90.733217 160.048514 L 94.677707 159.090321 L 95.536951 158.132127 L 93.047739 157.173934 L 88.483044 156.215740 L 84.068082 155.257546 L 81.959369 154.299353 L 83.255338 153.341159 L 87.492363 152.382966 L 92.857565 151.424772 L 97.020410 150.466578 L 98.202010 149.508385 L 95.991238 148.550191 L 91.533364 147.591998 L 87.004566 146.633804 L 84.613600 145.675611 L 85.588379 144.717417 L 89.612661 143.759223 L 94.971148 142.801030 L 99.336397 141.842836 L 100.836660 140.884643 L 98.914615 139.926449 L 94.583049 138.968255 L 89.960225 138.010062 L 87.297999 137.051868 L 87.948756 136.093675 L 91.744918 135.135481 L 97.075829 134.177288 L 101.626695 133.219094 L 103.440629 132.260900 L 101.816384 131.302707 L 97.630137 130.344513 L 92.933448 129.386320 L 90.012099 128.428126 L 90.337335 127.469932 L 93.890932 126.511739 L 99.173510 125.553545 L 103.892466 124.595352 L 106.013780 123.637158 L 104.695196 122.678964 L 100.672635 121.720771 L 95.922590 120.762577 L 92.755297 119.804384 L 92.754850 118.846190 L 96.052438 117.887997 L 101.266138 116.929803 L 106.134948 115.971609 L 108.556095 115.013416 L 107.549762 114.055222 L 103.708619 113.097029 L 98.925920 112.138835 L 95.526884 111.180641 L 95.201930 110.222448 L 98.231121 109.264254 L 103.355677 108.306061 L 108.355492 107.347867 L 111.067686 106.389674 L 110.378918 105.431480 L 106.736162 104.473286 L 101.941652 103.515093 L 98.326028 102.556899 L 97.679076 101.598706 L 100.428588 100.640512 L 105.444098 99.682318 L 110.555528 98.724125 L 113.548791 97.765931 L 113.181595 96.807738 L 109.753380 95.849544 L 104.967952 94.891351 L 101.151783 93.933157 L 100.186668 92.974963 L 102.646365 92.016770 L 107.533380 91.058576 L 112.736576 90.100383 L 115.999773 89.142189 L 115.956833 88.183995 L 112.758430 87.225802 L 108.002938 86.267608 L 104.003096 85.309415 L 102.724960 84.351221 L 104.885907 83.393027 L 109.625493 82.434834 L 114.900233 81.476640 L 118.421120 80.518447 L 118.703786 79.560253 L 115.749526 78.602060 L 111.044695 77.643866 L 106.878806 76.685672 L 105.294080 75.727479 L 107.148554 74.769285 L 105.879022 75.720585 L 108.001822 76.671885 L 112.692432 77.623186 L 117.964490 78.574486 L 121.568503 79.525786 L 122.009763 80.477086 L 119.224595 81.428386 L 114.609182 82.379686 L 110.387854 83.330986 L 108.606625 84.282286 L 110.207430 85.233586 L 114.601932 86.184886 L 119.937741 87.136187 L 123.936534 88.087487 L 124.924965 89.038787 L 122.591781 89.990087 L 118.128659 90.941387 L 113.691025 91.892687 L 111.422754 92.843987 L 112.486162 93.795287 L 116.536071 94.746587 L 121.875999 95.697888 L 126.225770 96.649188 L 127.753223 97.600488 L 125.903217 98.551788 L 121.648808 99.503088 L 117.050976 100.454388 L 114.326090 101.405688 L 114.843066 102.356988 L 118.503971 103.308288 L 123.788338 104.259589 L 128.441129 105.210889 L 130.493077 106.162189 L 129.151719 107.113489 L 125.159966 108.064789 L 120.459953 109.016089 L 117.314282 109.967389 L 117.282263 110.918689 L 120.514368 111.869989 L 125.684148 112.821289 L 130.588412 113.772590 L 133.144109 114.723890 L 132.330845 115.675190 L 128.652587 116.626490 L 123.909613 117.577790 L 120.383976 118.529090 L 119.806900 119.480390 L 122.575481 120.431690 L 127.573006 121.382990 L 132.674217 122.334291 L 135.706958 123.285591 L 135.434982 124.236891 L 132.117333 125.188191 L 127.391142 126.139491 L 123.530851 127.090791 L 122.419110 128.042091 L 124.694942 128.993391 L 129.464576 129.944691 L 134.705879 130.895991 L 138.183307 131.847292 L 138.459395 132.798592 L 135.545217 133.749892 L 130.895337 134.701192 L 126.749661 135.652492 L 125.119991 136.603792 L 126.879674 137.555092 L 131.368505 138.506392 L 136.691383 139.457692 L 140.575857 140.408993 L 141.400304 141.360293 L 138.927657 142.311593 L 134.412716 143.262893 L 130.034336 144.214193 L 127.909589 145.165493 L 129.135850 146.116793 L 133.294252 147.068093 L 138.639224 148.019393 L 142.888317 148.970694 L 144.254910 149.921994 L 142.256651 150.873294 L 137.933669 151.824594 L 133.378002 152.775894 L 130.786897 153.727194 L 131.468761 154.678494 L 135.251058 155.629794 L 140.558393 156.581094 L 145.125312 157.532394 L 147.021439 158.483695 L 145.524785 159.434995 L 141.448559 160.386295 L 136.773079 161.337595 L 133.749885 162.288895 L 133.882840 163.240195 L 137.247794 164.191495 L 142.458155 165.142795 L 147.292415 166.094095 L 149.699164 167.045396 L 148.725416 167.996696 L 144.947736 168.947996 L 140.211430 169.899296 L 136.795477 170.850596 L 136.381514 171.801896 L 139.292812 172.753196 L 144.348100 173.704496 L 149.395978 174.655796 L 152.288400 175.607096 L 151.852636 176.558397 L 148.421847 177.509697 L 143.684316 178.460997 L 139.919643 179.412297 L 138.967223 180.363597 L 141.393971 181.314897 L 146.237851 182.266197 L 151.443100 183.217497 L 154.790525 184.168797 L 154.901474 185.120098 L 151.861728 186.071398 L 147.182666 187.022698 L 143.117438 187.973998 L 141.641386 188.925298 L 143.558397 189.876598 L 148.137033 190.827898 L 153.441616 191.779198 L 157.207925 192.730498 L 157.867822 193.681799 L 155.258724 194.633099 L 150.697111 195.584399 L 146.382987 196.535699 L 144.404361 197.486999 L 145.792491 198.438299 L 150.055217 199.389599 L 155.399842 200.340899 L 159.544024 201.292199 L 160.748620 202.243499 L 158.604568 203.194800 L 154.218034 204.146100 L 149.709690 205.097400 L 147.255465 206.048700 L 148.101814 207.000000 L 149.101251 207.000000 L 150.100688 207.000000 L 151.100125 207.000000 L 152.099561 207.000000 L 153.098998 207.000000 L 154.098435 207.000000 L 155.097872 207.000000 L 156.097308 207.000000 L 157.096745 207.000000 L 158.096182 207.000000 L 159.095619 207.000000 L 160.095056 207.000000 L 161.094492 207.000000 L 162.093929 207.000000 L 163.093366 207.000000 L 164.092803 207.000000 L 165.092239 207.000000 L 166.091676 207.000000 L 167.091113 207.000000 L 168.090550 207.000000 L 169.089986 207.000000 L 170.089423 207.000000 L 171.088860 207.000000 L 172.088297 207.000000 L 173.087733 207.000000 L 174.087170 207.000000 L 175.086607 207.000000 L 176.086044 207.000000 L 177.085480 207.000000 L 178.084917 207.000000 L 179.084354 207.000000 L 180.083791 207.000000 L 181.083227 207.000000 L 182.082664 207.000000 L 183.082101 207.000000 L 184.081538 207.000000 L 185.080974 207.000000 L 186.080411 207.000000 L 187.079848 207.000000 L 188.079285 207.000000 L 189.078721 207.000000 L 190.078158 207.000000 L 191.077595 207.000000 L 192.077032 207.000000 L 193.076468 207.000000 L 194.075905 207.000000 L 195.075342 207.000000 L 196.074779 207.000000 L 197.074215 207.000000 L 198.073652 207.000000 L 199.073089 207.000000 L 200.072526 207.000000 L 201.071962 207.000000 L 202.071399 207.000000 L 203.070836 207.000000 L 204.070273 207.000000 L 205.069709 207.000000 L 206.069146 207.000000 L 207.068583 207.000000 L 208.068020 207.000000 L 209.067456 207.000000 L 210.066893 207.000000 L 211.066330 207.000000 L 212.065767 207.000000 L 211.453072 206.107042 L 213.788988 205.214084 L 218.137921 204.321125 L 222.757809 203.428167 L 225.798198 202.535209 L 226.041262 201.642251 L 223.389642 200.749292 L 218.905443 199.856334 L 218.303298 199.865731 L 217.701146 199.875127 L 216.756015 199.852348 L 215.810865 199.829568 L 214.865673 199.806789 L 213.731240 199.736931 L 212.598214 199.667074 L 211.467549 199.597217 L 210.157858 199.480282 L 208.861822 199.363347 L 207.583733 199.246412 L 205.487062 199.000393 L 203.524385 198.754373 L 201.614010 198.437738 L 200.033514 198.121102 L 198.888820 197.733850 L 198.324462 197.346597 L 198.617281 196.888729 L 199.597827 196.430860 L 201.433594 195.920028 L 202.803349 195.606952 L 205.958000 194.906481 L 208.700741 194.106919 L 209.443449 193.657592 L 209.430633 193.208266 L 208.550019 192.709394 L 206.796335 192.210521 L 204.138005 191.662104 L 201.043701 191.113686 L 197.734188 190.515723 L 195.010415 189.917760 L 193.289809 189.270251 L 193.132054 188.622743 L 194.730771 187.925689 L 197.702660 187.228634 L 201.557782 186.482035 L 204.974598 185.735435 L 207.039557 184.939290 L 206.774267 184.143145 L 204.034550 183.297454 L 199.686405 182.451763 L 195.062001 181.556527 L 192.187974 180.661291 L 192.303712 179.716509 L 195.536167 178.771728 L 200.699229 177.777400 L 205.120394 176.783073 L 206.560730 176.087158 L 206.172067 175.391243 L 204.047279 174.695328 L 201.526635 174.154812 L 198.644674 173.614296 L 193.841003 172.619806 L 191.636138 171.625316 L 193.116345 170.630826 L 197.552350 169.636336 L 202.758675 168.641846 L 206.170249 167.647356 L 206.106297 166.652866 L 202.598328 165.658376 L 197.374606 164.663886 L 193.008774 163.669396 L 191.651739 162.674906 L 193.972089 161.680417 L 198.826661 160.685927 L 203.823689 159.691437 L 206.501294 158.696947 L 205.540264 157.702457 L 201.414069 156.707967 L 196.155617 155.713477 L 192.355581 154.718987 L 191.886175 153.724497 L 194.978662 152.730007 L 200.109423 151.735517 L 204.750696 150.741027 L 206.615802 149.746537 L 204.785861 148.752047 L 200.162457 147.757557 L 195.023405 146.763067 L 191.900601 145.768577 L 192.332577 144.774088 L 196.106508 143.779598 L 201.363069 142.785108 L 205.512479 141.790618 L 206.510423 140.796128 L 203.865239 139.801638 L 198.880145 138.807148 L 194.011177 137.812658 L 191.657158 136.818168 L 192.977857 135.823678 L 197.322597 134.829188 L 202.550829 133.834698 L 206.086730 132.840208 L 206.188245 131.845718 L 202.805362 130.851228 L 197.604744 129.856738 L 193.148612 128.862249 L 191.632394 127.867759 L 193.803094 126.873269 L 198.591261 125.878779 L 203.637880 124.884289 L 206.456604 123.889799 L 205.658714 122.895309 L 201.637313 121.900819 L 196.373647 120.906329 L 192.460998 119.911839 L 191.827035 118.917349 L 194.784094 117.922859 L 199.875306 116.928369 L 204.592351 115.933879 L 206.611256 114.939389 L 204.937354 113.944899 L 200.395338 112.950409 L 195.222948 111.955920 L 191.968497 110.961430 L 192.235374 109.966940 L 195.892097 108.972450 L 201.137084 107.977960 L 205.386258 106.983470 L 206.546152 105.988980 L 204.045316 104.994490 L 199.115849 104.000000 L 194.186383 103.005510 L 191.685547 102.011020 L 192.845441 101.016530 L 197.094615 100.022040 L 202.339602 99.027550 L 205.996324 98.033060 L 206.263202 97.038570 L 203.008751 96.044080 L 197.836361 95.049591 L 193.294345 94.055101 L 191.620443 93.060611 L 193.639348 92.066121 L 198.356393 91.071631 L 203.447605 90.077141 L 206.404664 89.082651 L 205.770701 88.088161 L 201.858052 87.093671 L 196.594386 86.099181 L 192.572985 85.104691 L 191.775095 84.110201 L 194.593819 83.115711 L 199.640438 82.121221 L 204.428605 81.126731 L 206.599305 80.132241 L 205.083087 79.137751 L 200.626955 78.143262 L 195.426337 77.148772 L 192.043453 76.154282 L 192.144969 75.159792 L 195.680870 74.165302 L 200.909102 73.170812 L 205.253842 72.176322 L 206.574541 71.181832 L 204.220522 70.187342 L 199.351554 69.192852 L 194.366460 68.198362 L 191.721275 67.203872 L 192.719220 66.209382 L 196.868630 65.214892 L 202.125191 64.220402 L 205.899122 63.225912 L 206.331098 62.231423 L 203.208294 61.236933 L 198.069242 60.242443 L 193.445838 59.247953 L 191.615897 58.253463 L 193.481003 57.258973 L 198.122276 56.264483 L 203.253037 55.269993 L 206.345524 54.275503 L 205.876118 53.281013 L 202.076082 52.286523 L 196.817630 51.292033 L 192.691435 50.297543 L 191.730405 49.303053 L 194.408010 48.308563 L 199.405038 47.314073 L 204.259610 46.319583 L 206.579960 45.325094 L 205.222925 44.330604 L 200.857093 43.336114 L 195.633371 42.341624 L 192.125402 41.347134 L 192.061450 40.352644 L 195.473024 39.358154 L 200.679349 38.363664 L 205.115354 37.369174 L 206.595561 36.374684 L 204.390696 35.380194 L 199.587025 34.385704 L 196.801675 33.863127 L 194.341435 33.340550 L 192.208583 32.667414 L 191.675539 31.994279 L 192.868244 31.321143 L 196.973825 30.358707 L 202.106167 29.396272 L 205.802882 28.481103 L 206.761568 27.565935 L 204.801403 26.698034 L 200.797434 25.830133 L 196.545389 25.009500 L 193.323322 24.188867 L 192.273231 23.415501 L 193.496100 22.642136 L 196.445444 21.916038 L 200.349697 21.189940 L 203.994858 20.511109 L 206.767551 19.832279 L 208.045548 19.200716 L 207.803329 18.569153 L 206.322575 17.984857 L 203.899064 17.400562 L 201.262188 16.863534 L 198.633028 16.326506 L 196.633205 15.836746 L 195.262756 15.346986 L 194.770022 14.904493 L 195.025911 14.462000 L 197.379654 13.671550 L 201.035380 12.975635 L 202.967620 12.663128 L 204.845990 12.367421 L 208.318944 11.805905 L 211.111971 11.284254 L 213.071448 10.802466 L 214.232635 10.360543 L 214.748603 9.958484 L 214.823125 9.596289 L 214.660649 9.273959 L 214.436380 8.991492 L 214.373991 8.870191 L 214.283511 8.748890 L 214.295225 8.647521 L 214.293209 8.546152 L 214.409845 8.464715 L 214.520853 8.383278 L 214.759264 8.321774 L 214.995906 8.260269 L 215.363547 8.218696 L 215.730963 8.177123 L 216.230358 8.155483 L 216.729818 8.133842 L 217.361340 8.132134 L 217.992918 8.130425 L 218.723522 8.143666 L 214.239323 7.250708 L 211.587703 6.357749 L 211.830767 5.464791 L 214.871156 4.571833 L 219.491044 3.678875 L 223.839977 2.785916 L 226.175893 1.892958 L 225.563198 1.000000 L 224.573655 1.000000 L 223.584111 1.000000 L 222.594567 1.000000 L 221.605023 1.000000 L 220.615479 1.000000 L 219.625935 1.000000 L 218.636391 1.000000 L 217.646847 1.000000 L 216.657303 1.000000 L 215.667759 1.000000 L 214.678215 1.000000 L 213.688671 1.000000 L 212.699127 1.000000 L 211.709583 1.000000 L 210.720039 1.000000 L 209.730496 1.000000 L 208.740952 1.000000 L 207.751408 1.000000 L 206.761864 1.000000 L 205.772320 1.000000 L 204.782776 1.000000 L 203.793232 1.000000 L 202.803688 1.000000 L 201.814144 1.000000 L 200.824600 1.000000 L 199.835056 1.000000 L 198.845512 1.000000 L 197.855968 1.000000 L 196.866424 1.000000 L 195.876880 1.000000 L 194.887337 1.000000 L 193.897793 1.000000 L 192.908249 1.000000 L 191.918705 1.000000 L 190.929161 1.000000 L 189.939617 1.000000 L 188.950073 1.000000 L 187.960529 1.000000 L 186.970985 1.000000 L 185.981441 1.000000 L 184.991897 1.000000 L 184.002353 1.000000 L 183.012809 1.000000 L 182.023265 1.000000 L 181.033721 1.000000 L 180.044178 1.000000 L 179.054634 1.000000 L 178.065090 1.000000 L 177.075546 1.000000 L 176.086002 1.000000 L 175.096458 1.000000 L 174.106914 1.000000 L 173.117370 1.000000 L 172.127826 1.000000 L 171.138282 1.000000 L 170.148738 1.000000 L 169.159194 1.000000 L 168.169650 1.000000 L 167.180106 1.000000 L 166.190562 1.000000 L 165.201019 1.000000 L 164.211475 1.000000 L 163.221931 1.000000 L 162.232387 1.000000 L 161.242843 1.000000 L 160.253299 1.000000 L 159.263755 1.000000 L 158.274211 1.000000 L 157.284667 1.000000 L 156.295123 1.000000 L 155.305579 1.000000 L 154.316035 1.000000 L 153.326491 1.000000 L 152.336947 1.000000 L 151.347404 1.000000 L 150.357860 1.000000 L 149.368316 1.000000 L 148.378772 1.000000 L 147.389228 1.000000 L 146.399684 1.000000 L 145.410140 1.000000 L 146.022835 1.892958 L 143.686919 2.785916 L 139.337985 3.678875 L 134.718098 4.571833 L 131.677709 5.464791 L 131.434645 6.357749 L 134.086265 7.250708 L 138.570463 8.143666 L 139.158365 8.130425 L 139.810133 8.132134 L 140.461959 8.133842 L 141.198971 8.155483 L 141.936046 8.177123 L 142.758226 8.218696 L 143.580180 8.260269 L 144.486257 8.321774 L 145.390565 8.383278 L 146.375400 8.464715 L 147.354605 8.546152 L 148.405588 8.647521 L 149.442841 8.748890 L 150.535411 8.870191 L 151.599889 8.991492 L 152.692288 9.132725 L 153.734586 9.273959 L 155.713737 9.596289 L 157.362139 9.958484 L 158.475341 10.360543 L 158.849572 10.802466 L 158.331760 11.284254 L 156.886646 11.805905 L 154.667853 12.367421 L 153.381406 12.663128 L 151.992444 12.975635 L 149.371533 13.671550 L 147.983617 14.462000 L 149.117301 15.346986 L 150.901677 15.836746 L 153.315426 16.326506 L 156.324018 16.863534 L 159.340326 17.400562 L 162.108775 17.984857 L 163.934468 18.569153 L 164.487132 19.200716 L 163.519579 19.832279 L 161.022837 20.511109 L 157.653626 21.189940 L 153.990830 21.916038 L 151.282943 22.642136 L 150.267037 23.415501 L 151.524091 24.188867 L 154.918628 25.009500 L 159.343142 25.830133 L 163.485085 26.698034 L 165.583226 27.565935 L 164.728022 28.481103 L 161.134788 29.396272 L 156.071434 30.358707 L 152.034840 31.321143 L 150.865131 31.994279 L 151.421171 32.667414 L 153.577019 33.340550 L 156.041571 33.863127 L 158.831233 34.385704 L 163.654879 35.385401 L 165.843698 36.385098 L 164.308483 37.384794 L 159.813220 38.384491 L 154.594812 39.384188 L 151.250078 40.383884 L 151.443435 41.383581 L 155.078664 42.383278 L 160.346764 43.382974 L 164.626257 44.382671 L 165.787543 45.382368 L 163.252739 46.382065 L 158.283222 47.381761 L 153.351940 48.381458 L 150.912817 49.381155 L 152.179593 50.380851 L 156.521913 51.380548 L 161.778936 52.380245 L 165.334645 53.379941 L 165.419646 54.379638 L 161.991641 55.379335 L 156.756476 56.379031 L 152.319290 57.378728 L 150.888130 58.378425 L 153.175155 59.378122 L 158.042325 60.377818 L 163.067585 61.377515 L 165.750283 62.377212 L 164.755432 63.376908 L 160.578107 64.376605 L 155.297021 65.376302 L 151.540180 66.375998 L 151.177055 67.375695 L 154.388359 68.375392 L 159.576059 69.375088 L 164.158660 70.374785 L 165.855741 71.374482 L 163.822804 72.374179 L 159.071476 73.373875 L 153.966141 74.373572 L 151.047307 75.373269 L 151.767468 76.372965 L 155.768241 77.372662 L 161.058770 78.372359 L 165.006355 79.372055 L 165.646592 80.371752 L 162.660885 81.371449 L 157.534993 82.371145 L 152.819671 83.370842 L 150.861368 84.370539 L 152.634582 85.370236 L 157.256920 86.369932 L 162.428203 87.369629 L 165.575088 88.369326 L 165.131609 89.369022 L 161.318456 90.368719 L 156.033139 91.368416 L 151.905743 92.368112 L 150.990163 93.367809 L 153.742006 94.367506 L 158.791896 95.367203 L 163.626890 96.366899 L 165.840993 97.366596 L 164.332414 98.366293 L 159.851855 99.365989 L 154.628945 100.365686 L 151.262720 101.365383 L 151.428288 102.365079 L 155.043260 103.364776 L 160.308744 104.364473 L 164.604518 105.364169 L 165.792908 106.363866 L 163.282545 107.363563 L 158.322641 108.363260 L 153.381357 109.362956 L 150.917585 110.362653 L 152.157354 111.362350 L 156.483728 112.362046 L 161.743803 113.361743 L 165.320053 114.361440 L 165.432850 115.361136 L 162.026069 116.360833 L 156.794998 117.360530 L 152.342736 118.360226 L 150.884826 119.359923 L 153.146760 120.359620 L 158.002946 121.359317 L 163.036838 122.359013 L 165.743462 123.358710 L 164.775935 124.358407 L 160.615725 125.358103 L 155.333046 126.357800 L 151.556670 127.357497 L 151.165815 128.357193 L 154.354976 129.356890 L 159.537159 130.356587 L 164.133579 131.356283 L 165.856974 132.355980 L 163.849728 133.355677 L 159.110708 134.355374 L 153.998136 135.355070 L 151.056158 136.354767 L 151.748764 137.354464 L 155.731300 138.354160 L 161.021953 139.353857 L 164.987998 140.353554 L 165.655826 141.353250 L 162.693119 142.352947 L 157.574177 143.352644 L 152.846307 144.352341 L 150.862208 145.352037 L 152.609204 146.351734 L 157.217944 147.351431 L 162.395036 148.351127 L 165.564228 149.350824 L 165.148456 150.350521 L 161.354645 151.350217 L 156.070645 152.349914 L 151.925909 153.349611 L 150.982956 154.349307 L 153.711020 155.349004 L 158.752554 156.348701 L 163.598751 157.348398 L 165.838081 158.348094 L 164.356171 159.347791 L 159.890455 160.347488 L 154.663177 161.347184 L 151.275563 162.346881 L 151.413333 163.346578 L 155.007955 164.346274 L 160.270661 165.345971 L 164.582606 166.345668 L 165.798066 167.345364 L 163.312220 168.345061 L 158.362059 169.344758 L 153.410901 170.344455 L 150.922559 171.344151 L 152.135290 172.343848 L 156.445582 173.343545 L 161.708577 174.343241 L 165.305271 175.342938 L 165.445864 176.342635 L 162.060395 177.342331 L 156.833578 178.342028 L 152.366348 179.341725 L 150.881728 180.341421 L 153.118498 181.341118 L 152.665656 181.341118 L 150.151919 180.391954 L 150.995744 179.442791 L 154.680575 178.493627 L 159.409988 177.544463 L 162.916897 176.595299 L 163.484994 175.646136 L 160.721992 174.696972 L 155.736291 173.747808 L 150.637693 172.798644 L 147.586861 171.849480 L 147.821880 170.900317 L 151.100508 169.951153 L 155.809288 169.001989 L 159.690445 168.052825 L 160.859064 167.103661 L 158.652308 166.154498 L 153.927980 165.205334 L 148.678127 164.256170 L 145.131553 163.307006 L 144.749691 162.357843 L 147.568209 161.408679 L 152.180945 160.459515 L 156.373392 159.510351 L 158.120391 158.561187 L 156.498535 157.612024 L 152.102117 156.662860 L 146.775451 155.713696 L 142.781963 154.764532 L 141.784398 153.815369 L 144.095839 152.866205 L 148.538564 151.917041 L 152.974637 150.967877 L 155.269193 150.018713 L 154.252088 149.069550 L 150.245195 148.120386 L 144.917319 147.171222 L 140.532423 146.222058 L 138.929629 145.272895 L 140.694656 144.323731 L 144.895947 143.374567 L 149.504384 142.425403 L 152.307382 141.476239 L 151.905780 140.527076 L 148.344138 139.577912 L 143.090670 138.628748 L 138.375824 137.679584 L 136.187349 136.730421 L 137.374839 135.781257 L 141.266943 134.832093 L 145.973803 133.882929 L 149.238535 132.933765 L 149.453926 131.984602 L 146.386573 131.035438 L 141.282026 130.086274 L 136.303600 129.137110 L 133.557831 128.187947 L 134.145368 127.238783 L 137.665153 126.289619 L 142.395066 125.340455 L 146.067832 124.391291 L 146.892420 123.442128 L 144.360968 122.492964 L 139.477580 121.543800 L 134.305955 120.594636 L 131.039650 119.645472 L 131.013834 118.696309 L 134.103771 117.747145 L 138.781019 116.797981 L 142.802000 115.848817 L 144.218818 114.899654 L 142.256802 113.950490 L 137.663510 113.001326 L 132.371944 112.052162 L 128.629703 111.102998 L 127.986373 110.153835 L 130.595419 109.204671 L 135.145045 108.255507 L 139.449181 107.306343 L 141.432360 106.357180 L 140.064748 105.408016 L 135.826116 104.458852 L 130.489688 103.509688 L 126.323267 102.560524 L 125.067544 101.611361 L 127.151881 100.662197 L 131.500874 99.713033 L 136.018842 98.763869 L 138.533980 97.814706 L 137.776799 96.865542 L 133.952057 95.916378 L 128.646511 94.967214 L 124.114052 94.018050 L 122.260278 93.068887 L 123.783988 92.119723 L 127.862348 91.170559 L 132.521606 90.221395 L 135.526301 89.272232 L 135.386389 88.323068 L 132.028535 87.373904 L 126.829154 86.424740 L 121.994307 85.475576 L 119.565825 84.526413 L 120.501420 83.577249 L 124.243221 82.628085 L 128.969101 81.678921 L 132.413589 80.729758 L 132.888496 79.780594 L 130.043502 78.831430 L 125.023978 77.882266 L 119.954936 76.933102 L 116.983736 75.983939 L 117.312587 75.034775 L 120.656964 74.085611 L 125.373803 73.136447 L 129.201682 72.187283 L 130.279713 71.238120 L 127.985846 70.288956 L 123.217140 69.339792 L 117.985646 68.390628 L 114.511873 67.441465 L 114.224476 66.492301 L 117.116555 65.543137 L 121.748813 64.593973 L 125.897934 63.644809 L 127.558305 62.695646 L 125.845517 61.746482 L 121.394845 60.797318 L 116.075056 59.848154 L 112.146444 58.898991 L 111.242560 57.949827 L 113.634269 57.000663 L 118.107686 56.051499 L 122.511048 55.102335 L 124.724227 54.153172 L 123.613741 53.204008 L 119.543519 52.254844 L 114.210946 51.305680 L 109.882039 50.356517 L 108.370725 49.407353 L 110.221515 48.458189 L 114.464220 47.509025 L 119.051016 46.559861 L 121.779137 45.610698 L 121.283106 44.661534 L 117.650029 43.712370 L 112.380347 42.763206 L 107.711745 41.814043 L 105.611187 40.864879 L 106.888653 39.915715 L 110.832220 38.966551 L 115.528902 38.017387 L 118.726356 37.068224 L 118.847691 36.119060 L 115.701897 35.169896 L 110.569825 34.220732 L 105.627225 33.271569 L 102.964478 32.322405 L 103.644827 31.373241 L 107.225402 30.424077 L 111.956712 29.474913 L 115.570831 28.525750 L 116.303150 27.576586 L 113.687397 26.627422 L 108.765633 25.678258 L 103.618855 24.729094 L 100.429433 23.779931 L 100.497889 22.830767 L 103.657020 21.881603 L 108.347207 20.932439 L 112.319051 19.983276 L 113.646780 19.034112 L 111.595874 18.084948 L 106.953924 17.135784 L 101.675863 16.186620 L 98.003203 15.237457 L 97.454192 14.288293 L 100.139753 13.339129 L 104.713680 12.389965 L 108.978934 11.440802 L 110.877556 10.491638 L 109.417808 9.542474 L 105.120969 8.593310 L 99.786492 7.644146 L 95.681308 6.694983 L 94.518522 5.745819 L 96.685585 4.796655 L 101.069872 3.847491 L 105.559787 2.898328 L 107.996159 1.949164 L 107.144979 1.000000 L 106.182690 1.000000 L 105.220400 1.000000 L 104.258111 1.000000 L 103.295821 1.000000 L 102.333531 1.000000 L 101.371242 1.000000 L 100.408952 1.000000 L 99.446663 1.000000 L 99.703106 1.954186 L 96.641407 2.908372 L 91.524895 3.862557 L 86.552191 4.816743 L 83.856308 5.770929 L 84.534205 6.725115 L 88.147270 7.679301 L 92.921191 8.633486 L 96.553190 9.587672 L 97.260340 10.541858 L 94.590758 11.496044 L 89.629322 12.450230 L 84.504028 13.404416 L 81.417451 14.358601 L 81.644241 15.312787 L 84.951166 16.266973 L 89.703171 17.221159 L 93.607536 18.175345 L 94.757311 19.129530 L 92.499187 20.083716 L 87.730824 21.037902 L 82.492292 21.992088 L 79.037717 22.946274 L 78.809246 23.900459 L 81.780825 24.854645 L 86.470023 25.808831 L 90.612705 26.763017 L 92.193462 27.717203 L 90.362821 28.671389 L 85.823908 29.625574 L 80.512394 30.579760 L 76.715566 31.533946 L 76.031363 32.488132 L 78.641161 33.442318 L 83.227150 34.396503 L 87.572174 35.350689 L 89.568733 36.304875 L 88.178140 37.259061 L 83.903232 38.213247 L 78.559527 39.167432 L 74.448950 40.121618 L 73.312271 41.075804 L 75.536741 42.029990 L 79.979949 42.984176 L 84.489711 43.938361 L 86.883555 44.892547 L 85.941970 45.846733 L 81.963455 46.800919 L 76.628641 47.755105 L 72.235420 48.709291 L 70.653157 49.663476 L 72.471919 50.617662 L 76.733964 51.571848 L 81.369509 52.526034 L 84.138858 53.480220 L 83.651617 54.434405 L 79.999500 55.388591 L 74.714586 56.342777 L 70.072057 57.296963 L 68.054740 58.251149 L 69.450719 59.205334 L 73.494616 60.159520 L 78.215980 61.113706 L 81.336036 62.067892 L 81.304776 63.022078 L 78.006392 63.976263 L 72.811981 64.930449 L 67.955526 65.884635 L 65.517237 66.838821 L 66.476755 67.793007 L 70.267373 68.747193 L 75.033886 69.701378 L 78.476980 70.655564 L 78.899631 71.609750 L 75.979449 72.563936 L 70.915407 73.518122 L 65.882157 74.472307 L 63.040371 75.426493 L 63.553325 76.380679 L 67.057546 77.334865 L 71.828174 78.289051 L 75.564021 79.243236 L 76.434831 80.197422 L 73.914245 81.151608 L 69.019383 82.105794 L 63.847904 83.059980 L 60.623376 84.014166 L 60.683276 84.968351 L 63.870312 85.922537 L 68.603988 86.876723 L 72.599932 87.830909 L 73.909505 88.785095 L 71.806675 89.739280 L 67.118423 90.693466 L 61.848396 91.647652 L 58.264994 92.601838 L 57.869032 93.556024 L 60.710684 94.510209 L 65.366643 95.464395 L 69.587901 96.418581 L 71.323283 97.372767 L 69.652961 98.326953 L 65.207084 99.281138 L 59.878980 100.235324 L 55.963495 101.189510 L 55.112569 102.143696 L 57.583434 103.097882 L 62.121539 104.052068 L 66.531507 105.006253 L 68.676281 105.960439 L 67.449716 106.914625 L 63.279998 107.868811 L 57.934779 108.822997 L 53.716686 109.777182 L 52.415386 110.731368 L 54.493077 111.685554 L 58.874149 112.639740 L 63.434688 113.593926 L 65.969114 114.548111 L 65.193946 115.502297 L 61.331935 116.456483 L 56.010694 117.410669 L 51.521932 118.364855 L 49.778505 119.319041 L 51.443826 120.273226 L 55.629959 121.227412 L 60.301713 122.181598 L 63.202883 123.135784 L 62.883088 124.089970 L 59.357828 125.044155 L 54.101461 125.998341 L 49.376169 126.952527 L 47.202456 127.906713 L 48.439568 128.860899 L 52.394439 129.815084 L 57.137134 130.769270 L 60.379169 131.723456 L 60.515024 132.677642 L 57.352834 133.631828 L 52.201713 134.586013 L 47.275942 135.540199 L 44.687278 136.494385 L 45.483799 137.448571 L 49.172979 138.402757 L 53.945779 139.356943 L 57.500024 140.311128 L 58.088104 141.265314 L 55.312339 142.219500 L 50.305979 143.173686 L 45.217422 144.127872 L 42.232511 145.082057 L 42.579661 146.036243 L 45.970857 146.990429 L 50.732679 147.944615 L 54.567954 148.898801 L 55.601154 149.852986 L 53.232037 150.807172 L 48.408779 151.761358 L 43.196456 152.715544 L 39.837213 153.669730 L 39.729852 154.623915 L 42.793196 155.578101 L 47.503043 156.532287 L 51.585861 157.486473 L 53.053484 158.440659 L 51.107947 159.394845 L 46.504649 160.349030 L 41.208536 161.303216 L 37.499939 162.257402 L 36.936616 163.211588 L 39.644906 164.165774 L 44.262203 165.119959 L 48.557096 166.074145 L 50.444904 167.028331 L 48.936409 167.982517 L 44.588128 168.936703 L 39.248971 169.890888 L 35.218807 170.845074 L 34.201769 171.799260 L 36.530707 172.753446 L 41.015638 173.707632 L 45.485394 174.661818 L 47.775711 175.616003 L 46.714208 176.570189 L 42.653951 177.524375 L 37.312768 178.478561 L 32.991434 179.432747 L 31.526639 180.386932 L 33.454963 181.341118 L 33.002121 181.341118 L 30.766216 180.343504 L 32.236447 179.345890 L 36.684107 178.348276 L 41.904756 177.350662 L 45.310835 176.353048 L 45.214119 175.355434 L 41.662568 174.357820 L 36.416477 173.360206 L 32.076022 172.362592 L 30.792510 171.364978 L 33.202101 170.367364 L 38.110505 169.369750 L 43.084915 168.372136 L 45.659812 167.374522 L 44.558970 166.376908 L 40.328013 165.379294 L 35.063949 164.381680 L 31.375917 163.384066 L 31.091828 162.386452 L 34.352489 161.388838 L 39.541783 160.391224 L 44.087684 159.393610 L 45.737058 158.395996 L 43.672407 157.398382 L 38.917058 156.400768 L 33.827955 155.403154 L 30.927466 154.405540 L 31.653204 153.407926 L 35.645457 152.410312 L 40.925496 151.412698 L 44.876317 150.415084 L 45.539732 149.417470 L 42.586926 148.419856 L 37.481430 147.422242 L 32.753736 146.424628 L 30.747082 145.427014 L 32.456057 144.429400 L 37.033615 143.431786 L 42.210930 142.434172 L 45.421914 141.436558 L 45.075072 140.438944 L 41.342300 139.441331 L 36.073732 138.443717 L 31.880678 137.446103 L 30.841387 136.448489 L 33.470975 135.450875 L 38.466110 134.453261 L 43.351010 133.455647 L 45.704494 132.458033 L 44.360094 131.460419 L 39.984149 130.462805 L 34.745557 129.465191 L 31.240772 128.467577 L 31.206926 127.469963 L 34.660783 126.472349 L 39.890470 125.474735 L 44.303940 124.477121 L 45.713698 123.479507 L 43.421005 122.481893 L 38.562219 121.484279 L 33.545546 120.486665 L 30.857467 119.489051 L 31.830301 118.491437 L 35.981868 117.493823 L 41.254481 116.496209 L 45.034822 115.498595 L 45.449188 114.500981 L 42.292208 113.503367 L 37.128613 112.505753 L 32.517688 111.508139 L 30.744802 110.510525 L 32.688670 109.512911 L 37.385829 108.515297 L 42.508176 107.517683 L 45.516861 106.520069 L 44.920659 105.522455 L 41.015070 104.524841 L 35.735865 103.527227 L 31.699637 102.529613 L 30.906907 101.531999 L 33.750584 100.534385 L 38.821224 99.536771 L 43.605609 98.539157 L 45.732401 97.541543 L 44.147473 96.543929 L 39.636383 95.546315 L 34.435010 94.548701 L 31.121371 93.551087 L 31.337844 92.553473 L 34.977132 91.555859 L 40.235454 90.558245 L 44.506576 89.560631 L 45.673544 88.563017 L 43.157968 87.565403 L 38.206663 86.567789 L 33.273710 85.570175 L 30.804077 84.572561 L 32.021819 83.574947 L 36.323370 82.577333 L 41.576711 81.579719 L 45.178059 80.582105 L 45.342445 79.584491 L 41.988394 78.586877 L 36.778295 77.589263 L 32.294513 76.591649 L 30.759381 75.594035 L 32.933773 74.596421 L 37.739971 73.598807 L 42.795828 72.601193 L 45.595457 71.603579 L 44.751234 70.605965 L 40.681601 69.608351 L 35.403635 68.610737 L 31.533311 67.613123 L 30.988919 66.615509 L 34.040295 65.617895 L 39.175036 64.620281 L 43.848159 63.622667 L 45.743473 62.625053 L 43.921583 61.627439 L 39.285479 60.629825 L 34.133025 59.632211 L 31.017980 58.634597 L 31.484287 57.636983 L 35.300824 56.639369 L 40.575961 55.641755 L 44.695124 54.644141 L 45.616688 53.646527 L 42.883888 52.648913 L 37.851183 51.651299 L 33.013038 50.653685 L 30.767412 49.656071 L 32.227330 48.658457 L 36.669196 47.660843 L 41.891441 46.663229 L 45.305706 45.665615 L 45.219743 44.668001 L 41.676158 43.670387 L 36.431297 42.672773 L 32.084727 41.675159 L 30.779234 40.976017 L 31.330343 40.276875 L 33.599823 39.577732 L 37.329347 38.823765 L 41.321662 38.069798 L 44.428128 37.315830 L 45.755521 36.561863 L 44.352232 35.599996 L 40.152687 34.638130 L 35.298467 33.711002 L 31.772079 32.783875 L 31.094913 31.891486 L 33.377405 30.999097 L 37.560919 30.141447 L 42.142381 29.283797 L 45.380536 28.460886 L 46.371086 27.637975 L 44.939926 26.849803 L 41.644544 26.061631 L 37.754835 25.308197 L 34.294803 24.554764 L 32.367392 23.836069 L 32.316707 23.117374 L 34.085284 22.433418 L 37.218344 21.749462 L 40.834868 21.100245 L 44.301141 20.451028 L 46.824750 19.836550 L 48.125680 19.222072 L 48.061116 18.642332 L 46.760398 18.062593 L 44.666924 17.517592 L 42.060885 16.972591 L 39.518622 16.453645 L 37.422931 15.952495 L 36.027496 15.478680 L 35.364391 15.004866 L 35.559829 14.567498 L 36.492109 14.130131 L 38.008960 13.729211 L 40.003401 13.328291 L 42.187574 12.963818 L 44.534950 12.599345 L 46.753011 12.271320 L 48.897500 11.943294 L 50.749245 11.651716 L 52.407981 11.360138 L 53.754331 11.105007 L 54.885173 10.849876 L 55.776503 10.622081 L 56.494599 10.321960 L 56.928572 10.050884 L 57.082971 9.779807 L 57.132601 9.547456 L 57.005397 9.315104 L 56.928246 9.121478 L 56.757824 8.927852 L 56.743679 8.772951 L 56.689623 8.618050 L 56.851472 8.501874 L 57.000553 8.385699 L 57.392104 8.308248 L 57.781167 8.230798 L 58.420967 8.192072 L 59.060577 8.153347 L 59.889142 8.143666 L 55.404943 7.250708 L 52.753323 6.357749 L 52.996387 5.464791 L 56.036776 4.571833 L 60.656664 3.678875 L 65.005597 2.785916 L 67.341513 1.892958 L 66.728818 1.000000 L 65.734341 1.000000 L 64.739865 1.000000 L 63.745388 1.000000 L 62.750911 1.000000 L 61.756434 1.000000 L 60.761957 1.000000 L 59.767480 1.000000 L 58.773004 1.000000 L 57.778527 1.000000 L 56.784050 1.000000 L 55.789573 1.000000 L 54.795096 1.000000 L 53.800619 1.000000 L 52.806142 1.000000 L 51.811666 1.000000 L 50.817189 1.000000 L 49.822712 1.000000 L 48.828235 1.000000 L 47.833758 1.000000 L 46.839281 1.000000 L 45.844804 1.000000 L 44.850328 1.000000 L 43.855851 1.000000 L 42.861374 1.000000 L 41.866897 1.000000 L 40.872420 1.000000 L 39.877943 1.000000 L 38.883466 1.000000 L 37.888990 1.000000 L 36.894513 1.000000 L 35.900036 1.000000 L 34.905559 1.000000 L 33.911082 1.000000 L 32.916605 1.000000 L 31.922128 1.000000 L 30.927652 1.000000 L 29.933175 1.000000 L 28.938698 1.000000 L 27.944221 1.000000 L 26.949744 1.000000 L 25.955267 1.000000 L 24.960790 1.000000 L 23.966314 1.000000 L 22.971837 1.000000 L 21.977360 1.000000 L 20.982883 1.000000 L 19.988406 1.000000 L 18.993929 1.000000 L 17.999453 1.000000 L 17.004976 1.000000 L 16.010499 1.000000 L 16.623194 1.892958 L 14.287277 2.785916 L 9.938344 3.678875 L 5.318457 4.571833 L 2.278067 5.464791 L 2.035003 6.357749 L 4.686624 7.250708 L 9.170822 8.143666 Z" transform="scale(1.000000,1.000000) translate(187.000000,-1.000000)" fill="url(#54722720145185152)" opacity="1.000000"></path>
        <path d="M 9.094557 8.143666 L 9.682458 8.130425 L 10.334227 8.132134 L 10.986053 8.133842 L 11.723065 8.155483 L 12.460140 8.177123 L 13.282320 8.218696 L 14.104274 8.260269 L 15.010351 8.321774 L 15.914658 8.383278 L 16.899493 8.464715 L 17.878699 8.546152 L 18.929681 8.647521 L 19.966935 8.748890 L 21.059504 8.870191 L 22.123983 8.991492 L 23.216382 9.132725 L 24.258680 9.273959 L 26.237831 9.596289 L 27.886232 9.958484 L 28.999435 10.360543 L 29.373665 10.802466 L 28.855854 11.284254 L 27.410740 11.805905 L 25.191947 12.367421 L 23.905499 12.663128 L 22.516538 12.975635 L 19.895626 13.671550 L 18.507711 14.462000 L 19.641395 15.346986 L 21.425770 15.836746 L 23.839520 16.326506 L 26.848112 16.863534 L 29.864419 17.400562 L 32.632869 17.984857 L 34.458561 18.569153 L 35.011225 19.200716 L 34.043672 19.832279 L 31.546930 20.511109 L 28.177720 21.189940 L 24.514924 21.916038 L 21.807036 22.642136 L 20.791131 23.415501 L 22.048185 24.188867 L 25.442721 25.009500 L 29.867235 25.830133 L 34.009179 26.698034 L 36.107319 27.565935 L 35.252116 28.481103 L 31.658882 29.396272 L 26.595527 30.358707 L 22.558934 31.321143 L 21.389225 31.994279 L 21.945265 32.667414 L 24.101112 33.340550 L 26.565664 33.863127 L 29.355326 34.385704 L 34.158997 35.380194 L 36.363862 36.374684 L 34.883655 37.369174 L 30.447650 38.363664 L 25.241325 39.358154 L 21.829751 40.352644 L 21.893703 41.347134 L 25.401672 42.341624 L 30.625394 43.336114 L 34.991226 44.330604 L 36.348261 45.325094 L 34.027911 46.319583 L 29.173339 47.314073 L 24.176311 48.308563 L 21.498706 49.303053 L 22.459736 50.297543 L 26.585931 51.292033 L 31.844383 52.286523 L 35.644419 53.281013 L 36.113825 54.275503 L 33.021338 55.269993 L 27.890577 56.264483 L 23.249304 57.258973 L 21.384198 58.253463 L 23.214139 59.247953 L 27.837543 60.242443 L 32.976595 61.236933 L 36.099399 62.231423 L 35.667423 63.225912 L 31.893492 64.220402 L 26.636931 65.214892 L 22.487521 66.209382 L 21.489577 67.203872 L 24.134761 68.198362 L 29.119855 69.192852 L 33.988823 70.187342 L 36.342842 71.181832 L 35.022143 72.176322 L 30.677403 73.170812 L 25.449171 74.165302 L 21.913270 75.159792 L 21.811755 76.154282 L 25.194638 77.148772 L 30.395256 78.143262 L 34.851388 79.137751 L 36.367606 80.132241 L 34.196906 81.126731 L 29.408739 82.121221 L 24.362120 83.115711 L 21.543396 84.110201 L 22.341286 85.104691 L 26.362687 86.099181 L 31.626353 87.093671 L 35.539002 88.088161 L 36.172965 89.082651 L 33.215906 90.077141 L 28.124694 91.071631 L 23.407649 92.066121 L 21.388744 93.060611 L 23.062646 94.055101 L 27.604662 95.049591 L 32.777052 96.044080 L 36.031503 97.038570 L 35.764626 98.033060 L 32.107903 99.027550 L 26.862916 100.022040 L 22.613742 101.016530 L 21.453848 102.011020 L 23.954684 103.005510 L 28.884151 104.000000 L 33.813617 104.994490 L 36.314453 105.988980 L 35.154559 106.983470 L 30.905385 107.977960 L 25.660398 108.972450 L 22.003676 109.966940 L 21.736798 110.961430 L 24.991249 111.955920 L 30.163639 112.950409 L 34.705655 113.944899 L 36.379557 114.939389 L 34.360652 115.933879 L 29.643607 116.928369 L 24.552395 117.922859 L 21.595336 118.917349 L 22.229299 119.911839 L 26.141948 120.906329 L 31.405614 121.900819 L 35.427015 122.895309 L 36.224905 123.889799 L 33.406181 124.884289 L 28.359562 125.878779 L 23.571395 126.873269 L 21.400695 127.867759 L 22.916913 128.862249 L 27.373045 129.856738 L 32.573663 130.851228 L 35.956547 131.845718 L 35.855031 132.840208 L 32.319130 133.834698 L 27.090898 134.829188 L 22.746158 135.823678 L 21.425459 136.818168 L 23.779478 137.812658 L 28.648446 138.807148 L 33.633540 139.801638 L 36.278725 140.796128 L 35.280780 141.790618 L 31.131370 142.785108 L 25.874809 143.779598 L 22.100878 144.774088 L 21.668902 145.768577 L 24.791706 146.763067 L 29.930758 147.757557 L 34.554162 148.752047 L 36.384103 149.746537 L 34.518997 150.741027 L 29.877724 151.735517 L 24.746963 152.730007 L 21.654476 153.724497 L 22.123882 154.718987 L 25.923918 155.713477 L 31.182370 156.707967 L 35.308565 157.702457 L 36.269595 158.696947 L 33.591990 159.691437 L 28.594962 160.685927 L 23.740390 161.680417 L 21.420040 162.674906 L 22.777075 163.669396 L 27.142907 164.663886 L 32.366629 165.658376 L 35.874598 166.652866 L 35.938550 167.647356 L 32.526976 168.641846 L 27.320651 169.636336 L 22.884646 170.630826 L 21.404439 171.625316 L 23.609304 172.619806 L 28.412975 173.614296 L 32.147057 174.326726 L 35.037231 175.039156 L 36.335833 175.751587 L 35.592634 176.506622 L 32.898230 177.261657 L 29.025724 178.016692 L 25.088881 178.771728 L 21.752945 179.716509 L 21.533726 180.661291 L 24.269777 181.556527 L 28.756206 182.451763 L 32.931881 183.297454 L 35.499129 184.143145 L 35.557457 184.939290 L 33.285535 185.735435 L 29.627262 186.482035 L 25.530683 187.228634 L 22.282844 187.925689 L 20.408176 188.622743 L 20.255486 189.270251 L 21.665647 189.917760 L 24.044482 190.515723 L 27.009057 191.113686 L 29.723928 191.662104 L 32.002826 192.210521 L 33.342585 192.709394 L 33.809272 193.208266 L 32.182540 194.106919 L 28.473972 194.906481 L 24.284506 195.606952 L 22.371474 195.920028 L 19.328422 196.430860 L 16.999963 196.888729 L 15.359232 197.346597 L 14.388171 197.733850 L 13.997448 198.121102 L 13.855021 198.437738 L 14.042473 198.754373 L 14.060758 198.918386 L 14.143651 199.082399 L 14.280965 199.246412 L 14.160433 199.363347 L 14.057847 199.480282 L 13.968916 199.597217 L 13.575956 199.667074 L 13.185357 199.736931 L 12.796164 199.806789 L 12.092729 199.829568 L 11.389250 199.852348 L 10.685753 199.875127 L 9.981119 199.865731 L 9.276478 199.856334 L 13.760677 200.749292 L 16.412297 201.642251 L 16.169233 202.535209 L 13.128844 203.428167 L 8.508956 204.321125 L 4.160023 205.214084 L 1.824107 206.107042 L 2.436802 207.000000 L 3.431437 207.000000 L 4.426072 207.000000 L 5.420708 207.000000 L 6.415343 207.000000 L 7.409979 207.000000 L 8.404614 207.000000 L 9.399249 207.000000 L 10.393885 207.000000 L 11.388520 207.000000 L 12.383156 207.000000 L 13.377791 207.000000 L 14.372426 207.000000 L 15.367062 207.000000 L 16.361697 207.000000 L 17.356333 207.000000 L 18.350968 207.000000 L 19.345604 207.000000 L 20.340239 207.000000 L 21.334874 207.000000 L 22.329510 207.000000 L 23.324145 207.000000 L 24.318781 207.000000 L 25.313416 207.000000 L 26.308051 207.000000 L 27.302687 207.000000 L 28.297322 207.000000 L 29.291958 207.000000 L 30.286593 207.000000 L 31.281228 207.000000 L 32.275864 207.000000 L 33.270499 207.000000 L 34.265135 207.000000 L 35.259770 207.000000 L 36.254406 207.000000 L 37.249041 207.000000 L 38.243676 207.000000 L 39.238312 207.000000 L 40.232947 207.000000 L 41.227583 207.000000 L 42.222218 207.000000 L 43.216853 207.000000 L 44.211489 207.000000 L 45.206124 207.000000 L 46.200760 207.000000 L 47.195395 207.000000 L 48.190030 207.000000 L 49.184666 207.000000 L 50.179301 207.000000 L 51.173937 207.000000 L 52.168572 207.000000 L 53.163208 207.000000 L 54.157843 207.000000 L 55.152478 207.000000 L 56.147114 207.000000 L 57.141749 207.000000 L 58.136385 207.000000 L 59.131020 207.000000 L 60.125655 207.000000 L 61.120291 207.000000 L 62.114926 207.000000 L 63.109562 207.000000 L 64.104197 207.000000 L 65.098832 207.000000 L 66.093468 207.000000 L 67.088103 207.000000 L 68.082739 207.000000 L 69.077374 207.000000 L 70.072010 207.000000 L 71.066645 207.000000 L 72.061280 207.000000 L 73.055916 207.000000 L 74.050551 207.000000 L 75.045187 207.000000 L 76.039822 207.000000 L 77.034457 207.000000 L 78.029093 207.000000 L 79.023728 207.000000 L 80.018364 207.000000 L 81.012999 207.000000 L 82.007634 207.000000 L 83.002270 207.000000 L 83.996905 207.000000 L 84.991541 207.000000 L 85.986176 207.000000 L 86.980812 207.000000 L 87.975447 207.000000 L 88.970082 207.000000 L 89.964718 207.000000 L 90.959353 207.000000 L 91.953989 207.000000 L 92.948624 207.000000 L 93.943259 207.000000 L 94.937895 207.000000 L 95.932530 207.000000 L 96.927166 207.000000 L 97.921801 207.000000 L 98.916436 207.000000 L 99.911072 207.000000 L 100.905707 207.000000 L 101.900343 207.000000 L 102.894978 207.000000 L 103.889614 207.000000 L 104.884249 207.000000 L 105.878884 207.000000 L 106.873520 207.000000 L 107.868155 207.000000 L 108.862791 207.000000 L 109.857426 207.000000 L 110.852061 207.000000 L 111.846697 207.000000 L 112.841332 207.000000 L 113.835968 207.000000 L 114.830603 207.000000 L 115.825238 207.000000 L 116.819874 207.000000 L 117.814509 207.000000 L 118.809145 207.000000 L 119.803780 207.000000 L 120.798416 207.000000 L 121.793051 207.000000 L 122.787686 207.000000 L 123.782322 207.000000 L 124.776957 207.000000 L 125.771593 207.000000 L 126.766228 207.000000 L 127.760863 207.000000 L 128.755499 207.000000 L 129.750134 207.000000 L 130.744770 207.000000 L 131.739405 207.000000 L 132.734040 207.000000 L 133.728676 207.000000 L 134.723311 207.000000 L 135.717947 207.000000 L 136.712582 207.000000 L 137.707218 207.000000 L 138.701853 207.000000 L 139.696488 207.000000 L 140.691124 207.000000 L 141.685759 207.000000 L 141.185754 206.014070 L 144.198398 205.028141 L 149.263797 204.042211 L 153.927354 203.056281 L 155.929068 202.070352 L 154.298987 201.084422 L 149.827029 200.098492 L 144.680255 199.112563 L 141.352734 198.126633 L 141.456945 197.140703 L 144.942388 196.154773 L 150.120057 195.168844 L 154.480912 194.182914 L 155.911728 193.196984 L 153.719137 192.211055 L 148.965628 191.225125 L 143.954749 190.239195 L 141.114695 189.253266 L 141.821723 188.267336 L 145.733217 187.281406 L 150.953737 186.295477 L 154.953424 185.309547 L 155.794103 184.323617 L 153.068389 183.337688 L 148.097104 182.351758 L 143.289328 181.365828 L 140.974832 180.379899 L 142.275195 179.393969 L 146.560276 178.408039 L 151.753598 177.422109 L 155.338483 176.436180 L 155.577764 175.450250 L 152.355487 174.464320 L 147.233132 173.478391 L 142.692917 172.492461 L 140.935024 171.506531 L 142.811280 170.520602 L 147.412473 169.534672 L 152.508941 168.548742 L 155.630941 167.562813 L 155.265614 166.576883 L 151.589994 165.590953 L 146.385246 164.605024 L 142.173515 163.619094 L 140.995802 162.633164 L 143.422786 161.647235 L 148.278379 160.661305 L 153.209613 159.675375 L 155.826875 158.689445 L 154.861841 157.703516 L 150.782178 156.717586 L 145.564845 155.731656 L 141.738089 154.745727 L 141.156353 153.759797 L 144.101513 152.773867 L 149.146378 151.787938 L 153.846262 150.802008 L 155.923657 149.816078 L 154.371859 148.830149 L 153.447307 148.830149 L 152.522754 148.830149 L 151.598201 148.830149 L 150.673649 148.830149 L 149.749096 148.830149 L 148.824543 148.830149 L 150.261565 149.539945 L 149.796311 150.249742 L 146.557390 151.174211 L 141.673577 152.098681 L 137.203068 153.023151 L 135.024515 153.918388 L 135.839637 154.813624 L 139.280452 155.708860 L 143.746764 156.574862 L 147.607735 157.440865 L 149.360421 158.306867 L 148.353385 159.143636 L 145.017857 159.980405 L 140.482034 160.817173 L 136.395100 161.624708 L 133.930214 162.432243 L 133.846335 163.239778 L 135.974234 164.018079 L 139.584751 164.796381 L 143.513564 165.574682 L 146.388490 166.323749 L 147.510431 167.072817 L 146.501430 167.821884 L 143.702382 168.541718 L 139.821439 169.261551 L 135.821441 169.981385 L 132.765171 170.671985 L 131.198269 171.362585 L 131.441265 172.053185 L 133.232914 172.714551 L 136.117882 173.375917 L 139.392282 174.037284 L 142.123946 174.669416 L 143.871109 175.301548 L 144.217681 175.933681 L 143.086014 176.536580 L 140.712469 177.139478 L 137.480779 177.742377 L 132.417839 178.602874 L 128.426065 179.463372 L 126.764828 180.280018 L 127.629271 181.096665 L 130.296985 181.869461 L 133.833518 182.642257 L 136.839592 183.382166 L 138.431101 184.099721 L 138.175781 184.783108 L 136.152320 185.466494 L 132.863071 186.104321 L 128.853322 186.742149 L 124.992164 187.334417 L 121.664036 187.926685 L 119.368504 188.473394 L 118.156826 189.020104 L 117.947619 189.521254 L 118.625972 190.022404 L 119.731087 190.477995 L 121.198100 190.933585 L 122.060925 191.206940 L 122.906949 191.480295 L 123.679750 191.753649 L 124.164233 191.996631 L 124.513880 192.239613 L 124.698378 192.482595 L 124.594620 192.695204 L 124.331638 192.907813 L 123.899862 193.120422 L 123.265707 193.302658 L 122.502204 193.484895 L 121.610448 193.667131 L 120.625413 193.818995 L 119.556637 193.970858 L 118.408135 194.122722 L 117.259807 194.244213 L 116.066683 194.365704 L 114.832013 194.487195 L 113.661606 194.578313 L 112.471542 194.669431 L 111.263601 194.760549 L 110.156746 194.821295 L 109.043280 194.882040 L 107.923768 194.942786 L 106.923235 194.973158 L 105.921407 195.003531 L 104.918360 195.033904 L 104.236649 195.039599 L 103.554898 195.045294 L 102.558645 195.045294 L 101.562392 195.045294 L 100.566140 195.045294 L 99.569887 195.045294 L 98.573634 195.045294 L 97.577381 195.045294 L 96.581129 195.045294 L 95.584876 195.045294 L 94.588623 195.045294 L 93.592371 195.045294 L 92.596118 195.045294 L 91.599865 195.045294 L 90.603613 195.045294 L 89.607360 195.045294 L 88.611107 195.045294 L 87.490742 195.071490 L 86.587347 195.066934 L 85.683983 195.062378 L 85.068785 195.016819 L 84.450970 194.971260 L 84.110803 194.884698 L 83.758414 194.798136 L 83.656573 194.670570 L 83.519652 194.543005 L 83.577654 194.374436 L 83.556320 194.205867 L 83.633547 193.996296 L 83.560625 193.786724 L 83.444770 193.536149 L 83.088066 193.285574 L 82.511534 193.004246 L 81.411529 192.627245 L 79.507764 192.157986 L 77.028114 191.688727 L 73.599450 191.096459 L 70.200302 190.504191 L 67.034721 189.788913 L 65.473387 189.073635 L 66.208380 188.235348 L 69.257815 187.397061 L 74.171578 186.435764 L 78.257631 185.474467 L 79.606952 184.751596 L 78.976979 184.028725 L 76.516899 183.305854 L 72.454679 182.500977 L 68.238735 181.696099 L 65.238830 180.891222 L 64.410624 180.241436 L 65.199353 179.591649 L 69.024515 178.604259 L 74.249065 177.616869 L 78.334073 176.629480 L 79.294373 175.642090 L 76.663273 174.654700 L 71.719418 173.667310 L 66.865338 172.679920 L 64.459940 171.692530 L 65.672176 170.705141 L 69.912930 169.717751 L 75.121347 168.730361 L 78.766325 167.742971 L 79.076528 166.755581 L 75.901205 165.768191 L 70.783461 164.780802 L 66.210333 163.793412 L 64.404195 162.806022 L 66.242784 161.818632 L 70.832593 160.831242 L 75.943142 159.843853 L 79.090898 158.856463 L 78.746131 157.869073 L 75.076413 156.881683 L 69.865091 155.894293 L 65.644664 154.906903 L 64.466149 153.919514 L 66.902236 152.932124 L 71.769072 151.944734 L 76.701576 150.957344 L 79.302677 149.969954 L 78.308365 148.982564 L 74.201824 147.995175 L 68.978706 147.007785 L 65.177244 146.020395 L 64.644828 145.033005 L 67.640194 144.045615 L 72.707686 143.058226 L 77.384700 142.070836 L 79.398353 141.083446 L 77.770088 140.096056 L 73.291191 139.108666 L 68.138232 138.121276 L 64.815388 137.133887 L 64.937433 136.146497 L 68.445056 135.159107 L 73.633688 134.171717 L 77.981818 133.184327 L 79.376421 132.196938 L 77.139765 131.209548 L 72.358778 130.222158 L 67.356870 129.234768 L 64.564774 128.247378 L 65.339362 127.259988 L 69.304214 126.272599 L 74.532542 125.285209 L 78.483566 124.297819 L 79.237226 123.310429 L 76.427269 122.323039 L 71.419237 121.335649 L 66.646857 120.348260 L 64.429340 119.360870 L 65.844320 118.373480 L 70.204167 117.386090 L 75.390149 116.398700 L 78.882058 115.411311 L 78.982952 114.423921 L 79.575263 114.429616 L 80.167455 114.435311 L 80.974666 114.465683 L 81.778447 114.496056 L 82.578774 114.526429 L 83.385946 114.587174 L 84.179072 114.647920 L 84.958028 114.708665 L 85.708169 114.799783 L 86.426008 114.890901 L 87.111474 114.982020 L 87.714201 115.103511 L 88.260070 115.225001 L 88.750065 115.346492 L 89.229823 115.574288 L 89.531669 115.802083 L 89.449821 116.075438 L 89.177168 116.348792 L 88.484672 116.667706 L 87.679452 116.986620 L 86.567983 117.351093 L 85.560591 117.715565 L 84.563057 118.125597 L 84.014936 118.535629 L 83.944089 118.991220 L 84.661949 119.446811 L 86.248894 119.947961 L 88.683707 120.449111 L 91.938469 120.995820 L 95.544036 121.542529 L 99.228606 122.134797 L 102.253447 122.727066 L 104.196580 123.364893 L 104.603722 124.002720 L 103.304793 124.686107 L 100.737752 125.369493 L 97.436515 126.087049 L 94.530367 126.808876 L 92.892257 127.564018 L 93.336111 128.319160 L 96.026382 129.118722 L 100.343169 129.918284 L 105.234128 130.762266 L 108.953082 131.606248 L 110.270296 132.494651 L 108.637491 133.383053 L 106.103061 134.004935 L 103.055853 134.626816 L 100.150098 135.248698 L 97.908207 135.900193 L 97.045961 136.551688 L 97.802850 137.203183 L 100.171520 137.884292 L 103.678494 138.565400 L 107.547805 139.246508 L 111.013159 139.957230 L 113.098588 140.667952 L 113.321474 141.378674 L 111.548069 142.119009 L 108.299640 142.859345 L 104.533194 143.599680 L 101.223862 144.369629 L 99.590134 145.139577 L 100.174613 145.909526 L 102.965456 146.709088 L 107.157740 147.508650 L 111.445786 148.308212 L 114.544411 149.137388 L 115.283469 149.966563 L 113.453980 150.795739 L 109.563686 151.654528 L 105.143766 152.513317 L 101.880256 153.372106 L 101.028984 154.260508 L 103.131901 155.148910 L 107.395182 156.037313 L 112.292604 156.955328 L 115.699190 157.873344 L 116.211004 158.791360 L 114.463710 159.496529 L 111.329671 160.201699 L 112.254224 160.201699 L 113.178777 160.201699 L 114.103329 160.201699 L 115.027882 160.201699 L 115.952435 160.201699 L 116.876987 160.201699 L 121.018613 159.202614 L 121.962245 158.203530 L 119.238859 157.204446 L 114.202087 156.205362 L 109.355402 155.206278 L 107.107796 154.207194 L 108.576419 153.208110 L 113.031306 152.209025 L 118.258205 151.209941 L 121.659140 150.210857 L 121.543714 149.211773 L 117.969298 148.212689 L 112.712516 147.213605 L 108.386197 146.214521 L 107.140692 145.215436 L 109.595073 144.216352 L 114.529408 143.217268 L 119.491138 142.218184 L 122.014089 141.219100 L 120.844255 140.220016 L 116.563089 139.220932 L 111.298500 138.221848 L 107.667194 137.222763 L 107.474074 136.223679 L 110.815128 135.224595 L 116.029720 134.225511 L 120.525994 133.226427 L 122.069124 132.227343 L 119.892115 131.228259 L 115.077025 130.229174 L 110.017143 129.230090 L 107.227430 128.231006 L 108.094482 127.231922 L 112.187341 126.232838 L 117.471694 125.233754 L 121.321012 124.234670 L 121.822030 123.235586 L 118.725725 122.236501 L 113.571080 121.237417 L 108.920158 120.238333 L 107.084649 119.239249 L 108.976872 118.240165 L 113.656320 117.241081 L 118.797129 116.241997 L 121.844100 115.242912 L 121.282779 114.243828 L 117.392164 113.244744 L 112.106042 112.245660 L 108.051821 111.246576 L 107.244615 110.247492 L 110.085632 109.248408 L 115.162776 108.249324 L 119.952507 107.250239 L 122.074139 106.251155 L 120.473139 105.252071 L 115.945266 104.252987 L 110.741051 103.253903 L 107.447194 102.254819 L 107.700872 101.255735 L 111.375995 100.256650 L 116.645886 99.257566 L 120.891198 98.258482 L 122.001846 97.259398 L 119.425794 96.260314 L 114.443441 95.261230 L 109.531213 94.262146 L 107.130679 93.263061 L 108.435002 92.263977 L 112.795880 91.264893 L 118.045785 90.265809 L 121.575308 89.266725 L 121.630137 88.267641 L 118.183020 87.268557 L 112.947310 86.269473 L 108.525360 85.270388 L 107.115054 84.271304 L 109.417368 83.272220 L 114.287962 82.273136 L 119.305960 81.274052 L 121.977219 80.274968 L 120.974019 79.275884 L 116.794989 78.276799 L 111.517272 77.277715 L 107.764100 76.278631 L 107.400948 75.279547 L 110.608315 74.280463 L 115.792016 73.281379 L 120.375546 72.282295 L 122.080711 71.283211 L 120.059977 70.284126 L 115.317729 69.285042 L 110.211037 68.285958 L 107.278156 67.286874 L 107.976827 66.287790 L 111.959783 65.288706 L 117.247340 64.289622 L 121.211373 63.290537 L 121.881602 62.291453 L 118.924897 61.292369 L 113.810857 60.293285 L 109.081370 59.294201 L 107.087153 58.295117 L 106.162600 58.295117 L 105.238048 58.295117 L 104.313495 58.295117 L 103.388942 58.295117 L 102.464389 58.295117 L 101.539837 58.295117 L 102.557641 59.009398 L 105.243303 59.723679 L 110.018084 60.653844 L 114.285728 61.584009 L 116.160610 62.514174 L 114.865080 63.414725 L 111.010142 64.315276 L 106.124027 65.215828 L 102.231130 66.086766 L 100.638213 66.957704 L 101.907808 67.828642 L 105.340909 68.669967 L 109.681061 69.511291 L 113.330187 70.352616 L 114.902058 71.164327 L 113.993816 71.976038 L 110.856444 72.787749 L 106.625416 73.569847 L 102.501976 74.351945 L 99.710087 75.134043 L 99.018552 75.886527 L 100.458930 76.639011 L 103.562810 77.391496 L 107.208956 78.114367 L 110.494418 78.837238 L 112.491254 79.560109 L 112.622390 80.253366 L 110.939318 80.946624 L 107.798901 81.639881 L 104.056769 82.303525 L 100.418170 82.967170 L 97.646131 83.630814 L 96.304762 84.264844 L 96.497297 84.898875 L 98.130644 85.532906 L 102.102739 86.439532 L 106.375757 87.346158 L 108.900148 88.208364 L 108.830775 89.070570 L 106.178958 89.888355 L 101.796505 90.706141 L 97.198661 91.479507 L 93.476703 92.252872 L 91.601010 92.992923 L 91.655887 93.674601 L 93.174713 94.323818 L 95.727021 94.973035 L 98.373230 95.578971 L 100.725174 96.184907 L 102.073821 96.747562 L 102.364130 97.310217 L 101.467698 97.829590 L 99.567002 98.348964 L 96.986210 98.825056 L 93.918109 99.301149 L 90.828596 99.733960 L 87.786249 100.166772 L 85.153116 100.556302 L 82.879609 100.945832 L 81.123765 101.292081 L 79.799582 101.638330 L 78.872064 101.941298 L 78.299824 102.244266 L 77.913313 102.503953 L 77.757973 102.763640 L 77.590021 102.980046 L 77.544386 103.196451 L 77.405791 103.311868 L 77.291920 103.427284 L 77.198893 103.542701 L 76.944622 103.629263 L 76.698071 103.715825 L 76.457465 103.802387 L 76.038465 103.860096 L 75.620773 103.917804 L 75.203850 103.975512 L 74.603989 104.004366 L 74.004117 104.033220 L 73.404168 104.062074 L 72.851203 104.067484 L 72.298234 104.072895 L 67.289929 103.081087 L 64.543221 102.089279 L 65.404372 101.097472 L 69.451300 100.105664 L 74.700460 99.113856 L 78.579049 98.122049 L 79.186032 97.130241 L 76.223903 96.138433 L 71.144511 95.146625 L 66.437445 94.154818 L 64.409811 93.163010 L 66.055426 92.171202 L 70.567707 91.179395 L 75.735034 90.187587 L 79.024707 89.195779 L 78.824338 88.203972 L 75.232141 87.212164 L 70.008773 86.220356 L 65.714401 85.228549 L 64.453851 84.236741 L 66.844961 83.244933 L 71.715766 82.253126 L 76.678907 81.261318 L 79.301767 80.269510 L 78.298796 79.277703 L 74.161580 78.285895 L 68.917917 77.294087 L 65.137918 76.302280 L 64.674297 75.310472 L 67.754292 74.318664 L 72.868285 73.326857 L 77.509713 72.335049 L 79.403666 71.343241 L 77.621836 70.351434 L 73.037561 69.359626 L 67.897762 68.367818 L 64.721641 67.376011 L 65.065932 66.384203 L 68.761870 65.392395 L 73.997962 64.400588 L 78.207802 63.408780 L 79.327995 62.416972 L 76.809493 61.425165 L 71.886706 60.433357 L 66.972470 59.441549 L 64.475434 58.449742 L 65.619481 57.457934 L 69.843863 56.466126 L 75.078063 55.474319 L 78.756634 54.482511 L 79.076547 53.490703 L 75.881002 52.498896 L 70.736278 51.507088 L 66.163950 50.515280 L 64.405120 49.523473 L 66.321820 48.531665 L 70.974639 47.539857 L 76.083026 46.548049 L 79.143214 45.556242 L 78.655269 44.564434 L 74.858347 43.572626 L 69.613488 42.580819 L 65.491362 41.589011 L 64.512367 40.597203 L 67.156352 39.605396 L 72.127424 38.613588 L 76.794963 37.667952 L 79.271330 36.722316 L 78.616957 35.837331 L 75.318338 34.952345 L 70.678618 34.067360 L 66.528845 33.182375 L 64.601153 32.378257 L 65.083350 31.574139 L 67.829919 30.770021 L 71.954994 29.965903 L 76.873200 29.001568 L 79.605606 28.037234 L 78.922052 27.072900 L 75.746447 26.216389 L 71.353498 25.359878 L 67.410239 24.503367 L 65.573961 23.754679 L 65.804958 23.005992 L 68.080793 22.257304 L 71.265185 21.616439 L 74.883009 20.975575 L 78.214273 20.334710 L 81.082475 19.535148 L 81.671559 18.735586 L 80.388592 18.057325 L 79.261058 17.725740 L 76.591562 17.095886 L 73.985064 16.510451 L 71.982998 15.969437 L 70.864354 15.472843 L 70.678873 15.020669 L 71.319260 14.612915 L 72.598064 14.249581 L 73.408503 14.090124 L 74.308728 13.930668 L 75.257467 13.793421 L 76.264641 13.656174 L 77.273718 13.541137 L 78.317532 13.426101 L 79.329932 13.333274 L 80.360990 13.240447 L 81.338920 13.169831 L 82.325672 13.099214 L 83.246277 13.050808 L 84.170262 13.002401 L 85.021088 12.976204 L 85.872784 12.950008 L 86.648206 12.946022 L 87.423646 12.942035 L 88.141466 12.954706 L 88.906205 12.947493 L 89.671007 12.940279 L 90.435870 12.933066 L 91.232273 12.942178 L 92.028719 12.951289 L 92.825319 12.960401 L 93.622021 12.969513 L 94.418773 12.978625 L 95.055632 13.011427 L 95.693903 13.044230 L 96.333785 13.077032 L 96.975264 13.109835 L 97.618484 13.142638 L 98.258141 13.209552 L 98.906163 13.276467 L 99.563279 13.343382 L 100.119632 13.428806 L 100.693334 13.514229 L 101.204463 13.614459 L 101.743457 13.714689 L 102.240348 13.829726 L 102.779071 13.944762 L 103.302235 14.074606 L 103.884641 14.204449 L 104.483732 14.349099 L 105.161841 14.493749 L 105.893029 14.653206 L 106.723233 14.812663 L 107.643700 14.986927 L 108.679849 15.161190 L 109.838985 15.350260 L 111.122071 15.539331 L 112.549209 15.743208 L 114.094102 15.947085 L 115.772879 16.162067 L 117.762204 16.420614 L 120.034894 16.716748 L 122.345940 17.012883 L 124.876702 17.359132 L 127.247750 17.705381 L 129.529060 18.101745 L 131.338967 18.498109 L 132.611569 18.944588 L 133.115605 19.391067 L 132.719933 19.887661 L 131.540522 20.384256 L 129.550392 20.930965 L 127.314384 21.477674 L 125.056029 22.074498 L 123.580664 22.671322 L 123.260363 23.318261 L 124.539804 23.965200 L 127.502309 24.662255 L 131.611391 25.359309 L 134.752374 25.857421 L 137.707049 26.355534 L 140.157195 26.853647 L 141.898311 27.385170 L 142.591284 27.916692 L 142.202322 28.448215 L 140.712935 29.013148 L 138.461181 29.578081 L 135.890722 30.143014 L 133.343312 30.741356 L 131.545121 31.339699 L 130.909650 31.938042 L 131.691199 32.569795 L 133.923081 33.201547 L 137.242950 33.833300 L 141.244233 34.498463 L 145.002249 35.163626 L 147.771336 35.828788 L 148.882084 36.346454 L 148.964237 36.864119 L 147.243660 37.624196 L 144.036041 38.384274 L 140.402282 39.144352 L 137.217087 40.015441 L 136.411986 40.886531 L 138.468376 41.757621 L 142.775063 42.628711 L 147.861677 43.499801 L 151.736913 44.316220 L 153.570940 45.132639 L 152.881496 45.949058 L 150.036084 46.765477 L 146.128246 47.581896 L 142.933553 48.302441 L 140.974881 49.022987 L 140.857086 49.743532 L 142.699102 50.464078 L 145.503558 51.076088 L 148.955356 51.688099 L 152.444286 52.300109 L 156.301161 53.183956 L 157.599029 54.067802 L 156.064318 54.917479 L 152.500206 55.767157 L 148.463530 56.582664 L 145.320109 57.398172 L 144.201857 58.179511 L 145.398711 58.960849 L 148.428583 59.708018 L 152.524443 60.455187 L 156.399665 61.168187 L 159.298385 61.881187 L 160.484030 62.560017 L 159.909279 63.238848 L 157.862440 63.883509 L 154.844760 64.528170 L 151.633544 65.147205 L 154.114487 64.855626 L 156.610349 64.564048 L 159.051941 64.272470 L 161.372406 63.980892 L 163.510266 63.689314 L 165.412082 63.397735 L 166.364755 62.422771 L 163.794098 61.447806 L 158.853123 60.472841 L 153.819150 59.497877 L 151.013569 58.522912 L 151.700853 57.547948 L 155.488709 56.572983 L 160.514216 55.598018 L 164.327435 54.623054 L 165.053373 53.648089 L 162.281452 52.673125 L 157.260124 51.698160 L 152.304848 50.723195 L 149.699680 49.748231 L 150.614022 48.773266 L 154.547895 47.798301 L 159.569117 46.823337 L 163.229778 45.848372 L 163.727249 44.873408 L 160.759317 43.898443 L 155.667432 42.923478 L 150.800449 41.948514 L 148.400616 40.973549 L 149.539899 39.998585 L 153.611664 39.023620 L 158.618285 38.048655 L 162.118780 37.073691 L 162.386523 36.098726 L 159.228231 35.123762 L 154.075659 34.148797 L 149.306446 33.173832 L 147.116466 32.198868 L 148.478148 31.223903 L 152.679372 30.248938 L 157.661105 29.273974 L 160.994173 28.299009 L 161.031368 27.324045 L 157.688742 26.349080 L 152.485501 25.374115 L 147.823331 24.399151 L 145.847282 23.424186 L 147.428363 22.449222 L 151.750341 21.474257 L 156.696979 20.499292 L 159.855677 19.524328 L 159.661964 18.549363 L 156.141412 17.574398 L 150.897624 16.599434 L 146.351514 15.624469 L 144.593088 14.649505 L 146.390108 13.674540 L 150.823970 12.699575 L 155.725318 11.724611 L 158.703046 10.749646 L 158.278540 9.774682 L 154.586820 8.799717 L 149.312714 7.824752 L 144.891445 6.849788 L 143.353876 5.874823 L 145.362984 4.899858 L 149.899569 3.924894 L 154.745551 2.949929 L 157.536088 1.974965 L 156.881349 1.000000 L 155.881724 1.000000 L 154.882099 1.000000 L 153.882474 1.000000 L 152.882849 1.000000 L 151.883224 1.000000 L 150.883599 1.000000 L 149.883975 1.000000 L 148.884350 1.000000 L 147.884725 1.000000 L 146.885100 1.000000 L 145.885475 1.000000 L 144.885850 1.000000 L 143.886225 1.000000 L 142.886600 1.000000 L 141.886975 1.000000 L 140.887350 1.000000 L 139.887725 1.000000 L 138.888100 1.000000 L 137.888475 1.000000 L 136.888850 1.000000 L 135.889225 1.000000 L 134.889601 1.000000 L 133.889976 1.000000 L 132.890351 1.000000 L 131.890726 1.000000 L 130.891101 1.000000 L 129.891476 1.000000 L 128.891851 1.000000 L 127.892226 1.000000 L 126.892601 1.000000 L 125.892976 1.000000 L 124.893351 1.000000 L 123.893726 1.000000 L 122.894101 1.000000 L 121.894476 1.000000 L 120.894851 1.000000 L 119.895227 1.000000 L 118.895602 1.000000 L 117.895977 1.000000 L 116.896352 1.000000 L 115.896727 1.000000 L 114.897102 1.000000 L 113.897477 1.000000 L 112.897852 1.000000 L 111.898227 1.000000 L 110.898602 1.000000 L 109.898977 1.000000 L 108.899352 1.000000 L 107.899727 1.000000 L 106.900102 1.000000 L 105.900477 1.000000 L 104.900853 1.000000 L 103.901228 1.000000 L 102.901603 1.000000 L 101.901978 1.000000 L 100.902353 1.000000 L 99.902728 1.000000 L 98.903103 1.000000 L 97.903478 1.000000 L 96.903853 1.000000 L 95.904228 1.000000 L 94.904603 1.000000 L 93.904978 1.000000 L 92.905353 1.000000 L 91.905728 1.000000 L 90.906103 1.000000 L 89.906479 1.000000 L 88.906854 1.000000 L 87.907229 1.000000 L 86.907604 1.000000 L 85.907979 1.000000 L 84.908354 1.000000 L 83.908729 1.000000 L 82.909104 1.000000 L 81.909479 1.000000 L 80.909854 1.000000 L 79.910229 1.000000 L 78.910604 1.000000 L 77.910979 1.000000 L 76.911354 1.000000 L 75.911729 1.000000 L 74.912105 1.000000 L 73.912480 1.000000 L 72.912855 1.000000 L 71.913230 1.000000 L 70.913605 1.000000 L 69.913980 1.000000 L 68.914355 1.000000 L 67.914730 1.000000 L 66.915105 1.000000 L 65.915480 1.000000 L 64.915855 1.000000 L 63.916230 1.000000 L 62.916605 1.000000 L 61.916980 1.000000 L 60.917355 1.000000 L 59.917731 1.000000 L 58.918106 1.000000 L 57.918481 1.000000 L 56.918856 1.000000 L 55.919231 1.000000 L 54.919606 1.000000 L 53.919981 1.000000 L 52.920356 1.000000 L 51.920731 1.000000 L 50.921106 1.000000 L 49.921481 1.000000 L 48.921856 1.000000 L 47.922231 1.000000 L 46.922606 1.000000 L 45.922981 1.000000 L 44.923357 1.000000 L 43.923732 1.000000 L 42.924107 1.000000 L 41.924482 1.000000 L 40.924857 1.000000 L 39.925232 1.000000 L 38.925607 1.000000 L 37.925982 1.000000 L 36.926357 1.000000 L 35.926732 1.000000 L 34.927107 1.000000 L 33.927482 1.000000 L 32.927857 1.000000 L 31.928232 1.000000 L 30.928607 1.000000 L 29.928983 1.000000 L 28.929358 1.000000 L 27.929733 1.000000 L 26.930108 1.000000 L 25.930483 1.000000 L 24.930858 1.000000 L 23.931233 1.000000 L 22.931608 1.000000 L 21.931983 1.000000 L 20.932358 1.000000 L 19.932733 1.000000 L 18.933108 1.000000 L 17.933483 1.000000 L 16.933858 1.000000 L 15.934233 1.000000 L 16.546928 1.892958 L 14.211012 2.785916 L 9.862079 3.678875 L 5.242191 4.571833 L 2.201802 5.464791 L 1.958738 6.357749 L 4.610358 7.250708 L 9.094557 8.143666 Z" transform="scale(1.000000,1.000000) translate(14.000000,-1.000000)" fill="url(#105553171001376140604195528944)" opacity="1.000000"></path>
    </g>
</svg>