<?xml version="1.0" encoding="UTF-8" standalone="yes"?>
<!DOCTYPE svg PUBLIC "-//W3C//DTD SVG 1.1//EN" "http://www.w3.org/Graphics/SVG/1.1/DTD/svg11.dtd">

<svg width="429" height="206" viewBox="0 0 429 206" xmlns="http://www.w3.org/2000/svg" xmlns:xlink="http://www.w3.org/1999/xlink" version="1.1" baseProfile="full">
    <defs>
        <radialGradient id="54581984173543088" cx="114" cy="104" r="106" fx="114" fy="104" gradientUnits="userSpaceOnUse">
            <stop offset="0%" style="stop-color:#27a2ad;stop-opacity:1.000000"></stop>
            <stop offset="100%" style="stop-color:#0f4145;stop-opacity:1.000000"></stop>
        </radialGradient>
        <linearGradient id="105553170854000140604518004528" x1="50.077911%" x2="50.077911%" y1="100.000000%" y2="0.000000%">
            <stop offset="0%" style="stop-color:#176168;stop-opacity:1.000000"></stop>
            <stop offset="100%" style="stop-color:#27a2ad;stop-opacity:1.000000"></stop>
        </linearGradient>
    </defs>
    <g transform="scale(1.000000,-1.000000) translate(0,-206)">
        <path d="M 97.630100 130.344500 L 101.816300 131.302700 L 103.440600 132.260900 L 101.626600 133.219000 L 97.075800 134.177200 L 91.744900 135.135400 L 87.948700 136.093600 L 87.297900 137.051800 L 89.960200 138.010000 L 94.583000 138.968200 L 98.914600 139.926400 L 100.836600 140.884600 L 99.336300 141.842800 L 94.971100 142.801000 L 89.612600 143.759200 L 85.588300 144.717400 L 84.613500 145.675600 L 87.004500 146.633800 L 91.533300 147.591900 L 95.991200 148.550100 L 98.202000 149.508300 L 97.020400 150.466500 L 92.857500 151.424700 L 87.492300 152.382900 L 83.255300 153.341100 L 81.959300 154.299300 L 84.068000 155.257500 L 88.483000 156.215700 L 93.047700 157.173900 L 95.536900 158.132100 L 94.677700 159.090300 L 90.733200 160.048500 L 85.382100 161.006700 L 80.948600 161.964900 L 79.335600 162.923000 L 81.152200 163.881200 L 85.434000 164.839400 L 90.085600 165.797600 L 92.841800 166.755800 L 92.307300 167.714000 L 88.596200 168.672200 L 83.280200 169.630400 L 78.667200 170.588600 L 76.742600 171.546800 L 78.258500 172.505000 L 82.388300 173.463200 L 87.106400 174.421400 L 90.117300 175.379600 L 89.908400 176.337800 L 86.444800 177.295900 L 81.184600 178.254100 L 76.409900 179.212300 L 74.180500 180.170500 L 75.388200 181.128700 L 79.347900 182.086900 L 84.112100 183.045100 L 87.363800 184.003300 L 87.480400 184.961500 L 84.277400 185.919700 L 79.093200 186.877900 L 74.175400 187.836100 L 71.649200 188.794300 L 72.542600 189.752500 L 76.314800 190.710700 L 81.104100 191.668900 L 84.582300 192.627000 L 85.022700 193.585200 L 82.092200 194.543400 L 77.004300 195.501600 L 71.962400 196.459800 L 69.148500 197.418000 L 69.722800 198.376200 L 73.290700 199.334400 L 78.084300 200.292600 L 81.773500 201.250800 L 82.534700 202.209000 L 79.887600 203.167200 L 74.915800 204.125400 L 69.769300 205.083600 L 66.678200 206.041800 L 66.929800 207.000000 L 2.513000 207.000000 L 1.900300 206.107000 L 4.236200 205.214000 L 8.585200 204.321100 L 13.205100 203.428100 L 16.245400 202.535200 L 16.488500 201.642200 L 13.836900 200.749200 L 9.352700 199.856300 L 10.356900 199.840900 L 10.827400 199.799900 L 11.298100 199.758900 L 11.769200 199.717900 L 12.082800 199.594900 L 12.406700 199.471900 L 12.371300 199.287400 L 12.387200 199.102900 L 12.147600 198.856800 L 12.061300 198.610800 L 11.936700 198.303300 L 12.140800 197.995800 L 12.637100 197.626700 L 13.661300 197.257700 L 15.308000 196.827200 L 17.546100 196.396600 L 20.409900 195.920000 L 21.988000 195.671800 L 25.527000 195.108000 L 29.073800 194.454300 L 31.635700 193.710500 L 32.013400 192.876800 L 29.456800 191.953100 L 27.132500 191.446200 L 24.581900 190.939400 L 21.936100 190.387500 L 19.886000 189.835700 L 18.704600 189.238900 L 18.861400 188.642100 L 20.486300 188.000200 L 23.334600 187.358400 L 27.057800 186.671600 L 30.652700 185.984800 L 33.378000 185.253000 L 34.289900 184.521200 L 33.010000 183.744500 L 29.852900 182.967700 L 25.547900 182.145900 L 21.734500 181.324100 L 19.671100 180.457400 L 20.407800 179.590600 L 23.879400 178.678900 L 28.705300 177.767100 L 32.983900 176.821600 L 34.643300 175.825600 L 32.599400 174.829500 L 27.862200 173.833500 L 22.772600 172.837400 L 19.845500 171.841400 L 20.527500 170.845400 L 24.481400 169.849300 L 29.753500 168.853300 L 33.738600 167.857200 L 34.467500 166.861200 L 31.579900 165.865200 L 26.502900 164.869100 L 21.745100 163.873100 L 19.657600 162.877000 L 21.272000 161.881000 L 25.790500 160.885000 L 30.980300 159.888900 L 34.276800 158.892900 L 34.051200 157.896800 L 30.414900 156.900800 L 25.164800 155.904800 L 20.895100 154.908700 L 19.715800 153.912700 L 22.209600 152.916600 L 27.144100 151.920600 L 32.081100 150.924600 L 34.580900 149.928500 L 33.408200 148.932500 L 29.142600 147.936400 L 23.891800 146.940400 L 20.250600 145.944400 L 20.018100 144.948300 L 23.309400 143.952300 L 28.498000 142.956200 L 33.020000 141.960200 L 34.640800 140.964200 L 32.559600 139.968100 L 27.804800 138.972100 L 22.725900 137.976000 L 19.832600 136.980000 L 20.554800 135.984000 L 24.535400 134.987900 L 29.807500 133.991900 L 33.766000 132.995800 L 34.454600 131.999800 L 31.533300 131.003800 L 26.445400 130.007700 L 25.886200 129.890200 L 36.977600 129.890200 L 39.984100 130.462800 L 44.360000 131.460400 L 45.704400 132.458000 L 43.351000 133.455600 L 38.466100 134.453200 L 33.470900 135.450800 L 30.841300 136.448400 L 31.880600 137.446100 L 36.073700 138.443700 L 41.342300 139.441300 L 45.075000 140.438900 L 45.421900 141.436500 L 42.210900 142.434100 L 37.033600 143.431700 L 32.456000 144.429400 L 30.747000 145.427000 L 32.753700 146.424600 L 37.481400 147.422200 L 42.586900 148.419800 L 45.539700 149.417400 L 44.876300 150.415000 L 40.925400 151.412600 L 35.645400 152.410300 L 31.653200 153.407900 L 30.927400 154.405500 L 33.827900 155.403100 L 38.917000 156.400700 L 43.672400 157.398300 L 45.737000 158.395900 L 44.087600 159.393600 L 39.541700 160.391200 L 34.352400 161.388800 L 31.091800 162.386400 L 31.375900 163.384000 L 35.063900 164.381600 L 40.328000 165.379200 L 44.558900 166.376900 L 45.659800 167.374500 L 43.084900 168.372100 L 38.110500 169.369700 L 33.202100 170.367300 L 30.792500 171.364900 L 32.076000 172.362500 L 36.416400 173.360200 L 41.662500 174.357800 L 45.214100 175.355400 L 45.310800 176.353000 L 41.904700 177.350600 L 36.684100 178.348200 L 32.236400 179.345800 L 30.766200 180.343500 L 33.002100 181.341100 L 33.454900 181.341100 L 31.526600 180.386900 L 32.991400 179.432700 L 37.312700 178.478500 L 42.653900 177.524300 L 46.714200 176.570100 L 47.775700 175.616000 L 45.485300 174.661800 L 41.015600 173.707600 L 36.530700 172.753400 L 34.201700 171.799200 L 35.218800 170.845000 L 39.248900 169.890800 L 44.588100 168.936700 L 48.936400 167.982500 L 50.444900 167.028300 L 48.557000 166.074100 L 44.262200 165.119900 L 39.644900 164.165700 L 36.936600 163.211500 L 37.499900 162.257400 L 41.208500 161.303200 L 46.504600 160.349000 L 51.107900 159.394800 L 53.053400 158.440600 L 51.585800 157.486400 L 47.503000 156.532200 L 42.793100 155.578100 L 39.729800 154.623900 L 39.837200 153.669700 L 43.196400 152.715500 L 48.408700 151.761300 L 53.232000 150.807100 L 55.601100 149.852900 L 54.567900 148.898800 L 50.732600 147.944600 L 45.970800 146.990400 L 42.579600 146.036200 L 42.232500 145.082000 L 45.217400 144.127800 L 50.305900 143.173600 L 55.312300 142.219400 L 58.088100 141.265300 L 57.500000 140.311100 L 53.945700 139.356900 L 49.172900 138.402700 L 45.483700 137.448500 L 44.687200 136.494300 L 47.275900 135.540100 L 52.201700 134.586000 L 57.352800 133.631800 L 60.515000 132.677600 L 60.379100 131.723400 L 57.137100 130.769200 L 52.768200 129.890200 L 95.403300 129.890200 Z M 202.805300 130.851200 L 206.188200 131.845700 L 206.086700 132.840200 L 202.550800 133.834600 L 197.322500 134.829100 L 192.977800 135.823600 L 191.657100 136.818100 L 194.011100 137.812600 L 198.880100 138.807100 L 203.865200 139.801600 L 206.510400 140.796100 L 205.512400 141.790600 L 201.363000 142.785100 L 196.106500 143.779500 L 192.332500 144.774000 L 191.900600 145.768500 L 195.023400 146.763000 L 200.162400 147.757500 L 204.785800 148.752000 L 206.615800 149.746500 L 204.750600 150.741000 L 200.109400 151.735500 L 194.978600 152.730000 L 191.886100 153.724400 L 192.355500 154.718900 L 196.155600 155.713400 L 201.414000 156.707900 L 205.540200 157.702400 L 206.501200 158.696900 L 203.823600 159.691400 L 198.826600 160.685900 L 193.972000 161.680400 L 191.651700 162.674900 L 193.008700 163.669300 L 197.374600 164.663800 L 202.598300 165.658300 L 206.106200 166.652800 L 206.170200 167.647300 L 202.758600 168.641800 L 197.552300 169.636300 L 193.116300 170.630800 L 191.636100 171.625300 L 193.841000 172.619800 L 198.644600 173.614200 L 201.526600 174.154800 L 204.047200 174.695300 L 206.172000 175.391200 L 206.560700 176.087100 L 205.120300 176.783000 L 200.699200 177.777400 L 195.536100 178.771700 L 192.303700 179.716500 L 192.187900 180.661200 L 195.062000 181.556500 L 199.686400 182.451700 L 204.034500 183.297400 L 206.774200 184.143100 L 207.039500 184.939200 L 204.974500 185.735400 L 201.557700 186.482000 L 197.702600 187.228600 L 194.730700 187.925600 L 193.132000 188.622700 L 193.289800 189.270200 L 195.010400 189.917700 L 197.734100 190.515700 L 201.043700 191.113600 L 204.138000 191.662100 L 206.796300 192.210500 L 208.550000 192.709300 L 209.430600 193.208200 L 209.443400 193.657500 L 208.700700 194.106900 L 205.957900 194.906400 L 202.803300 195.606900 L 201.433500 195.920000 L 199.597800 196.430800 L 198.617200 196.888700 L 198.324400 197.346500 L 198.888800 197.733800 L 200.033500 198.121100 L 201.614000 198.437700 L 203.524300 198.754300 L 205.487000 199.000300 L 207.583700 199.246400 L 208.861800 199.363300 L 210.157800 199.480200 L 211.467500 199.597200 L 212.598200 199.667000 L 213.731200 199.736900 L 214.865600 199.806700 L 216.756000 199.852300 L 217.701100 199.875100 L 218.303200 199.865700 L 218.905400 199.856300 L 223.389600 200.749200 L 226.041200 201.642200 L 225.798100 202.535200 L 222.757800 203.428100 L 218.137900 204.321100 L 213.788900 205.214000 L 211.453000 206.107000 L 212.065700 207.000000 L 148.101800 207.000000 L 147.255400 206.048600 L 149.709600 205.097300 L 154.218000 204.146000 L 158.604500 203.194700 L 160.748600 202.243400 L 159.544000 201.292100 L 155.399800 200.340800 L 150.055200 199.389500 L 145.792400 198.438200 L 144.404300 197.486900 L 146.382900 196.535600 L 150.697100 195.584300 L 155.258700 194.633000 L 157.867800 193.681700 L 157.207900 192.730400 L 153.441600 191.779100 L 148.137000 190.827800 L 143.558300 189.876500 L 141.641300 188.925200 L 143.117400 187.973900 L 147.182600 187.022600 L 151.861700 186.071300 L 154.901400 185.120000 L 154.790500 184.168700 L 151.443100 183.217400 L 146.237800 182.266100 L 141.393900 181.314800 L 138.967200 180.363500 L 139.919600 179.412200 L 143.684300 178.460900 L 148.421800 177.509600 L 151.852600 176.558300 L 152.288400 175.607000 L 149.395900 174.655700 L 144.348000 173.704400 L 139.292800 172.753100 L 136.381500 171.801800 L 136.795400 170.850500 L 140.211400 169.899200 L 144.947700 168.947900 L 148.725400 167.996600 L 149.699100 167.045300 L 147.292400 166.094000 L 142.458100 165.142700 L 137.247700 164.191400 L 133.882800 163.240100 L 133.749800 162.288800 L 136.773000 161.337500 L 141.448500 160.386200 L 145.524700 159.434900 L 147.021400 158.483600 L 145.125300 157.532300 L 140.558300 156.581000 L 135.251000 155.629700 L 131.468700 154.678400 L 130.786800 153.727100 L 133.378000 152.775800 L 137.933600 151.824500 L 142.256600 150.873200 L 144.254900 149.921900 L 142.888300 148.970600 L 138.639200 148.019300 L 133.294200 147.068000 L 129.135800 146.116700 L 127.909500 145.165400 L 130.034300 144.214100 L 134.412700 143.262800 L 138.927600 142.311500 L 141.400300 141.360200 L 140.575800 140.408900 L 136.691300 139.457600 L 131.368500 138.506300 L 126.879600 137.555000 L 125.119900 136.603700 L 126.749600 135.652400 L 130.895300 134.701100 L 135.545200 133.749800 L 138.459300 132.798500 L 138.183300 131.847200 L 134.705800 130.895900 L 129.464500 129.944600 L 129.191800 129.890200 L 140.253900 129.890200 L 141.282000 130.086200 L 146.386500 131.035400 L 149.453900 131.984600 L 149.238500 132.933700 L 145.973800 133.882900 L 141.266900 134.832000 L 137.374800 135.781200 L 136.187300 136.730400 L 138.375800 137.679500 L 143.090600 138.628700 L 148.344100 139.577900 L 151.905700 140.527000 L 152.307300 141.476200 L 149.504300 142.425400 L 144.895900 143.374500 L 140.694600 144.323700 L 138.929600 145.272800 L 140.532400 146.222000 L 144.917300 147.171200 L 150.245100 148.120300 L 154.252000 149.069500 L 155.269100 150.018700 L 152.974600 150.967800 L 148.538500 151.917000 L 144.095800 152.866200 L 141.784300 153.815300 L 142.781900 154.764500 L 146.775400 155.713600 L 152.102100 156.662800 L 156.498500 157.612000 L 158.120300 158.561100 L 156.373300 159.510300 L 152.180900 160.459500 L 147.568200 161.408600 L 144.749600 162.357800 L 145.131500 163.307000 L 148.678100 164.256100 L 153.927900 165.205300 L 158.652300 166.154400 L 160.859000 167.103600 L 159.690400 168.052800 L 155.809200 169.001900 L 151.100500 169.951100 L 147.821800 170.900300 L 147.586800 171.849400 L 150.637600 172.798600 L 155.736200 173.747800 L 160.721900 174.696900 L 163.484900 175.646100 L 162.916800 176.595200 L 159.409900 177.544400 L 154.680500 178.493600 L 150.995700 179.442700 L 150.151900 180.391900 L 152.665600 181.341100 L 153.118400 181.341100 L 150.881700 180.341400 L 152.366300 179.341700 L 156.833500 178.342000 L 162.060300 177.342300 L 165.445800 176.342600 L 165.305200 175.342900 L 161.708500 174.343200 L 156.445500 173.343500 L 152.135200 172.343800 L 150.922500 171.344100 L 153.410900 170.344400 L 158.362000 169.344700 L 163.312200 168.345000 L 165.798000 167.345300 L 164.582600 166.345600 L 160.270600 165.345900 L 155.007900 164.346200 L 151.413300 163.346500 L 151.275500 162.346800 L 154.663100 161.347100 L 159.890400 160.347400 L 164.356100 159.347700 L 165.838000 158.348000 L 163.598700 157.348300 L 158.752500 156.348700 L 153.711000 155.349000 L 150.982900 154.349300 L 151.925900 153.349600 L 156.070600 152.349900 L 161.354600 151.350200 L 165.148400 150.350500 L 165.564200 149.350800 L 162.395000 148.351100 L 157.217900 147.351400 L 152.609200 146.351700 L 150.862200 145.352000 L 152.846300 144.352300 L 157.574100 143.352600 L 162.693100 142.352900 L 165.655800 141.353200 L 164.987900 140.353500 L 161.021900 139.353800 L 155.731200 138.354100 L 151.748700 137.354400 L 151.056100 136.354700 L 153.998100 135.355000 L 159.110700 134.355300 L 163.849700 133.355600 L 165.856900 132.355900 L 164.133500 131.356200 L 159.537100 130.356500 L 157.119900 129.890200 L 197.779900 129.890200 Z M 67.341500 1.892900 L 65.005500 2.785900 L 60.656600 3.678800 L 56.036700 4.571800 L 52.996300 5.464700 L 52.753300 6.357700 L 55.404900 7.250700 L 59.889100 8.143600 L 59.060500 8.153300 L 58.420900 8.192000 L 57.781100 8.230700 L 57.392100 8.308200 L 57.000500 8.385600 L 56.851400 8.501800 L 56.689600 8.618000 L 56.743600 8.772900 L 56.757800 8.927800 L 56.928200 9.121400 L 57.005300 9.315100 L 57.132600 9.547400 L 57.082900 9.779800 L 56.928500 10.050800 L 56.494500 10.321900 L 55.776500 10.622000 L 54.885100 10.849800 L 53.754300 11.105000 L 52.407900 11.360100 L 50.749200 11.651700 L 48.897500 11.943200 L 46.753000 12.271300 L 44.534900 12.599300 L 42.187500 12.963800 L 40.003400 13.328200 L 38.008900 13.729200 L 36.492100 14.130100 L 35.559800 14.567400 L 35.364300 15.004800 L 36.027400 15.478600 L 37.422900 15.952400 L 39.518600 16.453600 L 42.060800 16.972500 L 44.666900 17.517500 L 46.760300 18.062500 L 48.061100 18.642300 L 48.125600 19.222000 L 46.824700 19.836500 L 44.301100 20.451000 L 40.834800 21.100200 L 37.218300 21.749400 L 34.085200 22.433400 L 32.316700 23.117300 L 32.367300 23.836000 L 34.294800 24.554700 L 37.754800 25.308100 L 41.644500 26.061600 L 44.939900 26.849800 L 46.371000 27.637900 L 45.380500 28.460800 L 42.142300 29.283700 L 37.560900 30.141400 L 33.377400 30.999000 L 31.094900 31.891400 L 31.772000 32.783800 L 35.298400 33.711000 L 40.152600 34.638100 L 44.352200 35.599900 L 45.755500 36.561800 L 44.428100 37.315800 L 41.321600 38.069700 L 37.329300 38.823700 L 33.599800 39.577700 L 31.330300 40.276800 L 30.779200 40.976000 L 32.084700 41.675100 L 36.431200 42.672700 L 41.676100 43.670300 L 45.219700 44.668000 L 45.305700 45.665600 L 41.891400 46.663200 L 36.669100 47.660800 L 32.227300 48.658400 L 30.767400 49.656000 L 33.013000 50.653600 L 37.851100 51.651200 L 42.883800 52.648900 L 45.616600 53.646500 L 44.695100 54.644100 L 40.575900 55.641700 L 35.300800 56.639300 L 31.484200 57.636900 L 31.017900 58.634500 L 34.133000 59.632200 L 39.285400 60.629800 L 43.921500 61.627400 L 45.743400 62.625000 L 43.848100 63.622600 L 39.175000 64.620200 L 34.040200 65.617800 L 30.988900 66.615500 L 31.533300 67.613100 L 35.403600 68.610700 L 40.681600 69.608300 L 44.751200 70.605900 L 45.595400 71.603500 L 42.795800 72.601100 L 37.739900 73.598800 L 32.933700 74.596400 L 30.759300 75.594000 L 32.294500 76.591600 L 36.778200 77.589200 L 39.496600 78.109700 L 28.484200 78.109700 L 23.788300 77.217600 L 20.206100 76.221600 L 20.054700 75.225500 L 23.409000 74.229500 L 28.611300 73.233400 L 33.091100 72.237400 L 34.634600 71.241400 L 32.479100 70.245300 L 27.689800 69.249300 L 22.633200 68.253200 L 19.808100 67.257200 L 20.610500 66.261200 L 24.643900 65.265100 L 29.915100 64.269100 L 33.819500 63.273000 L 34.427700 62.277000 L 31.439100 61.281000 L 26.330600 60.284900 L 21.626500 59.288900 L 19.651300 58.292800 L 21.381100 57.296800 L 25.961000 56.300800 L 31.128000 55.304700 L 34.328800 54.308700 L 33.981700 53.312600 L 30.258300 52.316600 L 24.998400 51.320600 L 20.801200 50.324500 L 19.740800 49.328500 L 22.341100 48.332400 L 27.317200 47.336400 L 32.210200 46.340400 L 34.379200 45.559600 L 34.314800 44.778800 L 32.035500 43.998100 L 28.243800 43.217300 L 23.247400 42.260500 L 20.018800 41.303800 L 20.025200 40.347100 L 23.254000 39.390300 L 28.218500 38.433600 L 32.637900 37.476800 L 34.458600 36.511100 L 32.787500 35.545400 L 28.382000 34.579700 L 23.273000 33.614000 L 20.223500 32.825800 L 19.233800 32.037700 L 20.598400 31.249500 L 23.580300 30.517500 L 27.385400 29.785500 L 30.960300 29.053500 L 33.179300 28.377700 L 33.820300 27.701900 L 32.716600 27.026200 L 28.724900 26.075700 L 23.508200 25.124600 L 19.517500 24.218000 L 18.106900 23.311400 L 19.561300 22.464000 L 23.125800 21.616600 L 27.119300 20.828400 L 30.440100 20.040200 L 31.910200 19.311300 L 31.390400 18.582300 L 29.185000 17.912600 L 25.810500 17.242900 L 22.284000 16.632400 L 19.004500 16.021900 L 16.699000 15.470700 L 15.384900 14.919400 L 15.162400 14.412500 L 15.671500 13.991600 L 18.125900 13.193100 L 21.365700 12.452800 L 24.208500 11.770500 L 25.937600 11.146400 L 26.336500 10.580300 L 25.553500 10.072300 L 23.919700 9.622400 L 21.800700 9.230600 L 19.506500 8.896900 L 17.257800 8.621300 L 15.188800 8.403700 L 13.367000 8.244300 L 12.592900 8.193600 L 11.818700 8.142900 L 11.184300 8.121300 L 10.549900 8.099600 L 10.055200 8.107000 L 9.560600 8.114400 L 9.170800 8.143600 L 4.686600 7.250700 L 2.035000 6.357700 L 2.278000 5.464700 L 5.318400 4.571800 L 9.938300 3.678800 L 14.287200 2.785900 L 16.623100 1.892900 L 16.010400 1.000000 L 66.728800 1.000000 Z M 107.996100 1.949100 L 105.559700 2.898300 L 101.069800 3.847400 L 96.685500 4.796600 L 94.518500 5.745800 L 95.681300 6.694900 L 99.786400 7.644100 L 105.120900 8.593300 L 109.417800 9.542400 L 110.877500 10.491600 L 108.978900 11.440800 L 104.713600 12.389900 L 100.139700 13.339100 L 97.454100 14.288200 L 98.003200 15.237400 L 101.675800 16.186600 L 106.953900 17.135700 L 111.595800 18.084900 L 113.646700 19.034100 L 112.319000 19.983200 L 108.347200 20.932400 L 103.657000 21.881600 L 100.497800 22.830700 L 100.429400 23.779900 L 103.618800 24.729000 L 108.765600 25.678200 L 113.687300 26.627400 L 116.303100 27.576500 L 115.570800 28.525700 L 111.956700 29.474900 L 107.225400 30.424000 L 103.644800 31.373200 L 102.964400 32.322400 L 105.627200 33.271500 L 110.569800 34.220700 L 115.701800 35.169800 L 118.847600 36.119000 L 118.726300 37.068200 L 115.528900 38.017300 L 110.832200 38.966500 L 106.888600 39.915700 L 105.611100 40.864800 L 107.711700 41.814000 L 112.380300 42.763200 L 117.650000 43.712300 L 121.283100 44.661500 L 121.779100 45.610600 L 119.051000 46.559800 L 114.464200 47.509000 L 110.221500 48.458100 L 108.370700 49.407300 L 109.882000 50.356500 L 114.210900 51.305600 L 119.543500 52.254800 L 123.613700 53.204000 L 124.724200 54.153100 L 122.511000 55.102300 L 118.107600 56.051400 L 113.634200 57.000600 L 111.242500 57.949800 L 112.146400 58.898900 L 116.075000 59.848100 L 121.394800 60.797300 L 125.845500 61.746400 L 127.558300 62.695600 L 125.897900 63.644800 L 121.748800 64.593900 L 117.116500 65.543100 L 114.224400 66.492300 L 114.511800 67.441400 L 117.985600 68.390600 L 123.217100 69.339700 L 127.985800 70.288900 L 130.279700 71.238100 L 129.201600 72.187200 L 125.373800 73.136400 L 120.656900 74.085600 L 117.312500 75.034700 L 116.983700 75.983900 L 119.954900 76.933100 L 125.023900 77.882200 L 126.227000 78.109700 L 115.389100 78.109700 L 112.692400 77.623100 L 108.001800 76.671800 L 105.879000 75.720500 L 107.148500 74.769200 L 105.294000 75.727400 L 106.878800 76.685600 L 111.044600 77.643800 L 113.332200 78.109700 L 70.931700 78.109700 L 67.057500 77.334800 L 63.553300 76.380600 L 63.040300 75.426400 L 65.882100 74.472300 L 70.915400 73.518100 L 75.979400 72.563900 L 78.899600 71.609700 L 78.476900 70.655500 L 75.033800 69.701300 L 70.267300 68.747100 L 66.476700 67.793000 L 65.517200 66.838800 L 67.955500 65.884600 L 72.811900 64.930400 L 78.006300 63.976200 L 81.304700 63.022000 L 81.336000 62.067800 L 78.215900 61.113700 L 73.494600 60.159500 L 69.450700 59.205300 L 68.054700 58.251100 L 70.072000 57.296900 L 74.714500 56.342700 L 79.999400 55.388500 L 83.651600 54.434400 L 84.138800 53.480200 L 81.369500 52.526000 L 76.733900 51.571800 L 72.471900 50.617600 L 70.653100 49.663400 L 72.235400 48.709200 L 76.628600 47.755100 L 81.963400 46.800900 L 85.941900 45.846700 L 86.883500 44.892500 L 84.489700 43.938300 L 79.979900 42.984100 L 75.536700 42.029900 L 73.312200 41.075800 L 74.448900 40.121600 L 78.559500 39.167400 L 83.903200 38.213200 L 88.178100 37.259000 L 89.568700 36.304800 L 87.572100 35.350600 L 83.227100 34.396500 L 78.641100 33.442300 L 76.031300 32.488100 L 76.715500 31.533900 L 80.512300 30.579700 L 85.823900 29.625500 L 90.362800 28.671300 L 92.193400 27.717200 L 90.612700 26.763000 L 86.470000 25.808800 L 81.780800 24.854600 L 78.809200 23.900400 L 79.037700 22.946200 L 82.492200 21.992000 L 87.730800 21.037900 L 92.499100 20.083700 L 94.757300 19.129500 L 93.607500 18.175300 L 89.703100 17.221100 L 84.951100 16.266900 L 81.644200 15.312700 L 81.417400 14.358600 L 84.504000 13.404400 L 89.629300 12.450200 L 94.590700 11.496000 L 97.260300 10.541800 L 96.553100 9.587600 L 92.921100 8.633400 L 88.147200 7.679300 L 84.534200 6.725100 L 83.856300 5.770900 L 86.552100 4.816700 L 91.524800 3.862500 L 96.641400 2.908300 L 99.703100 1.954100 L 99.446600 1.000000 L 107.144900 1.000000 Z M 226.175800 1.892900 L 223.839900 2.785900 L 219.491000 3.678800 L 214.871100 4.571800 L 211.830700 5.464700 L 211.587700 6.357700 L 214.239300 7.250700 L 218.723500 8.143600 L 217.992900 8.130400 L 217.361300 8.132100 L 216.729800 8.133800 L 216.230300 8.155400 L 215.730900 8.177100 L 215.363500 8.218600 L 214.995900 8.260200 L 214.759200 8.321700 L 214.520800 8.383200 L 214.409800 8.464700 L 214.293200 8.546100 L 214.295200 8.647500 L 214.283500 8.748800 L 214.373900 8.870100 L 214.436300 8.991400 L 214.660600 9.273900 L 214.823100 9.596200 L 214.748600 9.958400 L 214.232600 10.360500 L 213.071400 10.802400 L 211.111900 11.284200 L 208.318900 11.805900 L 204.845900 12.367400 L 202.967600 12.663100 L 201.035300 12.975600 L 197.379600 13.671500 L 195.025900 14.462000 L 194.770000 14.904400 L 195.262700 15.346900 L 196.633200 15.836700 L 198.633000 16.326500 L 201.262100 16.863500 L 203.899000 17.400500 L 206.322500 17.984800 L 207.803300 18.569100 L 208.045500 19.200700 L 206.767500 19.832200 L 203.994800 20.511100 L 200.349600 21.189900 L 196.445400 21.916000 L 193.496000 22.642100 L 192.273200 23.415500 L 193.323300 24.188800 L 196.545300 25.009500 L 200.797400 25.830100 L 204.801400 26.698000 L 206.761500 27.565900 L 205.802800 28.481100 L 202.106100 29.396200 L 196.973800 30.358700 L 192.868200 31.321100 L 191.675500 31.994200 L 192.208500 32.667400 L 194.341400 33.340500 L 196.801600 33.863100 L 199.587000 34.385700 L 204.390600 35.380100 L 206.595500 36.374600 L 205.115300 37.369100 L 200.679300 38.363600 L 195.473000 39.358100 L 192.061400 40.352600 L 192.125400 41.347100 L 195.633300 42.341600 L 200.857000 43.336100 L 205.222900 44.330600 L 206.579900 45.325000 L 204.259600 46.319500 L 199.405000 47.314000 L 194.408000 48.308500 L 191.730400 49.303000 L 192.691400 50.297500 L 196.817600 51.292000 L 202.076000 52.286500 L 205.876100 53.281000 L 206.345500 54.275500 L 203.253000 55.269900 L 198.122200 56.264400 L 193.481000 57.258900 L 191.615800 58.253400 L 193.445800 59.247900 L 198.069200 60.242400 L 203.208200 61.236900 L 206.331000 62.231400 L 205.899100 63.225900 L 202.125100 64.220400 L 196.868600 65.214800 L 192.719200 66.209300 L 191.721200 67.203800 L 194.366400 68.198300 L 199.351500 69.192800 L 204.220500 70.187300 L 206.574500 71.181800 L 205.253800 72.176300 L 200.909100 73.170800 L 195.680800 74.165300 L 192.144900 75.159700 L 192.043400 76.154200 L 195.426300 77.148700 L 200.451700 78.109700 L 159.669000 78.109700 L 155.768200 77.372600 L 151.767400 76.372900 L 151.047300 75.373200 L 153.966100 74.373500 L 159.071400 73.373800 L 163.822800 72.374100 L 165.855700 71.374400 L 164.158600 70.374700 L 159.576000 69.375000 L 154.388300 68.375300 L 151.177000 67.375600 L 151.540100 66.375900 L 155.297000 65.376300 L 160.578100 64.376600 L 164.755400 63.376900 L 165.750200 62.377200 L 163.067500 61.377500 L 158.042300 60.377800 L 153.175100 59.378100 L 150.888100 58.378400 L 152.319200 57.378700 L 156.756400 56.379000 L 161.991600 55.379300 L 165.419600 54.379600 L 165.334600 53.379900 L 161.778900 52.380200 L 156.521900 51.380500 L 152.179500 50.380800 L 150.912800 49.381100 L 153.351900 48.381400 L 158.283200 47.381700 L 163.252700 46.382000 L 165.787500 45.382300 L 164.626200 44.382600 L 160.346700 43.382900 L 155.078600 42.383200 L 151.443400 41.383500 L 151.250000 40.383800 L 154.594800 39.384100 L 159.813200 38.384400 L 164.308400 37.384700 L 165.843600 36.385000 L 163.654800 35.385400 L 158.831200 34.385700 L 156.041500 33.863100 L 153.577000 33.340500 L 151.421100 32.667400 L 150.865100 31.994200 L 152.034800 31.321100 L 156.071400 30.358700 L 161.134700 29.396200 L 164.728000 28.481100 L 165.583200 27.565900 L 163.485000 26.698000 L 159.343100 25.830100 L 154.918600 25.009500 L 151.524000 24.188800 L 150.267000 23.415500 L 151.282900 22.642100 L 153.990800 21.916000 L 157.653600 21.189900 L 161.022800 20.511100 L 163.519500 19.832200 L 164.487100 19.200700 L 163.934400 18.569100 L 162.108700 17.984800 L 159.340300 17.400500 L 156.324000 16.863500 L 153.315400 16.326500 L 150.901600 15.836700 L 149.117300 15.346900 L 147.983600 14.462000 L 149.371500 13.671500 L 151.992400 12.975600 L 153.381400 12.663100 L 154.667800 12.367400 L 156.886600 11.805900 L 158.331700 11.284200 L 158.849500 10.802400 L 158.475300 10.360500 L 157.362100 9.958400 L 155.713700 9.596200 L 153.734500 9.273900 L 152.692200 9.132700 L 151.599800 8.991400 L 150.535400 8.870100 L 149.442800 8.748800 L 148.405500 8.647500 L 147.354600 8.546100 L 146.375300 8.464700 L 145.390500 8.383200 L 144.486200 8.321700 L 143.580100 8.260200 L 142.758200 8.218600 L 141.936000 8.177100 L 141.198900 8.155400 L 140.461900 8.133800 L 139.158300 8.130400 L 138.570400 8.143600 L 134.086200 7.250700 L 131.434600 6.357700 L 131.677700 5.464700 L 134.718000 4.571800 L 139.337900 3.678800 L 143.686900 2.785900 L 146.022800 1.892900 L 145.410100 1.000000 L 225.563100 1.000000 Z" transform="scale(1.000000,1.000000) translate(187.000000,-1.000000)" fill="url(#54581984173543088)" opacity="1.000000"></path>
        <path d="M 72.358700 130.222100 L 77.139700 131.209500 L 79.376400 132.196900 L 77.981800 133.184300 L 73.633600 134.171700 L 68.445000 135.159100 L 64.937400 136.146400 L 64.815300 137.133800 L 68.138200 138.121200 L 73.291100 139.108600 L 77.770000 140.096000 L 79.398300 141.083400 L 77.384600 142.070800 L 72.707600 143.058200 L 67.640100 144.045600 L 64.644800 145.033000 L 65.177200 146.020300 L 68.978700 147.007700 L 74.201800 147.995100 L 78.308300 148.982500 L 79.302600 149.969900 L 76.701500 150.957300 L 71.769000 151.944700 L 66.902200 152.932100 L 64.466100 153.919500 L 65.644600 154.906900 L 69.865000 155.894200 L 75.076400 156.881600 L 78.746100 157.869000 L 79.090800 158.856400 L 75.943100 159.843800 L 70.832500 160.831200 L 66.242700 161.818600 L 64.404100 162.806000 L 66.210300 163.793400 L 70.783400 164.780800 L 75.901200 165.768100 L 79.076500 166.755500 L 78.766300 167.742900 L 75.121300 168.730300 L 69.912900 169.717700 L 65.672100 170.705100 L 64.459900 171.692500 L 66.865300 172.679900 L 71.719400 173.667300 L 76.663200 174.654600 L 79.294300 175.642000 L 78.334000 176.629400 L 74.249000 177.616800 L 69.024500 178.604200 L 65.199300 179.591600 L 64.410600 180.241400 L 65.238800 180.891200 L 68.238700 181.696000 L 72.454600 182.500900 L 76.516800 183.305800 L 78.976900 184.028700 L 79.606900 184.751500 L 78.257600 185.474400 L 74.171500 186.435700 L 69.257800 187.397000 L 66.208300 188.235300 L 65.473300 189.073600 L 67.034700 189.788900 L 70.200300 190.504100 L 73.599400 191.096400 L 77.028100 191.688700 L 79.507700 192.157900 L 81.411500 192.627200 L 82.511500 193.004200 L 83.088000 193.285500 L 83.444700 193.536100 L 83.560600 193.786700 L 83.633500 193.996200 L 83.556300 194.205800 L 83.577600 194.374400 L 83.519600 194.543000 L 83.656500 194.670500 L 83.758400 194.798100 L 84.110800 194.884600 L 84.450900 194.971200 L 85.068700 195.016800 L 85.683900 195.062300 L 86.587300 195.066900 L 87.490700 195.071400 L 88.611100 195.045200 L 103.554800 195.045200 L 104.236600 195.039500 L 104.918300 195.033900 L 105.921400 195.003500 L 106.923200 194.973100 L 107.923700 194.942700 L 109.043200 194.882000 L 110.156700 194.821200 L 111.263600 194.760500 L 112.471500 194.669400 L 113.661600 194.578300 L 114.832000 194.487100 L 116.066600 194.365700 L 117.259800 194.244200 L 118.408100 194.122700 L 119.556600 193.970800 L 120.625400 193.818900 L 121.610400 193.667100 L 122.502200 193.484800 L 123.265700 193.302600 L 123.899800 193.120400 L 124.331600 192.907800 L 124.594600 192.695200 L 124.698300 192.482500 L 124.513800 192.239600 L 124.164200 191.996600 L 123.679700 191.753600 L 122.906900 191.480200 L 122.060900 191.206900 L 121.198000 190.933500 L 119.731000 190.477900 L 118.625900 190.022400 L 117.947600 189.521200 L 118.156800 189.020100 L 119.368500 188.473300 L 121.664000 187.926600 L 124.992100 187.334400 L 128.853300 186.742100 L 132.863000 186.104300 L 136.152300 185.466400 L 138.175700 184.783100 L 138.431100 184.099700 L 136.839500 183.382100 L 133.833500 182.642200 L 130.296900 181.869400 L 127.629200 181.096600 L 126.764800 180.280000 L 128.426000 179.463300 L 132.417800 178.602800 L 137.480700 177.742300 L 140.712400 177.139400 L 143.086000 176.536500 L 144.217600 175.933600 L 143.871100 175.301500 L 142.123900 174.669400 L 139.392200 174.037200 L 136.117800 173.375900 L 133.232900 172.714500 L 131.441200 172.053100 L 131.198200 171.362500 L 132.765100 170.671900 L 135.821400 169.981300 L 139.821400 169.261500 L 143.702300 168.541700 L 146.501400 167.821800 L 147.510400 167.072800 L 146.388400 166.323700 L 143.513500 165.574600 L 139.584700 164.796300 L 135.974200 164.018000 L 133.846300 163.239700 L 133.930200 162.432200 L 136.395000 161.624700 L 140.482000 160.817100 L 145.017800 159.980400 L 148.353300 159.143600 L 149.360400 158.306800 L 147.607700 157.440800 L 143.746700 156.574800 L 139.280400 155.708800 L 135.839600 154.813600 L 135.024500 153.918300 L 137.203000 153.023100 L 141.673500 152.098600 L 146.557300 151.174200 L 149.796300 150.249700 L 150.261500 149.539900 L 148.824500 148.830100 L 154.371800 148.830100 L 155.923600 149.816000 L 153.846200 150.802000 L 149.146300 151.787900 L 144.101500 152.773800 L 141.156300 153.759700 L 141.738000 154.745700 L 145.564800 155.731600 L 150.782100 156.717500 L 154.861800 157.703500 L 155.826800 158.689400 L 153.209600 159.675300 L 148.278300 160.661300 L 143.422700 161.647200 L 140.995800 162.633100 L 142.173500 163.619000 L 146.385200 164.605000 L 151.589900 165.590900 L 155.265600 166.576800 L 155.630900 167.562800 L 152.508900 168.548700 L 147.412400 169.534600 L 142.811200 170.520600 L 140.935000 171.506500 L 142.692900 172.492400 L 147.233100 173.478300 L 152.355400 174.464300 L 155.577700 175.450200 L 155.338400 176.436100 L 151.753500 177.422100 L 146.560200 178.408000 L 142.275100 179.393900 L 140.974800 180.379800 L 143.289300 181.365800 L 148.097100 182.351700 L 153.068300 183.337600 L 155.794100 184.323600 L 154.953400 185.309500 L 150.953700 186.295400 L 145.733200 187.281400 L 141.821700 188.267300 L 141.114600 189.253200 L 143.954700 190.239100 L 148.965600 191.225100 L 153.719100 192.211000 L 155.911700 193.196900 L 154.480900 194.182900 L 150.120000 195.168800 L 144.942300 196.154700 L 141.456900 197.140700 L 141.352700 198.126600 L 144.680200 199.112500 L 149.827000 200.098400 L 154.298900 201.084400 L 155.929000 202.070300 L 153.927300 203.056200 L 149.263700 204.042200 L 144.198300 205.028100 L 141.185700 206.014000 L 141.685700 207.000000 L 2.436800 207.000000 L 1.824100 206.107000 L 4.160000 205.214000 L 8.508900 204.321100 L 13.128800 203.428100 L 16.169200 202.535200 L 16.412200 201.642200 L 13.760600 200.749200 L 9.276400 199.856300 L 9.981100 199.865700 L 10.685700 199.875100 L 12.092700 199.829500 L 12.796100 199.806700 L 13.185300 199.736900 L 13.575900 199.667000 L 13.968900 199.597200 L 14.057800 199.480200 L 14.160400 199.363300 L 14.280900 199.246400 L 14.143600 199.082300 L 14.060700 198.918300 L 14.042400 198.754300 L 13.855000 198.437700 L 13.997400 198.121100 L 14.388100 197.733800 L 15.359200 197.346500 L 16.999900 196.888700 L 19.328400 196.430800 L 22.371400 195.920000 L 24.284500 195.606900 L 28.473900 194.906400 L 32.182500 194.106900 L 33.809200 193.208200 L 33.342500 192.709300 L 32.002800 192.210500 L 29.723900 191.662100 L 27.009000 191.113600 L 24.044400 190.515700 L 21.665600 189.917700 L 20.255400 189.270200 L 20.408100 188.622700 L 22.282800 187.925600 L 25.530600 187.228600 L 29.627200 186.482000 L 33.285500 185.735400 L 35.557400 184.939200 L 35.499100 184.143100 L 32.931800 183.297400 L 28.756200 182.451700 L 24.269700 181.556500 L 21.533700 180.661200 L 21.752900 179.716500 L 25.088800 178.771700 L 29.025700 178.016600 L 32.898200 177.261600 L 35.592600 176.506600 L 36.335800 175.751500 L 35.037200 175.039100 L 32.147000 174.326700 L 28.412900 173.614200 L 23.609300 172.619800 L 21.404400 171.625300 L 22.884600 170.630800 L 27.320600 169.636300 L 32.526900 168.641800 L 35.938500 167.647300 L 35.874500 166.652800 L 32.366600 165.658300 L 27.142900 164.663800 L 22.777000 163.669300 L 21.420000 162.674900 L 23.740300 161.680400 L 28.594900 160.685900 L 33.591900 159.691400 L 36.269500 158.696900 L 35.308500 157.702400 L 31.182300 156.707900 L 25.923900 155.713400 L 22.123800 154.718900 L 21.654400 153.724400 L 24.746900 152.730000 L 29.877700 151.735500 L 34.518900 150.741000 L 36.384100 149.746500 L 34.554100 148.752000 L 29.930700 147.757500 L 24.791700 146.763000 L 21.668900 145.768500 L 22.100800 144.774000 L 25.874800 143.779500 L 31.131300 142.785100 L 35.280700 141.790600 L 36.278700 140.796100 L 33.633500 139.801600 L 28.648400 138.807100 L 23.779400 137.812600 L 21.425400 136.818100 L 22.746100 135.823600 L 27.090800 134.829100 L 32.319100 133.834600 L 35.855000 132.840200 L 35.956500 131.845700 L 32.573600 130.851200 L 27.548200 129.890200 L 70.677400 129.890200 Z M 115.077000 130.229100 L 119.892100 131.228200 L 122.069100 132.227300 L 120.525900 133.226400 L 116.029700 134.225500 L 110.815100 135.224500 L 107.474000 136.223600 L 107.667100 137.222700 L 111.298400 138.221800 L 116.563000 139.220900 L 120.844200 140.220000 L 122.014000 141.219000 L 119.491100 142.218100 L 114.529400 143.217200 L 109.595000 144.216300 L 107.140600 145.215400 L 108.386100 146.214500 L 112.712500 147.213600 L 117.969200 148.212600 L 121.543700 149.211700 L 121.659100 150.210800 L 118.258200 151.209900 L 113.031300 152.209000 L 108.576400 153.208100 L 107.107700 154.207100 L 109.355400 155.206200 L 114.202000 156.205300 L 119.238800 157.204400 L 121.962200 158.203500 L 121.018600 159.202600 L 116.876900 160.201600 L 111.329600 160.201600 L 114.463700 159.496500 L 116.211000 158.791300 L 115.699100 157.873300 L 112.292600 156.955300 L 107.395100 156.037300 L 103.131900 155.148900 L 101.028900 154.260500 L 101.880200 153.372100 L 105.143700 152.513300 L 109.563600 151.654500 L 113.453900 150.795700 L 115.283400 149.966500 L 114.544400 149.137300 L 111.445700 148.308200 L 107.157700 147.508600 L 102.965400 146.709000 L 100.174600 145.909500 L 99.590100 145.139500 L 101.223800 144.369600 L 104.533100 143.599600 L 108.299600 142.859300 L 111.548000 142.119000 L 113.321400 141.378600 L 113.098500 140.667900 L 111.013100 139.957200 L 107.547800 139.246500 L 103.678400 138.565300 L 100.171500 137.884200 L 97.802800 137.203100 L 97.045900 136.551600 L 97.908200 135.900100 L 100.150000 135.248600 L 103.055800 134.626800 L 106.103000 134.004900 L 108.637400 133.383000 L 110.270200 132.494600 L 108.953000 131.606200 L 105.234100 130.762200 L 100.343100 129.918200 L 100.191900 129.890200 L 113.360700 129.890200 Z M 157.536000 1.974900 L 154.745500 2.949900 L 149.899500 3.924800 L 145.362900 4.899800 L 143.353800 5.874800 L 144.891400 6.849700 L 149.312700 7.824700 L 154.586800 8.799700 L 158.278500 9.774600 L 158.703000 10.749600 L 155.725300 11.724600 L 150.823900 12.699500 L 146.390100 13.674500 L 144.593000 14.649500 L 146.351500 15.624400 L 150.897600 16.599400 L 156.141400 17.574300 L 159.661900 18.549300 L 159.855600 19.524300 L 156.696900 20.499200 L 151.750300 21.474200 L 147.428300 22.449200 L 145.847200 23.424100 L 147.823300 24.399100 L 152.485500 25.374100 L 157.688700 26.349000 L 161.031300 27.324000 L 160.994100 28.299000 L 157.661100 29.273900 L 152.679300 30.248900 L 148.478100 31.223900 L 147.116400 32.198800 L 149.306400 33.173800 L 154.075600 34.148700 L 159.228200 35.123700 L 162.386500 36.098700 L 162.118700 37.073600 L 158.618200 38.048600 L 153.611600 39.023600 L 149.539800 39.998500 L 148.400600 40.973500 L 150.800400 41.948500 L 155.667400 42.923400 L 160.759300 43.898400 L 163.727200 44.873400 L 163.229700 45.848300 L 159.569100 46.823300 L 154.547800 47.798300 L 150.614000 48.773200 L 149.699600 49.748200 L 152.304800 50.723100 L 157.260100 51.698100 L 162.281400 52.673100 L 165.053300 53.648000 L 164.327400 54.623000 L 160.514200 55.598000 L 155.488700 56.572900 L 151.700800 57.547900 L 151.013500 58.522900 L 153.819100 59.497800 L 158.853100 60.472800 L 163.794000 61.447800 L 166.364700 62.422700 L 165.412000 63.397700 L 163.510200 63.689300 L 161.372400 63.980800 L 159.051900 64.272400 L 156.610300 64.564000 L 154.114400 64.855600 L 151.633500 65.147200 L 154.844700 64.528100 L 157.862400 63.883500 L 159.909200 63.238800 L 160.484000 62.560000 L 159.298300 61.881100 L 156.399600 61.168100 L 152.524400 60.455100 L 148.428500 59.708000 L 145.398700 58.960800 L 144.201800 58.179500 L 145.320100 57.398100 L 148.463500 56.582600 L 152.500200 55.767100 L 156.064300 54.917400 L 157.599000 54.067800 L 156.301100 53.183900 L 152.444200 52.300100 L 148.955300 51.688000 L 145.503500 51.076000 L 142.699100 50.464000 L 140.857000 49.743500 L 140.974800 49.022900 L 142.933500 48.302400 L 146.128200 47.581800 L 150.036000 46.765400 L 152.881400 45.949000 L 153.570900 45.132600 L 151.736900 44.316200 L 147.861600 43.499800 L 142.775000 42.628700 L 138.468300 41.757600 L 136.411900 40.886500 L 137.217000 40.015400 L 140.402200 39.144300 L 144.036000 38.384200 L 147.243600 37.624100 L 148.964200 36.864100 L 148.882000 36.346400 L 147.771300 35.828700 L 145.002200 35.163600 L 141.244200 34.498400 L 137.242900 33.833300 L 133.923000 33.201500 L 131.691100 32.569700 L 130.909600 31.938000 L 131.545100 31.339600 L 133.343300 30.741300 L 135.890700 30.143000 L 138.461100 29.578000 L 140.712900 29.013100 L 142.202300 28.448200 L 142.591200 27.916600 L 141.898300 27.385100 L 140.157100 26.853600 L 137.707000 26.355500 L 134.752300 25.857400 L 131.611300 25.359300 L 127.502300 24.662200 L 124.539800 23.965200 L 123.260300 23.318200 L 123.580600 22.671300 L 125.056000 22.074400 L 127.314300 21.477600 L 129.550300 20.930900 L 131.540500 20.384200 L 132.719900 19.887600 L 133.115600 19.391000 L 132.611500 18.944500 L 131.338900 18.498100 L 129.529000 18.101700 L 127.247700 17.705300 L 124.876700 17.359100 L 122.345900 17.012800 L 120.034800 16.716700 L 117.762200 16.420600 L 115.772800 16.162000 L 114.094100 15.947000 L 112.549200 15.743200 L 111.122000 15.539300 L 109.838900 15.350200 L 108.679800 15.161100 L 107.643700 14.986900 L 106.723200 14.812600 L 105.893000 14.653200 L 105.161800 14.493700 L 104.483700 14.349000 L 103.884600 14.204400 L 103.302200 14.074600 L 102.779000 13.944700 L 102.240300 13.829700 L 101.743400 13.714600 L 101.204400 13.614400 L 100.693300 13.514200 L 100.119600 13.428800 L 99.563200 13.343300 L 98.906100 13.276400 L 98.258100 13.209500 L 97.618400 13.142600 L 96.975200 13.109800 L 96.333700 13.077000 L 95.693900 13.044200 L 95.055600 13.011400 L 94.418700 12.978600 L 92.825300 12.960400 L 92.028700 12.951200 L 91.232200 12.942100 L 90.435800 12.933000 L 88.906200 12.947400 L 88.141400 12.954700 L 87.423600 12.942000 L 86.648200 12.946000 L 85.872700 12.950000 L 85.021000 12.976200 L 84.170200 13.002400 L 83.246200 13.050800 L 82.325600 13.099200 L 81.338900 13.169800 L 80.360900 13.240400 L 79.329900 13.333200 L 78.317500 13.426100 L 77.273700 13.541100 L 76.264600 13.656100 L 75.257400 13.793400 L 74.308700 13.930600 L 73.408500 14.090100 L 72.598000 14.249500 L 71.319200 14.612900 L 70.678800 15.020600 L 70.864300 15.472800 L 71.982900 15.969400 L 73.985000 16.510400 L 76.591500 17.095800 L 79.261000 17.725700 L 80.388500 18.057300 L 81.671500 18.735500 L 81.082400 19.535100 L 78.214200 20.334700 L 74.883000 20.975500 L 71.265100 21.616400 L 68.080700 22.257300 L 65.804900 23.005900 L 65.573900 23.754600 L 67.410200 24.503300 L 71.353400 25.359800 L 75.746400 26.216300 L 78.922000 27.072900 L 79.605600 28.037200 L 76.873100 29.001500 L 71.954900 29.965900 L 67.829900 30.770000 L 65.083300 31.574100 L 64.601100 32.378200 L 66.528800 33.182300 L 70.678600 34.067300 L 75.318300 34.952300 L 78.616900 35.837300 L 79.271300 36.722300 L 76.794900 37.667900 L 72.127400 38.613500 L 67.156300 39.605300 L 64.512300 40.597200 L 65.491300 41.589000 L 69.613400 42.580800 L 74.858300 43.572600 L 78.655200 44.564400 L 79.143200 45.556200 L 76.083000 46.548000 L 70.974600 47.539800 L 66.321800 48.531600 L 64.405100 49.523400 L 66.163900 50.515200 L 70.736200 51.507000 L 75.881000 52.498800 L 79.076500 53.490700 L 78.756600 54.482500 L 75.078000 55.474300 L 69.843800 56.466100 L 65.619400 57.457900 L 64.475400 58.449700 L 66.972400 59.441500 L 71.886700 60.433300 L 76.809400 61.425100 L 79.327900 62.416900 L 78.207800 63.408700 L 73.997900 64.400500 L 68.761800 65.392300 L 65.065900 66.384200 L 64.721600 67.376000 L 67.897700 68.367800 L 73.037500 69.359600 L 77.621800 70.351400 L 79.403600 71.343200 L 77.509700 72.335000 L 72.868200 73.326800 L 67.754200 74.318600 L 64.674200 75.310400 L 65.137900 76.302200 L 68.917900 77.294000 L 73.230500 78.109700 L 30.220000 78.109700 L 25.194600 77.148700 L 21.811700 76.154200 L 21.913200 75.159700 L 25.449100 74.165300 L 30.677400 73.170800 L 35.022100 72.176300 L 36.342800 71.181800 L 33.988800 70.187300 L 29.119800 69.192800 L 24.134700 68.198300 L 21.489500 67.203800 L 22.487500 66.209300 L 26.636900 65.214800 L 31.893400 64.220400 L 35.667400 63.225900 L 36.099300 62.231400 L 32.976500 61.236900 L 27.837500 60.242400 L 23.214100 59.247900 L 21.384100 58.253400 L 23.249300 57.258900 L 27.890500 56.264400 L 33.021300 55.269900 L 36.113800 54.275500 L 35.644400 53.281000 L 31.844300 52.286500 L 26.585900 51.292000 L 22.459700 50.297500 L 21.498700 49.303000 L 24.176300 48.308500 L 29.173300 47.314000 L 34.027900 46.319500 L 36.348200 45.325000 L 34.991200 44.330600 L 30.625300 43.336100 L 25.401600 42.341600 L 21.893700 41.347100 L 21.829700 40.352600 L 25.241300 39.358100 L 30.447600 38.363600 L 34.883600 37.369100 L 36.363800 36.374600 L 34.158900 35.380100 L 29.355300 34.385700 L 26.565600 33.863100 L 24.101100 33.340500 L 21.945200 32.667400 L 21.389200 31.994200 L 22.558900 31.321100 L 26.595500 30.358700 L 31.658800 29.396200 L 35.252100 28.481100 L 36.107300 27.565900 L 34.009100 26.698000 L 29.867200 25.830100 L 25.442700 25.009500 L 22.048100 24.188800 L 20.791100 23.415500 L 21.807000 22.642100 L 24.514900 21.916000 L 28.177700 21.189900 L 31.546900 20.511100 L 34.043600 19.832200 L 35.011200 19.200700 L 34.458500 18.569100 L 32.632800 17.984800 L 29.864400 17.400500 L 26.848100 16.863500 L 23.839500 16.326500 L 21.425700 15.836700 L 19.641300 15.346900 L 18.507700 14.462000 L 19.895600 13.671500 L 22.516500 12.975600 L 23.905400 12.663100 L 25.191900 12.367400 L 27.410700 11.805900 L 28.855800 11.284200 L 29.373600 10.802400 L 28.999400 10.360500 L 27.886200 9.958400 L 26.237800 9.596200 L 24.258600 9.273900 L 23.216300 9.132700 L 22.123900 8.991400 L 21.059500 8.870100 L 19.966900 8.748800 L 18.929600 8.647500 L 17.878600 8.546100 L 16.899400 8.464700 L 15.914600 8.383200 L 15.010300 8.321700 L 14.104200 8.260200 L 13.282300 8.218600 L 12.460100 8.177100 L 11.723000 8.155400 L 10.986000 8.133800 L 9.682400 8.130400 L 9.094500 8.143600 L 4.610300 7.250700 L 1.958700 6.357700 L 2.201800 5.464700 L 5.242100 4.571800 L 9.862000 3.678800 L 14.211000 2.785900 L 16.546900 1.892900 L 15.934200 1.000000 L 156.881300 1.000000 Z M 109.081300 59.294200 L 113.810800 60.293200 L 118.924800 61.292300 L 121.881600 62.291400 L 121.211300 63.290500 L 117.247300 64.289600 L 111.959700 65.288700 L 107.976800 66.287700 L 107.278100 67.286800 L 110.211000 68.285900 L 115.317700 69.285000 L 120.059900 70.284100 L 122.080700 71.283200 L 120.375500 72.282200 L 115.792000 73.281300 L 110.608300 74.280400 L 107.400900 75.279500 L 107.764100 76.278600 L 111.517200 77.277700 L 115.912600 78.109700 L 107.185700 78.109700 L 103.562800 77.391400 L 100.458900 76.639000 L 99.018500 75.886500 L 99.710000 75.134000 L 102.501900 74.351900 L 106.625400 73.569800 L 110.856400 72.787700 L 113.993800 71.976000 L 114.902000 71.164300 L 113.330100 70.352600 L 109.681000 69.511200 L 105.340900 68.669900 L 101.907800 67.828600 L 100.638200 66.957700 L 102.231100 66.086700 L 106.124000 65.215800 L 111.010100 64.315200 L 114.865000 63.414700 L 116.160600 62.514100 L 114.285700 61.584000 L 110.018000 60.653800 L 105.243300 59.723600 L 102.557600 59.009300 L 101.539800 58.295100 L 107.087100 58.295100 Z" transform="scale(1.000000,1.000000) translate(14.000000,-1.000000)" fill="url(#105553170854000140604518004528)" opacity="1.000000"></path>
        <path d="M 1.000000 3.000000 L 430.000000 3.000000 L 430.000000 1.000000 L 1.000000 1.000000 L 1.000000 3.000000 Z" transform="scale(1.000000,1.000000) translate(-1.000000,126.890201)" fill="#176168" opacity="1.000000"></path>
        <path d="M 1.000000 3.000000 L 430.000000 3.000000 L 430.000000 1.000000 L 1.000000 1.000000 L 1.000000 3.000000 Z" transform="scale(1.000000,1.000000) translate(-1.000000,75.109799)" fill="#176168" opacity="1.000000"></path>
        <path d="M 3.451041 37.451995 L 5.110317 37.461012 L 6.770784 37.469472 L 8.607166 37.493120 L 10.447260 37.515042 L 11.777302 37.537036 L 13.110113 37.557741 L 14.445693 37.577156 L 15.869965 37.601514 L 17.298050 37.624097 L 18.729950 37.644906 L 20.382015 37.437639 L 20.416267 35.121068 L 19.511004 33.968731 L 17.759182 33.930248 L 16.007359 33.891764 L 14.486499 33.855001 L 12.965639 33.818237 L 11.444779 33.781474 L 9.923919 33.744711 L 8.403058 33.707947 L 7.201614 33.365722 L 7.234335 31.862217 L 7.267055 30.390196 L 7.299775 28.949658 L 7.332496 27.540603 L 8.196067 26.915499 L 9.782369 26.952262 L 11.602695 26.990745 L 13.423022 27.029229 L 15.243349 27.067713 L 17.063676 27.106198 L 18.884003 27.144682 L 20.106530 26.798963 L 20.129329 24.185933 L 19.972967 21.862801 L 18.673261 21.843050 L 17.373556 21.823300 L 16.073850 21.803549 L 14.261560 21.784484 L 12.449270 21.765417 L 10.797127 21.758671 L 9.144983 21.751924 L 7.730275 21.553500 L 7.724270 20.193175 L 7.707301 18.686700 L 7.690331 17.162736 L 7.672753 16.050100 L 7.878660 15.112965 L 9.178365 15.093215 L 10.554331 15.067598 L 11.930297 15.041981 L 13.306263 15.016364 L 15.058086 14.977881 L 16.809908 14.939396 L 18.561731 14.900912 L 20.313553 14.862428 L 21.222892 13.382573 L 21.190172 10.750381 L 19.936031 10.077280 L 18.237677 10.114043 L 16.551259 10.150806 L 14.876777 10.187569 L 13.214230 10.224332 L 11.563619 10.261095 L 9.924945 10.297858 L 8.298206 10.334621 L 6.683403 10.371384 L 5.080537 10.408148 L 3.489606 10.444911 L 3.133899 12.098116 L 3.160405 14.164363 L 3.189050 16.224806 L 3.219835 18.279445 L 3.252760 20.328279 L 3.275313 21.926153 L 3.298982 23.521001 L 3.323766 25.112824 L 3.343275 26.607379 L 3.363593 28.099736 L 3.384722 29.589897 L 3.405551 31.653763 L 3.427466 33.714685 L 3.435280 35.579545 L 3.443442 37.443457 L 3.458640 37.443457 L 3.466802 35.581334 L 3.474616 33.720154 L 3.496531 31.670533 L 3.517360 29.623857 L 3.538489 28.153939 L 3.558807 26.686217 L 3.578316 25.220692 L 3.603100 23.669339 L 3.626769 22.121010 L 3.649322 20.575708 L 3.682247 18.611041 L 3.713032 16.652179 L 3.741677 14.699121 L 3.768183 12.751866 L 4.147383 11.217278 L 5.663612 11.254041 L 7.167906 11.290804 L 8.660263 11.327567 L 10.140684 11.364330 L 11.609170 11.401093 L 13.065720 11.437857 L 14.510333 11.474620 L 15.943011 11.511383 L 17.363752 11.548146 L 18.772558 11.584909 L 19.782891 11.858612 L 19.750170 12.717483 L 18.772328 13.130779 L 16.952001 13.092295 L 15.131675 13.053811 L 13.311348 13.015327 L 11.491022 12.976843 L 10.069456 12.951226 L 8.647891 12.925609 L 7.226325 12.899992 L 5.891462 12.880242 L 5.650398 14.400991 L 5.632820 16.248435 L 5.615851 18.835014 L 5.598881 21.439081 L 5.592877 23.804794 L 6.995576 24.166899 L 8.659729 24.160152 L 10.323881 24.153406 L 12.170110 24.134340 L 14.016339 24.115274 L 15.351201 24.095523 L 16.686064 24.075773 L 18.020926 24.056023 L 18.222889 24.473469 L 18.245688 25.003616 L 17.068761 25.105160 L 15.316939 25.143644 L 13.565116 25.182128 L 11.813293 25.220612 L 10.061470 25.259096 L 8.309647 25.297580 L 6.788787 25.334343 L 5.990656 26.333288 L 6.023376 28.415294 L 6.056096 30.465816 L 6.088817 32.484856 L 6.121537 34.472412 L 7.388422 34.847946 L 8.974723 34.811183 L 10.561024 34.774420 L 12.147325 34.737657 L 13.733626 34.700894 L 15.319927 34.664131 L 17.140253 34.625647 L 18.960579 34.587163 L 19.934346 35.337139 L 19.968598 37.034068 L 18.418061 37.242008 L 17.052429 37.262815 L 15.682984 37.285398 L 14.309724 37.309755 L 13.010736 37.329172 L 11.708979 37.349877 L 10.404453 37.371871 L 8.586028 37.393792 L 6.763891 37.417441 L 5.108061 37.425902 L 3.451041 37.434918 M 33.605956 13.397791 L 34.505975 13.520479 L 35.461966 13.828025 L 36.355301 14.461929 L 37.048598 15.427011 L 37.481171 16.631634 L 37.745333 17.917354 L 37.830679 19.276616 L 37.771740 20.626892 L 37.561151 21.932850 L 37.219646 23.174106 L 36.760923 24.277670 L 36.247032 25.119849 L 35.606139 25.693378 L 35.017756 25.969414 L 34.271461 26.113112 L 33.641301 26.164795 L 33.012573 26.110560 L 32.279155 25.972131 L 31.625755 25.670703 L 31.015487 25.116735 L 30.469656 24.265081 L 29.994110 23.185006 L 29.646870 21.961447 L 29.440841 20.659421 L 29.383595 19.309580 L 29.475475 17.953916 L 29.751268 16.673728 L 30.190461 15.461958 L 30.870763 14.486763 L 31.754567 13.839540 L 32.707287 13.523137 L 33.606860 13.397790 L 33.605951 13.380745 L 32.698157 13.469076 L 31.701596 13.688023 L 30.691359 14.225179 L 29.798822 15.136868 L 29.081463 16.350097 L 28.540059 17.663811 L 28.146123 19.127669 L 27.913781 20.645698 L 27.858741 22.212472 L 27.991645 23.808562 L 28.345254 25.316270 L 28.984776 26.869477 L 29.985915 28.158610 L 31.236625 29.017815 L 32.452098 29.417080 L 33.630585 29.578511 L 34.807752 29.424985 L 36.012739 29.037222 L 37.313762 28.126159 L 38.285848 26.858392 L 38.908760 25.268177 L 39.230857 23.764144 L 39.350186 22.180559 L 39.298702 20.617906 L 39.068915 19.099701 L 38.683033 17.635708 L 38.154613 16.317197 L 37.435887 15.095169 L 36.531649 14.197337 L 35.513659 13.675817 L 34.514912 13.466366 L 33.606854 13.380744 M 25.654374 20.438316 L 25.764053 22.491523 L 25.868229 23.623936 L 26.086078 24.735428 L 26.365214 25.933697 L 26.844320 27.057721 L 27.483881 28.172906 L 28.284136 29.167270 L 29.694581 30.247402 L 31.292243 30.936952 L 32.974569 31.310240 L 34.796709 31.356442 L 36.603344 31.043657 L 38.350136 30.244847 L 39.887428 28.959495 L 41.081693 27.247069 L 41.935817 25.359593 L 42.459422 23.419412 L 42.747092 21.434491 L 42.797920 19.378553 L 42.664943 17.953881 L 42.407109 16.527324 L 42.055090 15.193598 L 41.537149 13.937946 L 40.957073 12.799182 L 40.187076 11.694273 L 38.430046 10.108586 L 36.372096 9.180264 L 35.210894 8.943004 L 34.065520 8.847294 L 32.713556 8.927005 L 31.488579 9.264413 L 30.166860 9.840434 L 28.955365 10.790117 L 29.258134 12.240441 L 29.469388 10.518513 L 29.412302 8.736065 L 29.346860 6.882132 L 29.281420 5.028199 L 29.215980 3.174265 L 27.280963 2.917805 L 25.251429 3.133656 L 25.300938 5.177861 L 25.347994 7.115796 L 25.400192 9.039787 L 25.457530 10.949832 L 25.493684 12.284496 L 25.532009 13.613271 L 25.562619 14.857114 L 25.594805 16.096682 L 25.616062 17.238858 L 25.638259 18.378487 L 25.654370 20.438046 L 25.669569 20.438046 L 25.685680 18.383218 L 25.707877 17.253363 L 25.729134 16.126056 L 25.761320 14.914177 L 25.791930 13.706573 L 25.830255 12.432266 L 25.866410 11.163847 L 25.923748 9.380717 L 25.975945 7.611531 L 26.023002 5.856290 L 26.072509 4.045575 L 27.227311 3.984277 L 28.135902 4.387790 L 28.070462 6.388776 L 28.005021 8.389761 L 27.939580 10.390747 L 27.882494 12.301474 L 28.119642 14.243628 L 30.595390 12.999899 L 31.319227 12.534855 L 32.179499 12.260675 L 33.087955 12.084434 L 33.915159 12.110446 L 34.780142 12.230110 L 35.597702 12.442192 L 36.918574 13.065775 L 38.017682 14.024030 L 38.519662 14.676235 L 38.977690 15.479199 L 39.438800 16.414338 L 39.768665 17.405463 L 40.050819 18.502393 L 40.243958 19.654889 L 40.347016 21.287726 L 40.255760 22.967856 L 39.974198 24.597252 L 39.428384 26.213098 L 38.651173 27.635315 L 37.546182 28.791270 L 36.191690 29.611040 L 34.642134 30.069569 L 33.042687 30.222248 L 31.478143 30.052823 L 29.967578 29.589337 L 28.592557 28.745959 L 27.780893 27.891880 L 27.096972 26.891248 L 26.568684 25.840765 L 26.225168 24.690957 L 25.963595 23.603589 L 25.812749 22.484680 L 25.669565 20.437777 M 51.797208 12.152756 L 51.339281 13.299876 L 50.881342 14.447018 L 50.362718 15.706016 L 49.844069 16.965087 L 49.273361 18.320137 L 48.702608 19.675309 L 48.088436 21.110573 L 47.474199 22.546007 L 46.812161 24.069629 L 46.165528 25.597491 L 45.504168 27.012852 L 44.207660 27.260127 L 43.547299 28.699322 L 43.578407 30.860294 L 45.439810 30.863980 L 47.381681 30.884736 L 48.927416 29.777091 L 49.803074 28.083517 L 50.368042 26.554283 L 50.891540 25.062929 L 51.372390 23.642933 L 51.837752 22.234497 L 52.287630 20.837621 L 52.722022 19.452305 L 53.115698 18.151725 L 53.533955 18.301138 L 53.954149 19.706424 L 54.370371 21.110326 L 54.754174 22.397644 L 55.135606 23.684135 L 55.483107 24.835964 L 55.829845 25.987528 L 56.182202 27.121927 L 56.535316 28.256590 L 56.932622 29.494571 L 57.332293 30.733376 L 58.170765 31.709023 L 60.330700 31.495807 L 62.569402 31.274474 L 62.209869 29.795050 L 61.592112 28.111780 L 60.972826 26.437240 L 60.352014 24.771429 L 59.729669 23.114346 L 59.072805 21.392782 L 58.414113 19.681662 L 57.753589 17.980987 L 57.091240 16.290757 L 56.427055 14.610970 L 55.761046 12.941629 L 55.348908 11.210872 L 55.255626 9.406511 L 55.178519 7.690019 L 55.107842 5.987021 L 55.043605 4.297517 L 54.369947 3.257277 L 52.802666 3.295702 L 51.698023 3.760657 L 51.719381 5.301961 L 51.744500 6.833068 L 51.761960 8.237690 L 51.781662 9.636237 L 51.788756 10.897191 L 51.796566 12.156196 L 51.811765 12.156196 L 51.819576 10.900883 L 51.826668 9.647518 L 51.846370 8.272284 L 51.863831 6.903124 L 51.888948 5.438053 L 51.910306 3.983179 L 52.888126 3.606380 L 54.152497 3.644805 L 54.592668 4.738488 L 54.528430 6.434355 L 54.457756 8.116727 L 54.380648 9.785605 L 54.287366 11.514878 L 54.544811 13.166540 L 55.094034 14.756388 L 55.645086 16.335792 L 56.197968 17.904751 L 56.752680 19.463266 L 57.309221 21.011337 L 57.867592 22.548963 L 58.409494 24.014321 L 58.952925 25.470950 L 59.497885 26.918851 L 60.044374 28.358023 L 60.478614 29.588497 L 59.885672 29.367164 L 59.378910 29.153947 L 58.841988 27.983090 L 58.321263 26.648093 L 57.798169 25.312271 L 57.316981 24.113888 L 56.835033 22.915240 L 56.347470 21.733758 L 55.860665 20.552541 L 55.321700 19.265229 L 54.785103 17.978743 L 54.207129 16.602480 L 53.633131 15.227601 L 52.978659 15.274442 L 52.281440 16.909794 L 51.555033 18.648538 L 50.844111 20.375721 L 50.148676 22.091345 L 49.468727 23.795409 L 48.780589 25.564934 L 48.138637 27.298767 L 47.591999 28.721480 L 46.800107 29.525818 L 45.715987 29.799294 L 44.551402 30.055703 L 44.335963 28.991538 L 44.814344 28.113513 L 46.201326 27.558738 L 46.836255 25.921160 L 47.372967 24.336042 L 47.923118 22.760341 L 48.448069 21.283087 L 48.973085 19.805664 L 49.475162 18.417822 L 49.977285 17.029857 L 50.451831 15.749518 L 50.926405 14.469106 L 51.368759 13.314378 L 51.811123 12.159626 M 80.132537 14.972029 L 80.876841 13.441305 L 81.834956 13.642933 L 82.021392 12.764049 L 82.055035 11.532931 L 81.784133 10.641009 L 80.661483 10.685853 L 79.498768 10.724039 L 78.004392 11.197381 L 77.032158 12.832029 L 77.001703 12.453845 L 75.780059 11.125388 L 74.198125 10.152926 L 72.453383 9.653739 L 70.639508 9.586060 L 68.838568 9.913186 L 67.090479 10.736198 L 65.641158 12.010404 L 64.489027 13.592071 L 63.625796 15.314912 L 63.205386 16.643667 L 62.888080 17.991823 L 62.686103 19.276461 L 62.603901 20.609137 L 62.631211 21.838319 L 62.751467 23.035617 L 63.186811 25.202721 L 63.962837 27.256748 L 64.530726 28.332797 L 65.262355 29.385243 L 66.205074 30.363108 L 67.290347 31.150491 L 68.539608 31.700403 L 69.808117 32.023501 L 71.590873 32.146387 L 73.397016 31.869522 L 75.117086 31.142127 L 76.658261 29.886958 L 77.559217 28.560397 L 76.767494 29.816754 L 77.578031 30.964722 L 79.739725 30.891195 L 80.479301 29.632737 L 80.434041 27.766358 L 80.383367 25.914668 L 80.327277 24.077667 L 80.291771 22.795105 L 80.253979 21.518745 L 80.223725 20.324667 L 80.191814 19.135093 L 80.170701 18.039485 L 80.148602 16.946561 L 80.132537 14.972021 L 80.117339 14.972021 L 80.101274 16.941579 L 80.079174 18.024207 L 80.058062 19.104153 L 80.026148 20.264562 L 79.995895 21.420469 L 79.958105 22.639454 L 79.922602 23.852237 L 79.866511 25.555555 L 79.815836 27.244185 L 79.770575 28.918127 L 79.278999 29.971776 L 78.151692 29.898249 L 77.847569 28.603228 L 76.740914 26.881620 L 75.425230 28.270949 L 74.225291 29.031435 L 72.960479 29.399781 L 71.635957 29.444870 L 70.289848 29.193922 L 69.414892 28.879064 L 68.629296 28.439581 L 67.993950 27.899163 L 67.447502 27.234354 L 67.022225 26.547257 L 66.638927 25.732905 L 66.071526 24.154688 L 65.712249 22.490455 L 65.574654 21.531578 L 65.512812 20.588871 L 65.507737 19.574553 L 65.600848 18.532712 L 65.762110 17.452092 L 66.003992 16.399783 L 66.562197 14.963082 L 67.292263 13.712538 L 68.225324 12.692544 L 69.434804 11.933483 L 70.842110 11.494891 L 72.307787 11.360361 L 73.778027 11.582722 L 75.146048 12.210189 L 76.395853 13.293365 L 77.811943 13.051317 L 78.433000 11.701236 L 79.573758 11.138516 L 80.559638 10.991219 L 81.585582 10.850581 L 81.896782 11.582347 L 81.930428 12.701214 L 81.785358 13.549974 L 80.864240 13.388034 L 80.117339 14.972016 M 72.147287 13.176941 L 73.057231 13.323731 L 74.005567 13.706903 L 74.841455 14.454761 L 75.530326 15.464897 L 75.988086 16.694734 L 76.278929 17.991653 L 76.378969 19.365821 L 76.309144 20.714243 L 76.073686 22.050387 L 75.713598 23.317445 L 75.241113 24.451285 L 74.717218 25.312464 L 74.102570 25.882357 L 73.432749 26.182919 L 72.672781 26.322235 L 72.031941 26.384594 L 71.433179 26.324865 L 70.722384 26.161692 L 70.076569 25.812306 L 69.459875 25.204224 L 68.892600 24.289208 L 68.406246 23.182619 L 68.047099 21.935399 L 67.838513 20.628986 L 67.808905 19.261987 L 67.933914 17.885234 L 68.239796 16.586357 L 68.702959 15.357656 L 69.393738 14.358790 L 70.277757 13.675265 L 71.236690 13.323650 L 72.148308 13.176932 L 72.147178 13.159903 L 71.226522 13.269843 L 70.221078 13.525610 L 69.210058 14.101150 L 68.311946 15.031369 L 67.573803 16.252373 L 67.003931 17.572433 L 66.575279 19.048162 L 66.312352 20.591112 L 66.260318 22.198979 L 66.405666 23.813990 L 66.766456 25.335817 L 67.379134 26.881357 L 68.340042 28.208481 L 69.566859 29.147314 L 70.811952 29.614864 L 72.045916 29.797833 L 73.240636 29.625987 L 74.466462 29.235177 L 75.745914 28.373994 L 76.758086 27.054423 L 77.390391 25.441197 L 77.721508 23.926962 L 77.859846 22.328040 L 77.835397 20.751501 L 77.616328 19.185265 L 77.212763 17.697053 L 76.655572 16.365925 L 75.923582 15.142784 L 75.038676 14.210119 L 74.065749 13.559065 L 73.067752 13.270024 L 72.148197 13.159895 M 103.679050 27.699137 L 102.074040 27.686904 L 100.342277 27.668656 L 100.222043 27.141223 L 100.718454 26.218186 L 101.255025 25.253460 L 101.793036 24.307857 L 102.221971 22.750234 L 102.443570 21.080497 L 102.438157 19.389825 L 102.309850 17.625452 L 101.917023 15.872559 L 101.282432 14.199271 L 100.391835 12.598917 L 99.180533 11.249001 L 97.726374 10.213041 L 96.198139 9.546133 L 94.626823 9.183508 L 92.976891 9.045407 L 91.850041 9.120763 L 90.695863 9.333666 L 89.612541 9.690144 L 88.555658 10.211479 L 86.802718 11.629854 L 85.549243 13.313172 L 84.685439 15.152004 L 84.084567 17.342715 L 83.948753 18.533180 L 83.833420 19.718384 L 83.837521 21.014425 L 83.949524 22.313241 L 84.298868 24.074466 L 84.890109 25.785550 L 85.718349 27.349488 L 86.817564 28.819969 L 88.191665 29.949772 L 89.682296 30.761079 L 91.263094 31.230138 L 92.861319 31.409910 L 94.463103 31.298589 L 95.918625 30.969361 L 97.360883 30.777704 L 98.820253 30.676547 L 99.841435 30.619442 L 100.854970 30.566545 L 101.807080 30.527819 L 102.753640 30.492150 L 103.698837 29.534632 L 103.686649 27.707673 L 103.671450 27.707673 L 103.659262 29.508619 L 102.661909 30.370821 L 101.684581 30.335151 L 100.712806 30.296426 L 99.683457 30.243529 L 98.661754 30.186425 L 97.222736 30.085267 L 95.786536 30.071099 L 94.376688 30.210870 L 92.957009 30.115710 L 91.570545 29.766388 L 90.285711 29.194330 L 89.147655 28.364083 L 88.189241 27.347665 L 87.475667 26.110348 L 86.950658 24.811323 L 86.633404 23.438658 L 86.499232 21.989024 L 86.501317 20.996990 L 86.582109 19.999843 L 86.740335 19.045423 L 86.911620 18.104895 L 87.436677 16.503601 L 88.108778 15.152969 L 88.901880 14.039741 L 89.979363 13.056222 L 90.656119 12.648027 L 91.398899 12.330967 L 92.244387 12.080293 L 93.149642 11.923137 L 94.392935 11.871686 L 95.683999 11.999738 L 96.901504 12.357727 L 98.077559 12.979421 L 99.119689 13.884675 L 99.963570 15.055941 L 100.669220 16.420625 L 101.180900 17.911026 L 101.473587 19.512698 L 101.633162 21.068989 L 101.582519 22.635649 L 101.323757 24.199924 L 100.884635 25.244236 L 100.444072 26.269426 L 100.020272 27.220388 L 100.224708 27.746694 L 102.055107 27.728447 L 103.679050 27.716213 M 98.806511 20.585028 L 98.731343 21.638492 L 98.535389 22.779675 L 98.171409 23.959197 L 97.632885 25.126836 L 96.878731 26.146303 L 95.926013 26.854889 L 94.789304 27.189589 L 93.636531 27.232355 L 92.551685 26.917607 L 91.603298 26.378410 L 90.933816 25.625941 L 90.507398 24.707258 L 90.192402 23.632330 L 90.010811 22.597496 L 89.932105 21.605589 L 89.901300 20.716164 L 89.913661 19.834188 L 89.984280 18.840921 L 90.158519 17.833163 L 90.485530 16.795222 L 90.952709 15.800463 L 91.612268 14.965441 L 92.507475 14.370870 L 93.566472 14.028112 L 94.713392 14.047111 L 95.851339 14.369781 L 96.817967 15.066760 L 97.599257 16.067366 L 98.167486 17.215322 L 98.538771 18.390480 L 98.732104 19.532104 L 98.806511 20.585540 L 98.821703 20.585022 L 98.780922 19.526182 L 98.680600 18.356439 L 98.444090 17.102703 L 98.029323 15.809637 L 97.341895 14.500465 L 96.337915 13.433651 L 95.022654 12.694311 L 93.553573 12.312800 L 92.003873 12.433028 L 90.480106 13.009038 L 89.234583 14.043740 L 88.252200 15.383125 L 87.571925 16.768088 L 87.135771 18.186351 L 86.924185 19.508461 L 86.862947 20.741421 L 86.948004 21.963956 L 87.170055 23.280495 L 87.594783 24.672722 L 88.238600 26.049823 L 89.278578 27.436852 L 90.601988 28.406632 L 92.123818 28.877118 L 93.656499 28.946935 L 95.114124 28.537584 L 96.420337 27.784490 L 97.411767 26.699751 L 98.069258 25.370396 L 98.449672 24.066176 L 98.677310 22.813030 L 98.780171 21.644345 L 98.821703 20.585531 M 107.003517 30.440024 L 108.128909 30.456102 L 109.396935 30.494383 L 110.142151 29.798699 L 110.253020 28.298691 L 110.382175 26.718692 L 110.509693 25.140382 L 110.649443 23.504998 L 110.787225 21.871634 L 110.923029 20.240287 L 111.056869 18.610960 L 111.175521 17.041729 L 111.292534 15.474186 L 112.122717 14.820732 L 113.464215 14.840637 L 113.706712 12.630580 L 113.802111 10.335832 L 112.736928 9.322032 L 110.910154 8.978512 L 109.108616 9.197855 L 107.371785 10.272144 L 106.357999 12.153739 L 106.000956 14.149553 L 106.101115 15.994361 L 106.239902 17.765875 L 106.378686 19.536706 L 106.517480 21.306856 L 106.638556 23.001972 L 106.759646 24.696520 L 106.856362 26.288405 L 106.930939 27.787109 L 106.978934 29.174254 L 106.995917 30.431485 L 107.011116 30.431485 L 107.028099 29.174340 L 107.076094 27.787642 L 107.150668 26.290099 L 107.247390 24.700404 L 107.368474 23.009501 L 107.489553 21.319169 L 107.628347 19.555602 L 107.767134 17.792716 L 107.905916 16.030512 L 108.076436 14.343323 L 108.429929 13.091666 L 108.970117 12.370839 L 109.732881 12.110905 L 110.510963 12.019921 L 111.144179 11.861900 L 111.540075 11.825160 L 111.635474 12.044789 L 111.615874 12.315684 L 110.362170 12.431667 L 109.644182 13.263645 L 109.666881 15.055942 L 109.691226 16.846551 L 109.726625 18.724212 L 109.763994 20.599853 L 109.803334 22.473475 L 109.844644 24.345078 L 109.877850 26.126608 L 109.912702 27.906451 L 109.934935 29.563957 L 109.316790 30.368588 L 108.116002 30.406869 L 107.003517 30.422947 M 123.956806 30.808092 L 125.335365 30.675494 L 126.843349 30.365612 L 128.402047 29.689959 L 129.895549 28.575606 L 130.825592 27.560059 L 131.584320 26.384693 L 132.204175 25.100647 L 132.698554 23.665564 L 133.024320 22.167729 L 133.160338 20.606863 L 133.136456 19.052399 L 133.030505 17.498325 L 132.690260 15.940808 L 132.198423 14.500392 L 131.553164 13.101131 L 130.642720 11.786596 L 129.034585 10.311350 L 127.267765 9.381974 L 125.555849 8.906848 L 123.978059 8.756221 L 122.395030 8.904179 L 120.679656 9.377703 L 118.908181 10.318403 L 117.306852 11.824267 L 116.420892 13.138764 L 115.778110 14.527639 L 115.276337 15.959312 L 114.932454 17.515391 L 114.812884 19.071041 L 114.784868 20.628395 L 114.917897 22.186807 L 115.238021 23.683638 L 115.715111 25.123531 L 116.318051 26.419278 L 117.070958 27.601758 L 118.008409 28.612132 L 119.507542 29.717971 L 121.067618 30.386434 L 122.576578 30.687410 L 123.956012 30.808096 L 123.956743 30.791040 L 122.584161 30.632976 L 121.111298 30.231322 L 119.652458 29.430975 L 118.337077 28.208728 L 117.592586 27.167780 L 117.027542 25.984271 L 116.621374 24.742593 L 116.364606 23.399179 L 116.252033 22.022628 L 116.310384 20.670343 L 116.506373 19.328717 L 116.778148 18.005556 L 117.219698 16.784241 L 117.760310 15.692270 L 118.387845 14.688908 L 119.104575 13.877103 L 120.276389 13.005755 L 121.530223 12.499133 L 122.794867 12.249965 L 123.971303 12.171246 L 125.152915 12.252563 L 126.420699 12.504950 L 127.684489 13.010488 L 128.876420 13.874074 L 129.593201 14.661001 L 130.213230 15.657207 L 130.742444 16.749845 L 131.180655 17.972199 L 131.441939 19.302393 L 131.634791 20.647775 L 131.691012 21.996912 L 131.573914 23.370507 L 131.301402 24.708608 L 130.877633 25.944141 L 130.306022 27.123755 L 129.566738 28.172224 L 128.255792 29.403641 L 126.798856 30.210733 L 125.327410 30.621125 L 123.955946 30.791043 M 129.174089 20.585028 L 129.098921 21.638492 L 128.902967 22.779675 L 128.538986 23.959197 L 128.000464 25.126836 L 127.246308 26.146303 L 126.293591 26.854889 L 125.156882 27.189589 L 124.004110 27.232355 L 122.919263 26.917607 L 121.970876 26.378410 L 121.301393 25.625941 L 120.874976 24.707258 L 120.559980 23.632330 L 120.378389 22.597496 L 120.299683 21.605589 L 120.268877 20.716164 L 120.281239 19.834188 L 120.351857 18.840921 L 120.526097 17.833163 L 120.853108 16.795222 L 121.320286 15.800463 L 121.979845 14.965441 L 122.875052 14.370870 L 123.934051 14.028112 L 125.080970 14.047111 L 126.218917 14.369781 L 127.185544 15.066760 L 127.966836 16.067366 L 128.535063 17.215322 L 128.906349 18.390480 L 129.099681 19.532104 L 129.174089 20.585540 L 129.189281 20.585022 L 129.148500 19.526182 L 129.048178 18.356439 L 128.811668 17.102703 L 128.396901 15.809637 L 127.709473 14.500465 L 126.705493 13.433651 L 125.390232 12.694311 L 123.921150 12.312800 L 122.371451 12.433028 L 120.847684 13.009038 L 119.602161 14.043740 L 118.619778 15.383125 L 117.939503 16.768088 L 117.503349 18.186351 L 117.291763 19.508461 L 117.230525 20.741421 L 117.315582 21.963956 L 117.537633 23.280495 L 117.962361 24.672722 L 118.606178 26.049823 L 119.646155 27.436852 L 120.969566 28.406632 L 122.491396 28.877118 L 124.024077 28.946935 L 125.481702 28.537584 L 126.787915 27.784490 L 127.779345 26.699751 L 128.436836 25.370396 L 128.817250 24.066176 L 129.044888 22.813030 L 129.147749 21.644345 L 129.189281 20.585531 M 137.600418 37.451995 L 139.181744 37.457421 L 140.765311 37.462053 L 142.262280 37.325028 L 142.857518 35.497015 L 143.452757 33.669002 L 144.047995 31.840990 L 144.533496 30.365276 L 145.018984 28.889560 L 145.504489 27.413847 L 145.989977 25.938132 L 146.508038 24.375164 L 147.026087 22.812195 L 147.544139 21.249227 L 148.062197 19.686259 L 148.695176 17.790318 L 149.328169 15.894378 L 149.604798 15.925871 L 150.199163 17.884881 L 150.793542 19.843893 L 151.387907 21.802904 L 151.982277 23.761914 L 152.523345 25.553973 L 153.064404 27.346031 L 153.605462 29.138088 L 154.146530 30.930147 L 154.687593 32.722206 L 155.228652 34.514263 L 155.769720 36.306322 L 156.310788 38.098381 L 158.300724 38.140645 L 160.363213 38.132009 L 161.801682 37.512146 L 161.826218 35.568097 L 161.850763 33.616301 L 161.875298 31.656756 L 161.899846 29.689464 L 161.924381 27.714421 L 161.948844 25.542783 L 161.973317 23.362689 L 161.997781 21.174135 L 162.022245 18.977124 L 162.046708 16.771654 L 162.071172 14.557727 L 162.095645 12.335343 L 162.112742 10.504743 L 160.651273 9.772908 L 158.206479 9.753696 L 157.198031 10.737118 L 157.184848 12.307581 L 157.171656 13.878044 L 157.158474 15.448507 L 157.145291 17.018970 L 157.133979 18.963067 L 157.122666 20.907165 L 157.111354 22.851262 L 157.107354 24.620530 L 157.103345 26.389798 L 157.099345 28.159066 L 157.103345 29.937329 L 157.107354 31.715593 L 158.515615 30.365522 L 157.906181 28.543354 L 157.296747 26.721186 L 156.687312 24.899018 L 156.190335 23.428055 L 155.693358 21.957091 L 155.196389 20.486129 L 154.699412 19.015165 L 154.169179 17.457254 L 153.638954 15.899343 L 153.108730 14.341432 L 152.578505 12.783521 L 151.930724 10.893745 L 150.535305 9.713154 L 147.891850 9.747165 L 146.686601 11.122440 L 146.094824 13.082466 L 145.503039 15.042492 L 144.911262 17.002518 L 144.372571 18.795502 L 143.833870 20.588485 L 143.295179 22.381469 L 142.756479 24.174452 L 142.217788 25.967436 L 141.679087 27.760419 L 141.140396 29.553403 L 140.601705 31.346388 L 141.146268 31.918042 L 141.121724 30.075969 L 141.097188 28.233897 L 141.072647 26.391825 L 141.048103 24.549752 L 141.023567 22.707681 L 140.999031 20.865609 L 140.974486 19.023536 L 140.950020 17.003942 L 140.925559 14.984347 L 140.901085 12.964752 L 140.876623 10.945157 L 139.162096 10.582353 L 137.402576 10.911448 L 137.421668 13.000616 L 137.435318 14.712510 L 137.449868 16.421974 L 137.465318 18.129007 L 137.481652 19.833609 L 137.494465 21.434726 L 137.507912 23.034078 L 137.522026 24.631666 L 137.536779 26.227488 L 137.549589 28.192947 L 137.563087 30.156536 L 137.577275 32.118257 L 137.582232 33.893923 L 137.587413 35.668990 L 137.592819 37.443459 L 137.608018 37.443459 L 137.613420 35.670396 L 137.618601 33.897931 L 137.623561 32.126067 L 137.637749 30.174171 L 137.651248 28.224145 L 137.664058 26.275988 L 137.678814 24.701258 L 137.692920 23.128294 L 137.706376 21.557094 L 137.719180 19.987659 L 137.735523 18.325593 L 137.750969 16.665958 L 137.765518 15.008753 L 137.779172 13.353978 L 137.798257 11.348979 L 139.150240 11.079835 L 140.384917 11.497616 L 140.360451 13.572188 L 140.335985 15.646760 L 140.311519 17.721332 L 140.287054 19.795903 L 140.262514 21.693120 L 140.237973 23.590337 L 140.213433 25.487554 L 140.188893 27.384771 L 140.164352 29.281988 L 140.139812 31.179205 L 140.115272 33.076421 L 141.481983 32.748912 L 142.060680 31.019661 L 142.639376 29.290410 L 143.218073 27.561160 L 143.796770 25.831909 L 144.375467 24.102659 L 144.954163 22.373408 L 145.532860 20.644158 L 146.111557 18.914907 L 146.743216 17.018421 L 147.374875 15.121934 L 148.006534 13.225448 L 148.759573 11.915023 L 149.760058 11.949035 L 150.500850 13.195015 L 151.109013 15.148542 L 151.611554 16.751011 L 152.114096 18.353480 L 152.616637 19.955949 L 153.119178 21.558418 L 153.594809 23.063735 L 154.070440 24.569052 L 154.546071 26.074369 L 155.021701 27.579686 L 155.612819 29.431332 L 156.203936 31.282979 L 156.795054 33.134625 L 159.240746 34.112577 L 159.244749 32.343308 L 159.248752 30.574040 L 159.244749 28.795777 L 159.240746 27.017514 L 159.236743 25.239250 L 159.225430 23.269732 L 159.214118 21.300213 L 159.202805 19.330695 L 159.189621 17.730606 L 159.176437 16.130517 L 159.163253 14.530429 L 159.150069 12.930340 L 159.353305 11.908493 L 159.904958 11.889280 L 160.263300 12.479463 L 160.280400 14.015532 L 160.304865 15.887314 L 160.329331 17.767555 L 160.353797 19.656253 L 160.378262 21.553410 L 160.402728 23.459024 L 160.427194 25.373097 L 160.451659 27.295627 L 160.476200 29.059875 L 160.500740 30.831872 L 160.525280 32.611617 L 160.549821 34.399111 L 160.574361 36.194352 L 159.735340 36.754903 L 158.469742 36.746268 L 157.190131 36.695115 L 156.609108 34.966824 L 156.028086 33.238533 L 155.447064 31.510241 L 154.866041 29.781950 L 154.285019 28.053658 L 153.703997 26.325367 L 153.122974 24.597075 L 152.541952 22.868784 L 151.907744 20.973346 L 151.273537 19.077908 L 150.639329 17.182470 L 150.005122 15.287032 L 148.967498 15.319257 L 148.374368 17.278754 L 147.781238 19.238252 L 147.291043 20.845642 L 146.800848 22.453033 L 146.310654 24.060423 L 145.820459 25.667814 L 145.356441 27.177777 L 144.892422 28.687740 L 144.428404 30.197704 L 143.964386 31.707667 L 143.387578 33.565069 L 142.810769 35.422470 L 142.233961 37.279871 L 140.750363 37.424859 L 139.176509 37.429490 L 137.600418 37.434918 M 182.145267 14.972029 L 182.889570 13.441305 L 183.847682 13.642933 L 184.034121 12.764049 L 184.067761 11.532931 L 183.796859 10.641009 L 182.674212 10.685853 L 181.511501 10.724039 L 180.017125 11.197381 L 179.044888 12.832029 L 179.014432 12.453845 L 177.792785 11.125388 L 176.210854 10.152926 L 174.466116 9.653739 L 172.652237 9.586060 L 170.851294 9.913186 L 169.103208 10.736198 L 167.653886 12.010404 L 166.501754 13.592071 L 165.638527 15.314912 L 165.218114 16.643667 L 164.900811 17.991823 L 164.698830 19.276461 L 164.616629 20.609137 L 164.643942 21.838319 L 164.764196 23.035617 L 165.199541 25.202721 L 165.975566 27.256748 L 166.543457 28.332797 L 167.275083 29.385243 L 168.217800 30.363108 L 169.303078 31.150491 L 170.552337 31.700403 L 171.820848 32.023501 L 173.603600 32.146387 L 175.409744 31.869522 L 177.129816 31.142127 L 178.670987 29.886958 L 179.571946 28.560397 L 178.780226 29.816754 L 179.590761 30.964722 L 181.752451 30.891195 L 182.492030 29.632737 L 182.446770 27.766358 L 182.396100 25.914668 L 182.340009 24.077667 L 182.304500 22.795105 L 182.266705 21.518745 L 182.236452 20.324667 L 182.204544 19.135093 L 182.183427 18.039485 L 182.161332 16.946561 L 182.145267 14.972021 L 182.130068 14.972021 L 182.114003 16.941579 L 182.091903 18.024207 L 182.070791 19.104153 L 182.038878 20.264562 L 182.008625 21.420469 L 181.970835 22.639454 L 181.935331 23.852237 L 181.879241 25.555555 L 181.828565 27.244185 L 181.783305 28.918127 L 181.291729 29.971776 L 180.164422 29.898249 L 179.860298 28.603228 L 178.753643 26.881620 L 177.437959 28.270949 L 176.238021 29.031435 L 174.973208 29.399781 L 173.648686 29.444870 L 172.302577 29.193922 L 171.427622 28.879064 L 170.642025 28.439581 L 170.006679 27.899163 L 169.460232 27.234354 L 169.034955 26.547257 L 168.651656 25.732905 L 168.084255 24.154688 L 167.724979 22.490455 L 167.587383 21.531578 L 167.525541 20.588871 L 167.520466 19.574553 L 167.613577 18.532712 L 167.774840 17.452092 L 168.016722 16.399783 L 168.574926 14.963082 L 169.304992 13.712538 L 170.238054 12.692544 L 171.447533 11.933483 L 172.854839 11.494891 L 174.320516 11.360361 L 175.790757 11.582722 L 177.158777 12.210189 L 178.408582 13.293365 L 179.824672 13.051317 L 180.445729 11.701236 L 181.586487 11.138516 L 182.572367 10.991219 L 183.598311 10.850581 L 183.909511 11.582347 L 183.943157 12.701214 L 183.798088 13.549974 L 182.876970 13.388034 L 182.130068 14.972016 M 174.160017 13.176941 L 175.069960 13.323731 L 176.018297 13.706903 L 176.854181 14.454761 L 177.543058 15.464897 L 178.000812 16.694734 L 178.291658 17.991653 L 178.391698 19.365821 L 178.321877 20.714243 L 178.086414 22.050387 L 177.726327 23.317445 L 177.253840 24.451285 L 176.729949 25.312464 L 176.115301 25.882357 L 175.445477 26.182919 L 174.685510 26.322235 L 174.044671 26.384594 L 173.445908 26.324865 L 172.735111 26.161692 L 172.089299 25.812306 L 171.472607 25.204224 L 170.905327 24.289208 L 170.418976 23.182619 L 170.059827 21.935399 L 169.851246 20.628986 L 169.821634 19.261987 L 169.946643 17.885234 L 170.252522 16.586357 L 170.715691 15.357656 L 171.406464 14.358790 L 172.290487 13.675265 L 173.249419 13.323650 L 174.161038 13.176932 L 174.159908 13.159903 L 173.239252 13.269843 L 172.233808 13.525610 L 171.222787 14.101150 L 170.324675 15.031369 L 169.586532 16.252373 L 169.016660 17.572433 L 168.588008 19.048162 L 168.325081 20.591112 L 168.273048 22.198979 L 168.418396 23.813990 L 168.779185 25.335817 L 169.391863 26.881357 L 170.352772 28.208481 L 171.579588 29.147314 L 172.824682 29.614864 L 174.058646 29.797833 L 175.253365 29.625987 L 176.479191 29.235177 L 177.758643 28.373994 L 178.770815 27.054423 L 179.403121 25.441197 L 179.734237 23.926962 L 179.872575 22.328040 L 179.848126 20.751501 L 179.629057 19.185265 L 179.225492 17.697053 L 178.668302 16.365925 L 177.936312 15.142784 L 177.051406 14.210119 L 176.078479 13.559065 L 175.080482 13.270024 L 174.160926 13.159895 M 186.444951 30.440024 L 187.394514 30.448637 L 188.346859 30.456269 L 189.408187 30.477371 L 190.009573 29.755877 L 190.422739 28.605979 L 190.832614 27.457218 L 191.267797 26.247240 L 191.698438 25.038827 L 192.305160 23.339398 L 192.901121 21.643676 L 193.486332 19.951661 L 194.086437 18.198515 L 194.673685 16.449805 L 195.229631 16.814699 L 195.758863 18.775220 L 196.275395 20.731129 L 196.779237 22.682429 L 197.252562 24.539513 L 197.715273 26.392744 L 198.167381 28.242123 L 198.483908 29.535237 L 198.795964 30.826725 L 199.485075 31.695246 L 201.335466 31.580927 L 203.076675 31.461025 L 204.028318 30.924694 L 203.679096 29.815567 L 203.329642 28.705092 L 202.966751 27.587042 L 202.604068 26.470337 L 202.193228 25.237031 L 201.783062 24.007922 L 201.332580 22.684776 L 200.883263 21.368678 L 200.401348 19.980434 L 199.921031 18.601896 L 199.234399 16.667797 L 198.551536 14.756682 L 197.872433 12.868551 L 197.162790 10.929302 L 195.587347 10.038133 L 193.281053 10.122195 L 192.376030 11.763228 L 191.761020 13.728972 L 191.152461 15.685654 L 190.569963 17.545841 L 189.992852 19.398456 L 189.421118 21.243497 L 189.014668 22.534133 L 188.610490 23.821571 L 188.225083 25.026528 L 187.841331 26.229163 L 187.478338 27.335278 L 187.116339 28.440010 L 186.776957 29.434408 L 186.437879 30.428360 L 186.452022 30.434612 L 186.806301 29.448486 L 187.160265 28.462803 L 187.563161 27.383123 L 187.965074 26.304826 L 188.407546 25.147907 L 188.848368 23.993309 L 189.321532 22.775242 L 189.792424 21.560373 L 190.465428 19.850676 L 191.133050 18.148553 L 191.795290 16.454003 L 192.485979 14.700266 L 193.170227 12.955590 L 193.960838 11.539994 L 195.203320 11.624056 L 196.063067 12.547277 L 196.614838 14.334896 L 197.144213 16.017260 L 197.669831 17.676641 L 198.191689 19.313039 L 198.563148 20.451114 L 198.933019 21.579483 L 199.285855 22.633399 L 199.637539 23.680268 L 199.970002 24.645256 L 200.301778 25.606045 L 200.612256 26.478198 L 200.922514 27.349004 L 201.246221 28.227388 L 201.570148 29.107117 L 201.505302 29.401946 L 201.157249 29.282043 L 200.750869 29.167724 L 200.299619 28.261162 L 199.811454 27.014761 L 199.327771 25.769987 L 198.644547 24.018685 L 197.971937 22.271236 L 197.309941 20.527641 L 196.628732 18.720565 L 195.960224 16.918101 L 195.304417 15.120247 L 194.646778 14.955527 L 193.982786 16.938011 L 193.331662 18.916060 L 192.718138 20.798686 L 192.115369 22.677606 L 191.523356 24.552819 L 191.109080 25.863940 L 190.699346 27.173496 L 190.313527 28.397500 L 189.931006 29.620368 L 189.358609 30.385599 L 188.330689 30.406702 L 187.389216 30.414335 L 186.444951 30.422947 M 207.181655 30.440024 L 208.307047 30.456102 L 209.575073 30.494383 L 210.320286 29.798699 L 210.431161 28.298691 L 210.560310 26.718692 L 210.687831 25.140382 L 210.827581 23.504998 L 210.965366 21.871634 L 211.101166 20.240287 L 211.235007 18.610960 L 211.353657 17.041729 L 211.470674 15.474186 L 212.300856 14.820732 L 213.642352 14.840637 L 213.884850 12.630580 L 213.980249 10.335832 L 212.915066 9.322032 L 211.088291 8.978512 L 209.286756 9.197855 L 207.549925 10.272144 L 206.536135 12.153739 L 206.179094 14.149553 L 206.279252 15.994361 L 206.418043 17.765875 L 206.556825 19.536706 L 206.695618 21.306856 L 206.816691 23.001972 L 206.937787 24.696520 L 207.034497 26.288405 L 207.109078 27.787109 L 207.157072 29.174254 L 207.174055 30.431485 L 207.189254 30.431485 L 207.206237 29.174340 L 207.254232 27.787642 L 207.328806 26.290099 L 207.425528 24.700404 L 207.546612 23.009501 L 207.667691 21.319169 L 207.806485 19.555602 L 207.945272 17.792716 L 208.084054 16.030512 L 208.254574 14.343323 L 208.608067 13.091666 L 209.148255 12.370839 L 209.911019 12.110905 L 210.689101 12.019921 L 211.322317 11.861900 L 211.718213 11.825160 L 211.813612 12.044789 L 211.794012 12.315684 L 210.540308 12.431667 L 209.822320 13.263645 L 209.845019 15.055942 L 209.869364 16.846551 L 209.904763 18.724212 L 209.942132 20.599853 L 209.981472 22.473475 L 210.022782 24.345078 L 210.055988 26.126608 L 210.090840 27.906451 L 210.113073 29.563957 L 209.494928 30.368588 L 208.294140 30.406869 L 207.181655 30.422947 M 209.753358 39.697298 L 210.232588 39.714191 L 210.775397 39.756715 L 211.388853 39.810929 L 212.078696 39.863761 L 212.821904 39.385270 L 212.376428 37.977871 L 211.896711 36.416723 L 211.389548 34.785246 L 211.130721 33.982392 L 210.872201 33.214069 L 210.617356 32.501956 L 210.369738 31.868690 L 210.103420 31.262635 L 209.462941 30.962628 L 208.290337 31.170234 L 207.122674 31.386881 L 206.789066 32.683052 L 207.460581 34.388869 L 208.144882 35.985391 L 208.791018 37.413968 L 209.082727 38.056320 L 209.344060 38.649500 L 209.567684 39.194171 L 209.746218 39.691681 L 209.760499 39.685839 L 209.613480 39.178715 L 209.477955 38.615080 L 209.351338 38.011092 L 209.231118 37.382227 L 209.000573 36.105450 L 208.769811 34.878139 L 208.526250 33.760120 L 208.434147 33.230532 L 208.470569 33.447179 L 208.431904 33.654784 L 208.514545 33.966652 L 208.696246 34.303835 L 208.896647 34.613806 L 209.136051 34.942267 L 209.411418 35.297949 L 209.719496 35.688627 L 210.418788 36.597169 L 211.198374 37.687282 L 212.012189 38.931144 L 211.767413 39.513759 L 211.253157 39.566589 L 210.732674 39.620804 L 210.225708 39.663328 L 209.753358 39.680221 M 231.447717 14.972029 L 232.192021 13.441305 L 233.150131 13.642933 L 233.336572 12.764049 L 233.370211 11.532931 L 233.099308 10.641009 L 231.976663 10.685853 L 230.813953 10.724039 L 229.319577 11.197381 L 228.347338 12.832029 L 228.316883 12.453845 L 227.095234 11.125388 L 225.513305 10.152926 L 223.768568 9.653739 L 221.954688 9.586060 L 220.153744 9.913186 L 218.405659 10.736198 L 216.956336 12.010404 L 215.804203 13.592071 L 214.940979 15.314912 L 214.520564 16.643667 L 214.203262 17.991823 L 214.001279 19.276461 L 213.919079 20.609137 L 213.946394 21.838319 L 214.066647 23.035617 L 214.501991 25.202721 L 215.278016 27.256748 L 215.845909 28.332797 L 216.577533 29.385243 L 217.520249 30.363108 L 218.605529 31.150491 L 219.854787 31.700403 L 221.123300 32.023501 L 222.906049 32.146387 L 224.712194 31.869522 L 226.432266 31.142127 L 227.973436 29.886958 L 228.874397 28.560397 L 228.082678 29.816754 L 228.893211 30.964722 L 231.054900 30.891195 L 231.794481 29.632737 L 231.749221 27.766358 L 231.698552 25.914668 L 231.642461 24.077667 L 231.606951 22.795105 L 231.569154 21.518745 L 231.538901 20.324667 L 231.506994 19.135093 L 231.485876 18.039485 L 231.463782 16.946561 L 231.447717 14.972021 L 231.432519 14.972021 L 231.416454 16.941579 L 231.394354 18.024207 L 231.373242 19.104153 L 231.341329 20.264562 L 231.311075 21.420469 L 231.273285 22.639454 L 231.237782 23.852237 L 231.181691 25.555555 L 231.131016 27.244185 L 231.085755 28.918127 L 230.594179 29.971776 L 229.466872 29.898249 L 229.162749 28.603228 L 228.056094 26.881620 L 226.740410 28.270949 L 225.540471 29.031435 L 224.275659 29.399781 L 222.951137 29.444870 L 221.605028 29.193922 L 220.730072 28.879064 L 219.944476 28.439581 L 219.309130 27.899163 L 218.762682 27.234354 L 218.337405 26.547257 L 217.954107 25.732905 L 217.386706 24.154688 L 217.027429 22.490455 L 216.889834 21.531578 L 216.827992 20.588871 L 216.822917 19.574553 L 216.916028 18.532712 L 217.077290 17.452092 L 217.319172 16.399783 L 217.877377 14.963082 L 218.607443 13.712538 L 219.540504 12.692544 L 220.749984 11.933483 L 222.157290 11.494891 L 223.622967 11.360361 L 225.093207 11.582722 L 226.461228 12.210189 L 227.711033 13.293365 L 229.127123 13.051317 L 229.748180 11.701236 L 230.888938 11.138516 L 231.874818 10.991219 L 232.900762 10.850581 L 233.211962 11.582347 L 233.245608 12.701214 L 233.100538 13.549974 L 232.179421 13.388034 L 231.432519 14.972016 M 223.462467 13.176941 L 224.372411 13.323731 L 225.320747 13.706903 L 226.156631 14.454761 L 226.845510 15.464897 L 227.303261 16.694734 L 227.594109 17.991653 L 227.694149 19.365821 L 227.624329 20.714243 L 227.388864 22.050387 L 227.028778 23.317445 L 226.556289 24.451285 L 226.032401 25.312464 L 225.417752 25.882357 L 224.747927 26.182919 L 223.987961 26.322235 L 223.347121 26.384594 L 222.748359 26.324865 L 222.037561 26.161692 L 221.391751 25.812306 L 220.775058 25.204224 L 220.207777 24.289208 L 219.721426 23.182619 L 219.362277 21.935399 L 219.153698 20.628986 L 219.124085 19.261987 L 219.249094 17.885234 L 219.554971 16.586357 L 220.018143 15.357656 L 220.708913 14.358790 L 221.592937 13.675265 L 222.551870 13.323650 L 223.463488 13.176932 L 223.462358 13.159903 L 222.541702 13.269843 L 221.536258 13.525610 L 220.525238 14.101150 L 219.627126 15.031369 L 218.888983 16.252373 L 218.319111 17.572433 L 217.890459 19.048162 L 217.627532 20.591112 L 217.575498 22.198979 L 217.720846 23.813990 L 218.081636 25.335817 L 218.694314 26.881357 L 219.655222 28.208481 L 220.882039 29.147314 L 222.127132 29.614864 L 223.361096 29.797833 L 224.555816 29.625987 L 225.781642 29.235177 L 227.061094 28.373994 L 228.073266 27.054423 L 228.705571 25.441197 L 229.036688 23.926962 L 229.175026 22.328040 L 229.150577 20.751501 L 228.931508 19.185265 L 228.527943 17.697053 L 227.970752 16.365925 L 227.238762 15.142784 L 226.353856 14.210119 L 225.380929 13.559065 L 224.382932 13.270024 L 223.463377 13.159895" transform="scale(1.000000,1.000000) translate(96.128935,81.430100)" fill="#27a2ad" opacity="1.000000"></path>
    </g>
</svg>